<svg width="91" height="126" fill="none" xmlns="http://www.w3.org/2000/svg"><mask id="path-1-inside-1" fill="white"><path fill-rule="evenodd" clip-rule="evenodd" d="M59.1579 77.0001C65.0877 77.0001 69.8947 72.193 69.8947 66.2632C69.8947 60.3334 65.0877 55.5264 59.1579 55.5264C54.3271 55.5264 50.2415 58.7167 48.893 63.1053H20V65.0001L27.2632 70.0527H49.1089C50.6406 74.1125 54.5621 77.0001 59.1579 77.0001Z"/></mask><path d="M48.893 63.1053V64.1053H49.6318L49.8489 63.399L48.893 63.1053ZM20 63.1053V62.1053H19V63.1053H20ZM20 65.0001H19V65.5226L19.4289 65.821L20 65.0001ZM27.2632 70.0527L26.6921 70.8736L26.9495 71.0527H27.2632V70.0527ZM49.1089 70.0527L50.0445 69.6997L49.8004 69.0527H49.1089V70.0527ZM68.8947 66.2632C68.8947 71.6407 64.5354 76.0001 59.1579 76.0001V78.0001C65.64 78.0001 70.8947 72.7453 70.8947 66.2632H68.8947ZM59.1579 56.5264C64.5354 56.5264 68.8947 60.8857 68.8947 66.2632H70.8947C70.8947 59.7811 65.64 54.5264 59.1579 54.5264V56.5264ZM49.8489 63.399C51.072 59.4183 54.7785 56.5264 59.1579 56.5264V54.5264C53.8757 54.5264 49.4109 58.015 47.9371 62.8116L49.8489 63.399ZM20 64.1053H48.893V62.1053H20V64.1053ZM21 65.0001V63.1053H19V65.0001H21ZM27.8342 69.2318L20.5711 64.1791L19.4289 65.821L26.6921 70.8736L27.8342 69.2318ZM49.1089 69.0527H27.2632V71.0527H49.1089V69.0527ZM59.1579 76.0001C54.9917 76.0001 51.4342 73.383 50.0445 69.6997L48.1733 70.4057C49.8471 74.842 54.1324 78.0001 59.1579 78.0001V76.0001Z" fill="white" mask="url(#path-1-inside-1)"/><mask id="path-3-inside-2" fill="white"><path fill-rule="evenodd" clip-rule="evenodd" d="M30.7366 50.4737C24.8068 50.4737 19.9998 45.6666 19.9998 39.7368C19.9998 33.807 24.8068 29 30.7366 29C35.5674 29 39.6531 32.1903 41.0016 36.5789H69.8945V38.4737L62.6314 43.5263H40.7856C39.2539 47.5861 35.3325 50.4737 30.7366 50.4737Z"/></mask><path d="M41.0016 36.5789V37.5789H40.2627L40.0457 36.8727L41.0016 36.5789ZM69.8945 36.5789V35.5789H70.8945V36.5789H69.8945ZM69.8945 38.4737H70.8945V38.9962L70.4656 39.2946L69.8945 38.4737ZM62.6314 43.5263L63.2024 44.3472L62.945 44.5263H62.6314V43.5263ZM40.7856 43.5263L39.85 43.1733L40.0941 42.5263H40.7856V43.5263ZM20.9998 39.7368C20.9998 45.1144 25.3591 49.4737 30.7366 49.4737V51.4737C24.2546 51.4737 18.9998 46.2189 18.9998 39.7368H20.9998ZM30.7366 30C25.3591 30 20.9998 34.3593 20.9998 39.7368H18.9998C18.9998 33.2548 24.2546 28 30.7366 28V30ZM40.0457 36.8727C38.8225 32.892 35.116 30 30.7366 30V28C36.0188 28 40.4836 31.4887 41.9575 36.2852L40.0457 36.8727ZM69.8945 37.5789H41.0016V35.5789H69.8945V37.5789ZM68.8945 38.4737V36.5789H70.8945V38.4737H68.8945ZM62.0603 42.7054L69.3235 37.6528L70.4656 39.2946L63.2024 44.3472L62.0603 42.7054ZM40.7856 42.5263H62.6314V44.5263H40.7856V42.5263ZM30.7366 49.4737C34.9029 49.4737 38.4603 46.8566 39.85 43.1733L41.7212 43.8793C40.0475 48.3157 35.7621 51.4737 30.7366 51.4737V49.4737Z" fill="white" mask="url(#path-3-inside-2)"/><path d="M0.5 0.5H90.5V97.7206L45.5 125.413L0.5 97.7206V0.5Z" stroke="white"/></svg>