<svg width="24" height="24" fill="none" xmlns="http://www.w3.org/2000/svg"><rect x="0.3" y="0.3" width="23.4" height="23.4" rx="3.7" fill="#BA9F33" stroke="#988430" stroke-width="0.6"/><mask id="mask0" mask-type="alpha" maskUnits="userSpaceOnUse" x="0" y="0" width="24" height="24"><rect x="0.449219" y="0.449951" width="23.1" height="23.1" rx="3.4" fill="#C4C4C4"/></mask><g mask="url(#mask0)"><path fill-rule="evenodd" clip-rule="evenodd" d="M3.39415 11.563C3.31131 11.4874 3.22379 11.4116 3.1433 11.3359C3.0628 11.2602 2.98012 11.1844 2.89729 11.1088L2.65112 10.8748C2.61087 10.8345 2.56828 10.7991 2.52803 10.7587C2.48779 10.7233 2.44052 10.683 2.40027 10.6475C2.07361 10.3375 1.74507 10.0275 1.42293 9.71741C1.75661 10.0227 2.08328 10.3258 2.41696 10.6356L2.53287 10.7517C2.57312 10.7918 2.61571 10.8273 2.65595 10.8676L2.90197 11.0947C2.9848 11.1704 3.0653 11.2462 3.14813 11.3287C3.23097 11.4112 3.31147 11.4872 3.3943 11.5627L3.39415 11.563ZM-0.94125 11.5162C-0.94125 11.5162 0.24669 11.6392 0.826542 11.722C1.36365 11.7978 3.04393 12.0557 3.04393 12.0557L-0.94125 11.5162ZM-0.94125 11.5162C-0.607566 11.5446 -0.273882 11.58 0.0598018 11.6156C0.230154 11.6321 0.393486 11.651 0.556818 11.6676L0.80751 11.6961C0.890346 11.7078 0.970842 11.7197 1.05368 11.7315L2.04771 11.89L2.54457 11.9728C2.7079 12.0012 2.87123 12.0321 3.04159 12.0605C2.87825 12.044 2.7079 12.0203 2.54457 11.9966L2.04771 11.9256L1.05368 11.7789C0.970842 11.7671 0.890346 11.7504 0.80751 11.7387L0.556662 11.7098C0.39333 11.6933 0.222978 11.6696 0.0596459 11.6505C-0.274038 11.6105 -0.607722 11.5677 -0.941406 11.5158L-0.94125 11.5162ZM2.92568 12.3652C2.92568 12.3652 1.65724 12.6872 1.22887 12.8102C0.807666 12.9262 -0.467946 13.3143 -0.467946 13.3143L2.92552 12.3653L2.92568 12.3652Z" fill="#CFB66C"/><path fill-rule="evenodd" clip-rule="evenodd" d="M2.92497 12.3652C2.64339 12.4481 2.36337 12.5286 2.07773 12.6044L1.2305 12.8315C0.948916 12.9144 0.668896 12.9948 0.388096 13.0777L-0.0331043 13.1936C-0.172724 13.2338 -0.314684 13.2693 -0.458984 13.3097C-0.31952 13.2629 -0.177404 13.215 -0.0377844 13.1747L0.383416 13.0399C0.664996 12.9523 0.945016 12.8694 1.22582 12.7819C1.51208 12.7109 1.79381 12.6351 2.08007 12.5665C2.35214 12.4978 2.63855 12.4294 2.92497 12.3654V12.3652ZM-0.290972 14.0953C-0.151508 14.0432 1.45779 13.2931 1.83172 13.1179C2.01892 13.0303 2.56305 12.8371 2.56305 12.8371L-0.290972 14.0953Z" fill="#CFB66C"/><path fill-rule="evenodd" clip-rule="evenodd" d="M-0.29086 14.0953C-0.167932 14.0485 -0.0518676 13.9912 0.0663804 13.9368L0.4166 13.7735L1.11954 13.4351C1.35354 13.3239 1.58098 13.2011 1.82232 13.0966C1.9454 13.0446 2.06848 13.0021 2.19141 12.9618L2.37861 12.9027C2.44242 12.8862 2.5017 12.8671 2.56581 12.8506C2.33181 12.9618 2.08549 13.0565 1.85118 13.1652C1.61718 13.2813 1.37787 13.376 1.13638 13.48L0.421748 13.7947C0.18182 13.8919 -0.0521797 13.9959 -0.291016 14.0953H-0.29086ZM-0.13486 14.7505C-0.13486 14.7505 1.3228 13.8962 1.8245 13.6217C2.0872 13.475 2.93678 13.0537 2.93678 13.0537L-0.13486 14.7505Z" fill="#CFB66C"/><path fill-rule="evenodd" clip-rule="evenodd" d="M-0.134766 14.7508C0.111247 14.5993 0.362095 14.4455 0.612943 14.2894L0.987344 14.0621C1.11511 13.9864 1.23819 13.9154 1.36845 13.8398C1.49622 13.764 1.6193 13.6883 1.7494 13.6173C1.81134 13.5791 1.87624 13.5458 1.94347 13.5179L2.14221 13.4186C2.40492 13.2908 2.66762 13.1605 2.94452 13.0493C2.69367 13.208 2.43565 13.3429 2.17778 13.4824C2.05002 13.5534 1.91976 13.6173 1.79199 13.6883C1.66423 13.7593 1.54114 13.8351 1.41088 13.9037C1.28312 13.9794 1.16004 14.0504 1.02993 14.119L0.644143 14.3296L-0.134454 14.7508H-0.134766ZM2.92502 13.2409C2.92502 13.2409 2.01866 13.9366 1.72523 14.1591C1.43179 14.3816 0.568015 15.0063 0.568015 15.0063L2.92502 13.2409Z" fill="#CFB66C"/><path fill-rule="evenodd" clip-rule="evenodd" d="M8.12785 18.8518L7.66406 17.9738L7.93379 16.8757L9.85773 16.1327L9.03889 14.4526L9.44355 12.7558L10.2033 11.2363L12.5509 10.8672L14.276 9.22253L18.0009 9.50412L18.7321 13.487L17.324 18.5016L16.5219 21.0977L13.2702 21.2208L11.7605 20.1748L9.99267 19.4363L8.12785 18.8518Z" fill="#E2CC85"/><path fill-rule="evenodd" clip-rule="evenodd" d="M13.83 18.8235C13.83 18.8235 13.3802 19.0294 12.6132 18.982C12.3912 18.6839 10.8365 18.5443 10.8365 18.5443C10.8365 18.5443 10.6424 18.4852 10.2992 18.6271C9.95383 18.7675 9.62717 18.7502 9.32188 18.8259C9.01658 18.9015 8.71348 18.504 8.47948 18.4212C8.24548 18.3337 7.93519 18.1231 7.93519 18.1231L7.27999 18.0591L5.96429 17.503L3.87404 15.4205L3.30605 16.3097L3.13086 17.4102L3.76282 18.7142L5.46431 20.2642L8.78212 21.1066L10.7487 20.5272L13.2122 19.4859L13.83 18.8234V18.8235Z" fill="#F1D789"/><path fill-rule="evenodd" clip-rule="evenodd" d="M2.04226 11.4637L2.46346 10.1882L2.96531 9.36455L4.58148 9.22961L4.09632 10.6448L2.7452 13.0493L3.30602 15.1957L2.31214 15.6925L2.00669 15.2241L1.76068 14.1497L1.74414 12.9427L2.04226 11.4637Z" fill="#F4ECB4"/><path fill-rule="evenodd" clip-rule="evenodd" d="M3.85526 18.7361L3.54529 18.303C3.54529 18.303 3.46245 18.0971 3.50987 17.9172C3.55667 17.735 3.54997 17.7232 3.52641 17.6545C3.50285 17.5859 3.30395 17.3492 3.31581 17.1457C3.32751 16.9397 3.29927 16.8711 3.45059 16.7079C3.60909 16.5494 3.56182 16.2749 3.56182 16.2749L3.76774 16.4026L3.81454 16.3317C3.81454 16.3317 3.8902 16.3908 3.8902 16.4831C3.90674 16.3554 3.8381 15.7637 3.99425 15.6289C4.15041 15.4941 4.42731 16.2607 4.42731 16.2607L4.25696 15.1484L3.81907 14.0079L3.04047 12.9666L2.99367 11.8187V11.7194C2.99367 11.7194 2.63627 12.2685 2.5369 12.7022C2.46592 13.0003 2.63627 13.3624 2.60086 13.7907C2.57231 14.2168 2.5369 14.1835 2.64095 14.3523C2.74501 14.5211 2.99835 14.8682 2.89898 15.1191C2.81146 15.3345 2.51319 15.183 2.51319 15.183C2.51319 15.183 2.45407 15.3581 2.37357 15.422C2.34518 15.318 2.31445 15.2517 2.25766 15.188C2.25283 15.2283 2.24113 15.2827 2.24113 15.2827C2.24113 15.2827 2.18902 15.1194 2.13692 14.9135C2.06609 14.6391 1.99028 14.277 1.92164 14.0829C1.89325 14.1941 1.82227 14.5325 1.82227 14.5325L1.86251 15.0532L2.05658 15.7679L2.24378 16.2359L2.42599 16.8086L2.58433 17.1932L2.71209 17.4867L2.82332 18.147L3.36043 18.7149L3.64684 18.8428L3.85495 18.7362L3.85526 18.7361Z" fill="#F3E19D"/><path fill-rule="evenodd" clip-rule="evenodd" d="M2.32475 10.4225C2.32475 10.4225 1.93896 11.0777 1.82789 11.7382C1.71682 12.3987 1.61729 13.0967 1.68749 13.9958C1.75847 14.9024 1.89341 15.4583 2.0023 15.856C2.1895 16.5163 2.67435 17.4345 2.67435 17.4345L2.69088 17.399C2.60939 17.2445 2.54434 17.0819 2.49682 16.9138C2.43286 16.663 2.40915 16.3648 2.35002 16.2299C2.29792 16.0951 2.2104 15.9791 2.16782 15.8134C2.12757 15.6549 2.12102 15.404 1.99746 15.2172C1.94536 15.1413 1.8814 14.9426 1.86252 14.7439C1.83881 14.4456 1.87438 14.1119 1.84599 13.8375C1.79388 13.3807 1.75847 13.0708 1.80574 12.8316C1.85301 12.5925 2.09933 11.9136 2.25081 11.374C2.35018 11.0284 2.2909 10.7373 2.47311 10.4367C2.65532 10.1386 2.7667 9.87589 2.80679 9.69369C2.85359 9.52801 2.32413 10.4225 2.32413 10.4225H2.32475Z" fill="#F2E8B0"/><path fill-rule="evenodd" clip-rule="evenodd" d="M4.1537 10.1598C4.1537 10.1598 3.95496 10.2191 3.86026 10.3231C3.76557 10.4225 3.72532 10.5053 3.59756 10.6733C3.4698 10.8414 3.46262 10.9786 3.35841 11.1892C3.25436 11.3952 3.02473 11.7051 2.99633 11.8164C2.96794 11.9276 2.92067 12.4482 2.86155 12.6943C2.80945 12.9405 2.92067 13.2434 2.92067 13.2434L3.05546 13.2149C3.05546 13.2149 3.05546 13.3901 3.1904 13.5085C3.32518 13.6244 3.3489 13.1155 3.3489 13.1155L3.85293 11.414L4.6125 10.8981L4.69534 10.4816L4.15339 10.1598H4.1537Z" fill="#F5EEC0"/><path fill-rule="evenodd" clip-rule="evenodd" d="M4.52301 10.9313C4.52301 10.9313 4.16561 10.9549 3.99058 11.0828C3.9196 11.1347 3.89121 11.1773 3.81555 11.2413C3.67593 11.3572 3.53382 11.4637 3.46533 11.6157C3.38952 11.767 3.30668 11.9966 3.2499 12.4297C3.22619 12.6119 3.22619 12.7799 3.20965 12.9267C3.18594 13.1255 3.15053 13.284 3.1694 13.3947C3.19311 13.6219 3.42743 13.7403 3.4502 13.9981L3.93536 13.7521L4.39212 11.9511L5.36244 11.3427L4.81332 10.7274L4.52238 10.9302L4.52301 10.9313Z" fill="#E6DB9D"/><path fill-rule="evenodd" clip-rule="evenodd" d="M1.96305 23.0591C1.96507 23.0413 1.9671 23.0235 1.96913 23.0052C2.03995 22.3968 2.05197 21.9357 2.10391 21.6469C2.17957 21.2376 2.23168 21.0853 2.21982 20.9321C2.20329 20.6861 2.18441 20.5063 2.20812 20.3169C2.24354 20.066 2.4897 19.7679 2.48268 19.562C2.47785 19.3987 2.39501 19.2923 2.32403 19.1929C2.25305 19.0935 2.19627 19.0107 2.19627 19.0107C2.19627 19.0107 2.68143 18.677 2.67675 17.3328C2.68666 17.3356 2.69619 17.3395 2.70514 17.3446L2.94413 18.0237L3.10746 18.2224L3.73459 19.3915L4.54157 20.1749L5.7342 20.9771L6.48206 21.7909L6.55772 23.961L5.58038 25.2295L5.42032 25.5193C4.14872 24.881 2.98266 24.0511 1.96289 23.0589L1.96305 23.0591Z" fill="#E5CB7A"/><path fill-rule="evenodd" clip-rule="evenodd" d="M4.94922 25.1349C4.94922 25.1349 4.96575 24.8651 5.18821 24.6899C5.22378 24.7491 5.24733 24.806 5.24031 24.8484C5.28056 24.7776 5.56214 24.3232 6.19878 24.2048C6.83541 24.0889 6.98923 23.6251 6.98923 23.6251L8.34034 22.3969L9.88567 20.9746L11.7647 20.3143L12.6428 20.0989C12.6428 20.0989 12.6593 20.1628 12.6263 20.3048C12.7895 20.2931 13.1515 20.2102 13.5278 20.0776C13.6793 20.0185 13.8214 19.9948 13.8971 20.073C14.0083 20.177 14.0248 20.4232 14.0318 20.5698C14.214 20.5296 14.4246 20.3545 14.5934 20.3711C14.8633 20.3995 15.1023 20.7166 15.3769 20.7166C15.7389 20.7166 15.9021 20.4942 16.1555 20.319C16.3069 20.2149 16.5246 20.085 16.6476 19.9971C16.9411 19.7817 20.0459 18.8328 20.0459 18.8328L21.1345 18.9037L21.3097 20.0728L21.2161 23.1288C21.2045 23.1399 21.193 23.1515 21.1813 23.1625L16.2317 25.7476L9.37088 26.7994C7.83401 26.5483 6.35092 26.0381 4.98479 25.2907L4.94969 25.1347L4.94922 25.1349Z" fill="#D8C173"/><path fill-rule="evenodd" clip-rule="evenodd" d="M2.37891 23.4476C2.47641 23.2437 2.56408 23.0732 2.57952 23.0122C2.59169 23.1351 2.614 23.4049 2.65893 23.6916C2.5646 23.6114 2.47126 23.53 2.37891 23.4474V23.4476Z" fill="#F1D789"/><path fill-rule="evenodd" clip-rule="evenodd" d="M7.39172 26.3237L8.27904 26.0769L8.3547 26.1006C8.3547 26.1006 8.39495 26.1243 8.39495 26.2047C8.50618 26.1408 8.60087 26.1525 8.66951 26.1101C8.70493 26.1858 8.74034 26.4366 8.89665 26.4674C9.05983 26.5029 9.23501 26.3964 9.41254 26.2616C9.58757 26.122 9.78694 25.9468 9.93779 25.8758C9.99314 25.9776 10.0422 26.0827 10.0846 26.1905C10.2833 26.032 10.6289 25.3883 11.1211 25.4C11.2633 25.0638 11.501 24.7767 11.8046 24.5741C12.2614 24.2642 12.5477 24.2405 12.9051 24.2688C13.047 24.0845 13.2219 23.928 13.421 23.8074C13.4801 23.8311 13.6434 23.9305 13.847 23.8358C14.0529 23.7413 14.2847 23.3743 14.59 23.3271C14.7545 23.3044 14.9218 23.3396 15.0633 23.4264C15.0633 23.4264 15.9525 22.5436 16.5661 22.2502C16.5424 22.1792 16.4951 21.9118 17.2144 21.3201C17.2547 21.3557 17.2263 21.4551 17.2547 21.4605C17.2664 21.4605 17.4419 21.3849 17.664 21.2144C17.9386 21.0086 18.2674 20.7932 18.4662 20.734C18.8406 20.6228 19.2377 20.8499 19.2377 20.8499C19.2715 20.8263 19.3091 20.8086 19.349 20.7978C19.4435 20.7813 19.5121 20.7694 19.5642 20.751C19.5596 20.8741 19.6282 21.0847 19.5642 21.2669C19.6383 21.3086 19.7168 21.3419 19.7982 21.3663C19.7581 21.4538 19.6705 21.6763 19.5238 21.7828C19.6468 21.8419 19.6633 21.9106 19.8385 21.97C19.7675 22.0694 19.6513 22.2399 19.5995 22.3444C19.5474 22.4557 19.3603 22.9171 19.2775 23.0921C19.19 23.2673 19.0717 23.5892 19.0148 23.6537C18.9579 23.7183 18.7521 23.9921 18.5936 24.1269C18.734 24.0748 19.3084 23.8997 19.5521 23.8334C19.4795 23.9398 19.1118 24.4854 18.7583 25.01C17.0658 26.0245 15.1765 26.6665 13.2164 26.8935C11.2562 27.1204 9.27016 26.9269 7.39062 26.326L7.39172 26.3237Z" fill="#E0CD81"/><path fill-rule="evenodd" clip-rule="evenodd" d="M4.58246 10.8674C4.58246 10.8674 4.37669 10.8674 4.33645 10.8958C4.2962 10.9242 4.54237 10.9835 4.61803 11.0119C4.69369 11.0402 4.85702 11.1704 4.89961 11.2746C4.93986 11.3739 6.37865 11.9536 6.37865 11.9536L7.39623 11.9015L7.74708 11.4168L7.07971 10.8323L7.54771 9.45264L6.92777 9.55201L5.43687 10.4412L4.68901 10.7276L4.58246 10.8674Z" fill="#DFC57C"/><path fill-rule="evenodd" clip-rule="evenodd" d="M6.81562 11.3242C6.83033 11.348 6.85105 11.3675 6.87569 11.3808C6.90033 11.3941 6.92804 11.4006 6.95602 11.3998C7.16662 11.3998 7.36053 11.4519 7.44102 11.5583C7.57596 11.7288 7.9499 12.2731 7.9499 12.2731L8.8444 12.5949L8.90212 11.5416L7.92478 10.8625L6.8125 11.2719V11.324H6.815L6.81562 11.3242Z" fill="#E5CC7C"/><path fill-rule="evenodd" clip-rule="evenodd" d="M6.64007 11.7146C6.64007 11.7146 6.80325 11.7265 7.00917 11.6506C7.21509 11.5748 7.55346 11.4116 7.70025 11.4756C7.90602 11.5631 7.86343 11.8377 8.08604 12.084C8.22082 12.2355 8.46699 12.2308 8.60661 12.3941C8.74623 12.5575 9.22655 12.4817 9.22655 12.4817L9.40876 13.4645L8.67759 14.4017L8.43844 15.5659H7.44972L6.54647 15.2076L6.10156 14.1312L6.32402 13.0426L6.64007 11.7146Z" fill="#D2C281"/><path fill-rule="evenodd" clip-rule="evenodd" d="M8.55324 11.7618C8.57776 11.7694 8.60324 11.7733 8.6289 11.7737C8.60051 11.7974 8.54123 11.8493 8.56494 11.9843C8.58865 12.1192 8.66431 12.2895 8.60051 12.3936C8.65144 12.4493 8.68943 12.5156 8.71174 12.5877C8.75198 12.7037 8.76384 12.8101 9.02639 12.8268C8.9885 12.8501 8.95356 12.8779 8.92234 12.9096C8.92234 12.9096 9.10454 13.0681 9.1969 13.2148C9.29143 13.2107 9.54228 13.1327 9.54228 13.1327L9.59438 13.1683L9.70561 13.1215C9.70561 13.1215 9.60156 13.0812 9.67722 12.8281C9.7482 12.6056 9.81216 12.6175 9.81762 12.6009C9.82308 12.5844 9.86972 12.3501 9.86972 12.2554C9.90514 12.1325 9.93353 11.7585 9.93353 11.7585L9.85787 10.9327L9.43199 10.6746L9.08567 10.3403L8.759 10.9556L8.54388 11.1701L8.52734 11.7025L8.55324 11.7618Z" fill="#E2C270"/><path fill-rule="evenodd" clip-rule="evenodd" d="M9.57812 11.071C9.57812 11.071 9.65378 11.2862 9.68233 11.4519C9.69239 11.4197 9.69796 11.3863 9.69887 11.3525C9.69887 11.3525 9.75799 11.6792 9.76969 11.8141C9.7934 11.8093 9.81649 11.8023 9.8218 11.8258C9.8271 11.8494 9.88108 12.1123 9.8686 12.2589C9.96714 12.0963 10.1035 11.96 10.2661 11.8614C10.3608 11.8021 10.472 11.7383 10.5881 11.7335C10.7703 11.7288 10.9027 11.8495 11.1205 11.8495C11.6457 11.8495 12.1215 11.4638 12.4718 11.3455C12.7296 11.2578 12.9521 11.194 13.1082 11.0519C13.1841 10.9881 13.319 10.8462 13.4419 10.6354C13.6053 10.3546 13.7756 10.1102 13.9461 10.0794C13.869 10.0936 13.7905 10.0991 13.7121 10.096C13.7121 10.096 13.7642 10.0439 13.8525 9.97287C13.9408 9.90189 14.0466 9.81437 14.1979 9.81437C14.4678 9.81437 14.6026 9.85447 14.754 9.85447C14.9055 9.84979 14.993 9.81437 14.993 9.81437C14.993 9.81437 15.1517 9.9256 15.5089 9.9256C15.8663 9.93028 16.1053 9.96101 16.2924 9.97771C16.4794 9.9944 17.1064 9.9256 17.2862 9.93091C17.4035 9.93543 17.5187 9.9636 17.6248 10.0137L17.0449 8.32894L14.962 6.50842L13.722 7.38639L11.8144 9.2938L9.96859 9.97771L9.5828 10.4108V11.071H9.57812Z" fill="#CCB360"/><path fill-rule="evenodd" clip-rule="evenodd" d="M13.7195 10.1053C13.7195 10.1053 13.7716 10.0533 13.8589 9.98236C13.9463 9.91138 14.0532 9.82371 14.2045 9.82371C14.4742 9.82371 14.6092 9.86396 14.7606 9.86396C14.9121 9.85928 14.9996 9.82371 14.9996 9.82371C14.9996 9.82371 15.1584 9.93479 15.5155 9.93479C15.8729 9.93947 16.1119 9.9702 16.299 9.98673C16.486 10.0033 17.113 9.93479 17.2928 9.93993C17.4101 9.94435 17.5252 9.97253 17.6312 10.0228L17.3685 9.26305L17.0634 8.68335L16.1924 7.72957C16.1924 7.72957 15.1472 7.11431 15.1392 7.10963C15.1346 7.10495 14.7772 7.01025 14.7772 7.01025L13.8306 7.58293L12.9716 9.80515L12.9551 10.2731L13.5111 10.5359C13.6507 10.3019 13.8047 10.1147 13.949 10.0909C13.8187 10.1051 13.7193 10.1051 13.7193 10.1051L13.7195 10.1053Z" fill="#D5B457"/><path fill-rule="evenodd" clip-rule="evenodd" d="M13.7069 10.2639C13.6241 10.2686 13.5556 10.2521 13.5366 10.193C13.4656 9.99422 13.4088 9.96582 13.3494 9.96582C13.2899 9.96582 13.2098 10.0936 13.1622 10.1053C13.1146 10.117 13.0581 9.95865 13.0581 9.95865L13.006 9.93494C13.006 9.93494 12.7007 10.1337 12.4854 10.368C12.2702 10.6023 11.9174 10.9999 11.759 11.0708C11.6005 11.1416 11.056 11.1655 10.8698 11.2057C10.6835 11.246 10.4769 11.3809 10.4486 11.4116C10.4202 11.4424 10.5315 11.4754 10.5481 11.5062C10.5646 11.5346 10.3657 11.5227 10.3492 11.553C10.3375 11.5767 10.396 11.7115 10.425 11.7801C10.4758 11.7549 10.5315 11.7411 10.5882 11.7399C10.7704 11.7352 10.903 11.8559 11.1206 11.8559C11.646 11.8559 12.1217 11.4701 12.4719 11.3517C12.7299 11.2642 12.9524 11.2003 13.1085 11.0583C13.1842 10.9945 13.3191 10.8524 13.4422 10.6418C13.532 10.4975 13.6197 10.3625 13.7074 10.2632L13.7069 10.2639Z" fill="#D2B257"/><path fill-rule="evenodd" clip-rule="evenodd" d="M6.17213 21.9759C6.17213 21.9759 6.12533 21.8007 5.69165 21.3487C5.56857 21.221 5.49291 21.1147 5.41007 21.0388C5.20415 20.8445 5.08341 20.7926 4.93677 20.6814C4.61494 20.4424 4.26472 20.4424 3.99499 20.1489C3.72527 19.8555 3.41093 19.2948 3.19253 18.7218C2.97725 18.1492 2.91797 17.967 2.91797 17.9504C2.91797 17.9339 2.97725 17.8227 3.05291 17.8392C3.12857 17.8557 3.12857 18.0024 3.1476 18.0379C3.1853 18.096 3.22805 18.1506 3.27537 18.2011C3.38659 18.329 3.54509 18.4819 3.62559 18.71C3.60905 18.5159 3.54275 18.3006 3.54275 18.3006C3.54275 18.3006 3.95927 18.5634 4.31417 18.8378C4.67157 19.1123 4.81821 19.207 4.92257 19.382C5.02694 19.5571 5.27279 20.0187 5.39057 20.1536C5.50835 20.2886 7.12218 20.7973 7.12218 20.7973L7.88985 21.3696L8.27096 22.205L7.97269 22.673L7.40001 22.7961L6.46994 22.3796L6.17213 21.9757V21.9759Z" fill="#D2B159"/><path fill-rule="evenodd" clip-rule="evenodd" d="M4.10742 19.098C4.10742 19.098 4.30149 19.408 4.77479 19.7014C5.20083 19.9594 5.87521 20.1938 6.47644 20.3334C6.82182 20.4162 7.16736 20.48 7.47733 20.4849C8.31271 20.4966 8.88773 20.2577 9.60018 20.1796C9.98597 20.1393 10.4593 20.1086 10.9515 19.9924C11.5833 19.8409 11.9572 19.6704 12.4661 19.4308C12.8352 19.2604 13.1737 19.1326 13.4481 18.9693C13.8339 18.7422 14.1154 18.489 14.4421 18.4133C14.4019 18.5246 14.3593 18.7233 14.0374 18.9292C14.2078 18.9244 14.4421 18.9127 14.4421 18.9127C14.4421 18.9127 14.215 19.0475 13.815 19.3504C13.5688 19.5376 13.2423 19.8545 12.9086 20.0651C12.6932 20.2 12.4589 20.2991 12.3051 20.3799C11.9307 20.5858 11.7797 20.6898 11.5336 20.9415C11.6212 20.9368 11.6283 20.9415 11.6283 20.9415C11.6283 20.9415 11.3182 20.9817 11.0959 21.1C11.0491 21.1 10.968 21.0834 10.826 21.1237C10.7148 21.1591 10.568 21.2397 10.4167 21.2822C10.2013 21.3461 10.1304 21.3177 10.1304 21.3177L10.1658 21.3887C10.1658 21.3887 9.88504 21.3839 9.79144 21.3934C9.80797 21.3981 9.80329 21.4053 9.80329 21.4053C9.78685 21.408 9.77102 21.4136 9.75649 21.4218C9.71145 21.451 9.66191 21.4725 9.60986 21.4856C9.58146 21.4903 9.55775 21.4903 9.52218 21.4974C9.53404 21.5258 9.62639 21.6846 9.66898 21.7782C9.63357 21.802 9.10098 22.2043 9.10098 22.2043C9.1175 22.2303 9.131 22.2581 9.14123 22.2871C9.15777 22.3391 9.16494 22.4149 9.18148 22.4503C9.22157 22.5213 9.24528 22.5331 9.24528 22.5331C9.24528 22.5331 9.18148 22.545 9.07009 22.5734C8.97556 22.5971 8.85949 22.6372 8.69569 22.6609C8.64544 22.6674 8.59488 22.6714 8.54422 22.6728C8.56793 22.7249 8.67198 22.9236 8.48026 23.1531C8.28853 23.3826 8.22941 23.4159 8.17029 23.5626C8.14053 23.5401 8.10884 23.5202 8.07559 23.5033C8.01179 23.4749 7.92412 23.4325 7.89339 23.3755C7.87547 23.4514 7.85174 23.5258 7.82241 23.598C7.76328 23.7565 7.67577 23.9128 7.65923 24.031C7.59527 23.9601 7.47702 23.8204 7.31369 23.8488C7.15036 23.8772 7.02025 24.0997 6.99186 24.1636C6.99186 24.1234 6.96347 24.0927 6.95645 24.1399C6.95161 24.192 6.86176 24.7362 6.36006 25.1764C6.35538 25.0652 6.35538 24.819 6.34353 24.7387C6.29673 24.7855 6.23947 24.8546 5.89861 25.0014C5.56493 25.148 5.61781 25.2948 5.61781 25.2948C5.61781 25.2948 5.58942 25.0608 5.76929 24.8143C5.9515 24.5683 6.06273 24.4522 6.06273 24.4334C6.05979 24.4141 6.05158 24.3961 6.03901 24.3813C6.0153 24.3576 5.96803 24.3292 5.96803 24.3103C5.99643 24.2986 6.27801 24.1636 6.26147 23.8842C6.24493 23.6336 6.13854 23.5033 6.06273 23.4111C6.05103 23.3992 6.17411 23.3117 6.15742 23.2833C6.14556 23.2668 5.99424 23.1554 5.97521 23.0961C5.97968 23.0608 5.98763 23.0259 5.99892 22.9921C6.01546 22.94 6.02731 22.9044 6.02263 22.869C6.01078 22.8099 5.94682 22.6465 5.92794 22.63C5.94448 22.6347 6.06273 22.63 6.06273 22.63C6.06273 22.63 5.96819 22.4785 5.9515 22.4076C5.93481 22.3366 5.89939 22.1495 5.88052 22.1141C5.92077 22.1188 6.02014 22.1258 6.02014 22.1141C6.02497 22.0785 5.93262 22.0194 5.97334 21.9737C6.00173 21.9784 6.05617 22.0021 6.10812 22.0684C6.07973 21.9926 6.03246 21.846 5.93293 21.7868C5.97973 21.7703 6.13885 21.7276 6.27847 21.8104C6.41809 21.8932 6.46567 22.0091 6.46567 22.0091C6.46567 22.0091 6.54851 22.0731 6.67643 22.1678C6.82307 22.2837 7.00996 22.4486 7.30823 22.5653C7.37219 22.6008 7.53537 22.6008 7.65377 22.5771C7.70533 22.5648 7.75475 22.5449 7.80041 22.518C7.8169 22.5083 7.83436 22.5003 7.85251 22.4943C7.82708 22.4432 7.79782 22.3942 7.765 22.3475C7.80525 22.3475 7.85251 22.3523 7.85251 22.3523C7.85251 22.3523 7.88091 22.2884 7.75314 22.1651C7.78153 22.1367 7.8171 22.1183 7.8171 22.0704C7.77685 22.0658 7.70587 22.0066 7.68934 21.9829C7.71289 21.9664 7.74846 21.9119 7.78871 21.8954C7.75314 21.867 7.66563 21.7486 7.62538 21.7369C7.66383 21.7226 7.70103 21.7052 7.73661 21.6848C7.73661 21.6848 7.53786 21.6327 7.4739 21.5901C7.40994 21.5433 7.31541 21.4624 7.25862 21.4386C7.19934 21.4149 7.09529 21.4032 7.0527 21.3558C7.09279 21.3677 7.15675 21.3558 7.20418 21.3558C7.23959 21.3558 7.25628 21.3605 7.26798 21.3605C7.2633 21.3439 7.2633 21.3084 7.35565 21.2967C7.40008 21.29 7.44318 21.2764 7.48342 21.2564C7.48342 21.2564 7.39575 21.2517 7.29622 21.1571C7.19669 21.0624 7.11401 20.9867 7.05723 20.9748C6.9981 20.963 6.88687 21.0151 6.81823 21.0103C6.72354 20.9986 6.68329 20.9511 6.68329 20.9511C6.68329 20.9511 6.36864 20.9795 5.67054 20.5536C5.06698 20.1844 4.80427 19.8579 4.80427 19.8579C4.74779 19.8374 4.69319 19.812 4.6411 19.7821C4.41396 19.6638 4.09915 19.4177 4.10867 19.0957L4.10742 19.098Z" fill="#C2A44D"/><path fill-rule="evenodd" clip-rule="evenodd" d="M12.8129 4.89432C12.8677 4.9121 12.9163 4.94491 12.9533 4.98901C13.0645 5.11677 13.1355 5.3581 12.8823 5.61613C12.9817 5.65154 13.0227 5.66293 13.1095 5.65154C13.022 5.75575 12.8232 5.9782 12.8114 6.17227C12.7995 6.33076 12.8989 6.37819 12.8989 6.37819C12.8989 6.37819 12.7474 6.55322 12.7404 6.84619C12.8119 6.76552 12.8902 6.6911 12.9744 6.62373C13.1496 6.48411 13.3909 6.32562 13.5542 6.22624C13.552 6.26789 13.5576 6.30959 13.5708 6.34917C13.5708 6.34917 13.8759 6.09832 14.1324 6.20971C14.2483 6.26181 14.1962 6.42499 14.1962 6.42499C14.1962 6.42499 14.3548 6.36586 14.4661 6.47709C14.5773 6.58832 14.7345 6.8752 14.8152 6.98643C14.8506 7.03854 14.943 7.13791 15.0375 7.29172C15.1666 7.50707 15.2745 7.7345 15.3595 7.97079C15.3642 7.84771 15.3949 7.65614 15.7453 7.77673C16.0955 7.89981 16.493 8.15784 16.8267 8.66593C17.1603 9.17402 17.243 9.74763 17.411 9.96603C17.5814 10.1766 17.7566 10.5269 17.7684 10.6736C17.7803 10.8204 17.7163 11.2936 18.0666 12.5739C18.1659 12.1764 18.3174 11.2936 18.3174 11.2936L18.4002 10.515L18.4949 8.10589L15.9793 6.01596L14.0127 4.58887L12.7324 4.71195L12.8128 4.89416L12.8129 4.89432Z" fill="#CAA13E"/><path fill-rule="evenodd" clip-rule="evenodd" d="M17.4864 8.4794C17.4864 8.4794 17.4509 8.2454 16.8593 7.8476C16.2676 7.45479 15.8062 7.45479 15.3803 7.1211C15.0536 6.8584 14.7129 6.25484 14.4911 6.05609C14.2756 5.85969 14.2402 5.29169 14.2402 5.29169L14.9667 4.68329L16.0472 3.12158L16.9606 2.11584L17.3983 2.72424L18.0067 3.43888L18.3451 4.87299L18.4681 6.97212L17.4853 8.47955L17.4864 8.4794Z" fill="#B59544"/><path fill-rule="evenodd" clip-rule="evenodd" d="M18.2175 10.9956C18.2354 10.6773 18.196 10.3583 18.1014 10.0538C17.9454 9.56869 17.6045 8.70725 17.4462 8.38465C17.3822 8.02725 17.4297 7.99886 17.4983 7.95861C17.5669 7.91836 17.825 7.77141 17.9663 7.25583C18.1076 6.74025 18.5461 6.7234 18.5461 6.7234L18.8159 6.52466L19.2254 7.54927L19.5826 8.47466L19.6938 9.18227L19.7767 9.78568L19.5826 11.0613L18.6243 11.9274L18.2173 10.9956H18.2175Z" fill="#C89D3A"/><path fill-rule="evenodd" clip-rule="evenodd" d="M17.4473 20.4849C17.4473 20.4849 17.8164 19.9927 17.9443 19.7488C18.0721 19.4975 17.5396 16.3151 17.5396 16.3151L18.6093 12.8104L18.5808 11.6698C18.5808 11.6698 18.6329 10.6166 18.756 10.1598C18.9028 10.4225 19.3595 10.7397 19.4589 10.9077C19.5057 10.5857 19.6647 9.90665 19.6411 9.1825C19.7286 9.31728 19.9392 10.6734 19.9392 10.6734L20.1498 11.5868L20.4244 12.5571L20.7297 13.5819L20.9119 14.2895L21.0159 14.4598L21.1036 14.7579L21.1865 15.0799L21.4255 15.8348L21.5659 16.4547L21.6771 17.5789C21.7013 17.665 21.7187 17.7528 21.7292 17.8416C21.7339 17.9647 21.7127 18.0357 21.7127 18.057C21.7127 18.0784 21.7529 18.3267 21.7364 18.5138C21.7127 18.701 21.7127 18.8475 21.5659 18.9818C21.4191 19.1161 21.3269 19.9189 21.3269 19.9189L21.0642 19.7439C21.0642 19.7439 21.1163 19.5047 20.9932 19.2871C20.8701 19.0695 20.6311 19.0244 20.4962 19.0599C20.3614 19.0883 20.0916 19.1308 20.004 19.2066C19.9211 19.2822 19.7177 19.5166 19.5307 19.6231C19.2967 19.7635 18.9154 19.7746 18.712 19.8219C18.506 19.8687 18.2789 20.0091 18.0398 20.1721C17.8523 20.2935 17.6543 20.3979 17.4482 20.4841L17.4473 20.4849Z" fill="#CCA847"/><path fill-rule="evenodd" clip-rule="evenodd" d="M17.4473 25.6557C17.4473 25.6557 17.4629 25.6659 17.493 25.6824C19.1743 24.8947 20.6807 23.7781 21.9234 22.3986C21.9098 21.9197 21.8922 21.4287 21.8728 21.2468C21.8327 20.861 21.8611 20.4682 21.8493 20.2411C21.8374 20.014 21.7097 19.0886 21.6505 18.8496C21.5866 18.6106 21.4633 18.4922 21.4446 18.4922C21.4281 18.497 21.3285 18.9419 21.3285 19.0538C21.3285 19.1656 21.3048 19.4349 21.3048 19.5035C21.2883 19.4987 21.2813 19.4567 21.2813 19.4396C21.2576 19.4987 21.2292 19.6029 21.2173 19.6148C21.2055 19.6266 21.2339 19.5154 21.2173 19.4917C21.2008 19.468 21.1705 19.4798 21.1771 19.4207C21.1799 19.3856 21.1854 19.3508 21.1936 19.3166C21.1936 19.3166 21.1226 19.4207 21.0707 19.6857C21.0186 19.9484 21.0186 19.9556 20.9997 19.9792C20.9832 20.0077 20.8885 20.1023 20.8836 20.1378C20.879 20.2016 20.9713 20.2656 20.9783 20.301C20.983 20.3603 20.8955 20.6347 20.8671 20.769C20.8387 20.9033 20.8506 21.1665 20.8203 21.3014C20.7966 21.4245 20.7735 21.4955 20.6925 21.5474C20.7517 21.5593 20.8084 21.5758 20.8084 21.5758C20.8084 21.5758 20.8913 21.9261 20.6807 22.2243C20.605 22.3284 20.5861 22.3758 20.5056 22.4705C20.347 22.6455 20.2239 22.8449 20.2121 22.9745C20.2039 22.9363 20.1983 22.8975 20.1955 22.8585C20.1955 22.8585 19.9495 23.1449 19.8453 23.3082C19.7105 23.5188 19.5235 23.507 19.4709 23.5591C19.4183 23.6112 19.4069 23.7057 19.4241 23.7815C19.3773 23.7932 19.2893 23.8099 19.23 23.9921C19.2016 24.0867 19.1307 24.1793 19.0194 24.243C18.9082 24.3066 18.7733 24.3258 18.7046 24.3423C18.7637 24.3589 18.7875 24.3589 18.8159 24.3778C18.7804 24.4369 18.6171 24.5292 18.4349 24.6476C18.2527 24.7589 18.165 24.922 18.1201 25.0286C18.0733 25.128 18.0042 25.1919 17.893 25.2038C17.9398 25.2322 18.009 25.2983 18.0444 25.3197C17.9923 25.3315 17.904 25.3315 17.7463 25.4665C17.5806 25.6038 17.5239 25.644 17.448 25.6559L17.4473 25.6557Z" fill="#C39D3C"/><path fill-rule="evenodd" clip-rule="evenodd" d="M20.9621 17.044C20.9621 17.044 20.8865 17.4533 20.7515 17.7113C20.6166 17.9694 20.4707 18.3266 20.4707 18.3266C20.4716 18.2461 20.4811 18.1659 20.4991 18.0875C20.3288 18.1868 19.9146 18.426 19.7971 18.5324C19.6859 18.6317 19.4989 18.8069 19.4516 18.8898C19.5628 18.5633 19.6787 18.2698 19.6978 18.1349C19.5274 18.258 18.7321 18.9135 18.3181 19.3465L17.0283 20.3902C16.8794 20.4705 16.7262 20.5422 16.5692 20.6051C16.3469 20.6997 16.0842 20.7802 15.8901 20.856C15.9422 20.7164 16.0249 20.5931 16.141 20.4749C16.264 20.359 16.6331 19.959 16.6899 19.7729C16.742 19.5788 16.7539 19.4629 16.6852 19.2996C16.6213 19.3161 16.4746 19.3233 16.3753 19.3517C16.2759 19.3801 16.1693 19.4865 16.1693 19.4865C16.1693 19.4865 16.245 19.0534 16.4083 18.6441C16.2853 18.6487 16.0747 18.6842 16.0747 18.6842C16.0747 18.6842 16.3681 18.192 16.8703 17.8489C16.7165 17.8817 16.566 17.9283 16.4207 17.9884C16.1272 18.1115 15.8054 18.2937 15.5664 18.3931C15.7012 18.2059 16.6478 16.8549 17.2111 15.5958C17.7727 14.3392 17.9825 14.0174 18.1056 13.343C18.1694 13.0094 18.1524 12.5162 18.1694 12.0746C18.186 11.6367 18.2404 11.2439 18.205 10.9812C18.3516 11.1634 18.9008 11.677 18.9196 12.8248C18.9362 13.9725 18.3944 15.5227 17.8192 16.3579C17.9596 16.3981 18.3234 16.4456 18.6972 15.7963C19.0709 15.147 19.0664 14.9657 19.2014 14.6959C19.2179 14.8308 19.2131 14.8781 19.2131 14.8781C19.2131 14.8781 19.7575 14.2179 20.0154 13.3872C20.0675 13.7446 20.2213 14.0594 19.9798 14.7149C19.7645 15.3064 19.4829 15.4509 19.4829 15.4509C19.4829 15.4509 19.6226 15.4272 19.8283 15.3041C19.8639 15.3916 19.8569 15.4913 19.916 15.5266C19.9751 15.5618 20.0556 15.6213 20.0675 15.678C20.1313 15.5833 20.2307 15.4626 20.2615 15.3727C20.2378 15.5599 20.2213 16.3785 20.3083 16.795C20.4907 16.7785 20.6776 16.7666 20.8054 16.4376C20.7178 16.7596 20.7178 16.9535 20.777 17.2281C20.874 17.1619 20.9615 17.0435 20.9615 17.0435L20.9621 17.044Z" fill="#C0993A"/><path fill-rule="evenodd" clip-rule="evenodd" d="M14.812 3.99995C14.812 3.99995 14.6298 4.07561 14.3199 4.07561C14.0501 4.07561 14.1258 3.97156 13.7046 3.97156C13.0563 3.97156 10.7915 4.34596 10.3938 4.34065C10.1358 4.33597 11.2646 4.45188 11.2646 4.45188L14.1495 4.49213L14.7292 4.44533L14.9446 4.00697L14.812 3.99995Z" fill="#A88F33"/><path fill-rule="evenodd" clip-rule="evenodd" d="M7.33255 9.6392C7.33255 9.6392 6.9633 9.92078 6.80715 10.1362C6.65099 10.3517 6.56815 10.4935 6.39062 10.6686C6.4323 10.6702 6.47393 10.6646 6.51371 10.6521C6.51371 10.6521 6.51371 10.6989 6.48532 10.7112C6.50985 10.7085 6.53469 10.7113 6.55801 10.7194C6.58133 10.7275 6.60255 10.7407 6.6201 10.758C6.568 10.7864 6.42604 10.9285 6.53727 11.0966C6.6201 11.2243 6.79529 11.236 6.79529 11.236C6.79529 11.236 6.75504 11.3521 6.92305 11.3402C7.28513 11.3237 7.68979 11.165 7.87668 11.2053C8.06388 11.2521 8.17027 11.2692 8.30272 11.4989C8.44312 11.726 8.56542 11.7616 8.56542 11.7616C8.56542 11.7616 8.64826 11.5508 8.62938 11.2362C8.6973 11.0666 8.73495 10.8864 8.74061 10.7037L8.61753 9.79739L8.08042 9.11816L7.38466 9.50395L7.33255 9.63874V9.6392Z" fill="#E3C571"/><path fill-rule="evenodd" clip-rule="evenodd" d="M7.99219 9.50425C7.99219 9.50425 8.04429 9.62733 8.26207 9.63903C8.23836 9.69113 8.23836 9.69831 8.24553 9.7384C8.25021 9.77865 8.25723 9.83778 8.25723 9.83778C8.28121 9.82617 8.30288 9.81032 8.32119 9.79098C8.33305 9.84308 8.30933 9.92576 8.32119 9.98504C8.32851 10.0211 8.34041 10.0561 8.3566 10.0891C8.36006 10.081 8.36402 10.0731 8.36846 10.0655C8.37314 10.0537 8.41526 10.1933 8.53179 10.2995C8.53169 10.2832 8.53571 10.2671 8.54349 10.2527C8.54528 10.2824 8.55509 10.311 8.57188 10.3356C8.56316 10.3314 8.5552 10.3258 8.54833 10.319C8.54833 10.319 8.56003 10.6934 8.62399 10.887C8.63468 10.8745 8.64418 10.861 8.65238 10.8468C8.65238 10.8351 8.6477 10.951 8.63584 11.034C8.61931 11.1168 8.63116 11.2327 8.63116 11.2327C8.67383 11.1991 8.72072 11.1713 8.77063 11.1499C8.84161 11.1213 8.95783 11.0338 9.02865 10.8398C9.06974 10.7299 9.10142 10.6167 9.12334 10.5014C9.14622 10.5455 9.16202 10.5928 9.17014 10.6418C9.17498 10.7009 9.28621 10.6702 9.28621 10.6702L9.30992 10.4122L9.45032 9.82764L9.57808 9.46556L10.1933 8.50725L11.305 7.65112L12.2753 7.87358L13.094 6.7613L11.6836 5.91406L10.3489 6.05368L9.13754 7.73146L8.16738 9.25324L7.99219 9.50409V9.50425Z" fill="#D8B65B"/><path fill-rule="evenodd" clip-rule="evenodd" d="M14.9824 7.07633C14.9824 7.07633 14.8996 7.09287 14.6606 7.21674C14.4216 7.3406 14.256 7.37991 14.1636 7.56212C14.0712 7.74433 14.0642 7.88879 14.0642 7.88879C14.0642 7.88879 14.2276 7.81781 14.3223 7.79409C14.4216 7.77054 14.5329 7.77756 14.521 7.8178C14.5096 7.8454 14.4938 7.87096 14.4742 7.89347C14.4742 7.89347 14.6614 7.88879 14.6564 7.98114C14.6514 8.07349 14.621 8.1752 14.5856 8.22013C14.55 8.26693 14.4034 8.33619 14.3868 8.39064C14.3466 8.50187 14.4034 8.50655 14.382 8.5964C14.3655 8.68408 14.2875 8.85443 14.0318 9.15254C13.7691 9.45082 13.6574 9.66142 13.6574 9.66142C13.6574 9.66142 13.5296 9.42242 13.4633 9.2165C13.4165 9.24006 13.1652 9.37968 13.1652 9.37968L12.583 7.35168L12.5947 7.21674C12.5947 7.21674 12.6468 7.15293 12.6587 7.03453C12.5712 7.00613 12.5593 6.98242 12.4432 6.87135C12.3272 6.76028 12.2326 6.62518 12.0387 6.53283C12.0103 6.48073 11.9748 6.4099 11.8328 6.38135C11.6908 6.3528 11.6057 6.32941 11.6057 6.32941C11.6057 6.32941 11.6813 6.30086 11.7169 6.24173C11.6292 6.25359 11.5584 6.28198 11.3667 6.2773C11.1726 6.27246 11.1512 6.26544 11.0449 6.28198C10.9385 6.29852 10.8109 6.34594 10.7633 6.18261C10.7112 6.14236 10.5999 6.17793 10.5053 6.31739C10.4106 6.45686 10.3775 6.56824 10.1953 6.62269C10.1825 6.703 10.1543 6.78011 10.1124 6.84982C10.0603 6.93749 9.9775 7.02501 9.86628 7.15512C9.69109 7.36104 9.71948 7.6994 9.44024 7.95742C9.15866 8.21529 9.48704 7.24263 9.48704 7.24263L9.93663 6.16623L11.2169 4.91433L13.2048 4.77954L13.3989 5.80914L14.3692 6.14283L14.9821 7.07758L14.9824 7.07633Z" fill="#D3AE4D"/><path fill-rule="evenodd" clip-rule="evenodd" d="M15.2981 7.30338L14.4628 6.0989L13.8782 5.64916C13.8782 5.64916 13.4617 4.88257 13.4333 4.85886C13.4096 4.84233 13.0168 4.79974 12.766 4.7832L12.8128 4.89911C12.8675 4.9169 12.9162 4.94971 12.9532 4.9938C13.0644 5.12157 13.1354 5.3629 12.8822 5.62092C12.9816 5.65633 13.0226 5.66772 13.1093 5.65633C13.0218 5.76054 12.8231 5.983 12.8112 6.17706C12.7994 6.33555 12.8987 6.38282 12.8987 6.38282C12.8987 6.38282 12.7473 6.55801 12.7402 6.85082C12.8118 6.77015 12.8901 6.69573 12.9742 6.62837C13.1494 6.48797 13.3907 6.33009 13.5541 6.23072C13.5519 6.27242 13.5575 6.31417 13.5706 6.35381C13.5706 6.35381 13.8757 6.10296 14.1322 6.21419C14.2481 6.26629 14.196 6.42962 14.196 6.42962C14.196 6.42962 14.3547 6.3705 14.4659 6.48173C14.5771 6.59295 14.7356 6.87921 14.8161 6.9906C14.8515 7.0427 14.9439 7.14207 15.0384 7.29573C15.1676 7.51112 15.2754 7.73861 15.3604 7.97495C15.3651 7.88026 15.3841 7.74782 15.5476 7.74782L15.2991 7.30291L15.2981 7.30338Z" fill="#CAA13E"/><path fill-rule="evenodd" clip-rule="evenodd" d="M2.77432 10.7255C2.77432 10.7255 2.7152 10.5787 2.77432 10.2925C2.83345 10.0062 2.9258 9.87127 2.95653 9.45007C2.98726 9.02887 3.26182 8.50347 3.26182 8.50347L4.02139 8.15808L4.55865 8.30472L4.71714 9.02419L4.03792 9.39859C4.03792 9.39859 4.00251 9.55709 3.81079 9.68485C3.61906 9.81262 3.35402 9.91199 3.29022 10.0422C3.25207 10.122 3.22424 10.2063 3.20738 10.2931C3.20738 10.2931 3.01332 10.2528 2.89741 10.3806C2.77432 10.5109 2.779 10.6268 2.77432 10.7262V10.7255Z" fill="#F4EFC8"/><path fill-rule="evenodd" clip-rule="evenodd" d="M4.30734 10.5337C4.30734 10.5337 4.24338 10.574 4.19611 10.6741C4.14931 10.5984 4.03746 10.1487 4.03278 9.74403C4.0281 9.33937 4.00392 9.23906 4.09752 9.0996C4.19112 8.96013 4.55819 8.81318 4.50608 8.56202C4.45398 8.32303 4.2362 8.22366 3.96882 8.2923C3.78162 8.3391 3.64231 8.73721 3.44825 8.93595C3.30145 9.08743 3.12642 9.06372 3.07915 9.14655C3.01519 9.25778 3.07432 9.36901 3.05544 9.43999C3.0506 9.4637 2.99148 9.59146 2.88493 9.74528C2.66965 10.0553 2.30524 10.4931 2.25781 10.886C2.27435 10.6635 2.26265 10.6588 2.32177 10.4126L2.2862 10.3535L2.5202 9.58678L2.67168 8.95499L3.0102 7.897L3.60643 6.8156L4.18628 6.16711L4.78969 6.20736L4.86067 7.11372L5.20621 8.81537L5.9327 9.70987L4.76832 10.4935L4.30687 10.5337H4.30734Z" fill="#EBCC73"/><path fill-rule="evenodd" clip-rule="evenodd" d="M4.67057 10.8552C4.67057 10.8552 4.5712 10.879 4.53563 10.8601C4.50006 10.8412 4.46481 10.8198 4.47651 10.7961C4.48821 10.7724 4.55217 10.7323 4.55217 10.7133C4.55348 10.6961 4.54804 10.6791 4.537 10.6658C4.52596 10.6526 4.51019 10.6441 4.49304 10.6423C4.4386 10.6353 4.42206 10.6707 4.42206 10.6707C4.42206 10.6707 4.36996 10.6306 4.32753 10.6239C4.35263 10.6208 4.37789 10.6192 4.40319 10.6191C4.33779 10.5894 4.26842 10.5695 4.19727 10.5599C4.25639 10.5245 4.37245 10.4203 4.44811 10.4203C4.52377 10.4203 4.5712 10.4086 4.55934 10.3684C4.54749 10.3281 4.48836 10.269 4.42456 10.2453C4.44811 10.2169 4.4648 10.1743 4.40802 10.0581C4.34874 9.94217 4.37245 9.86402 4.39149 9.83578C4.40802 9.80021 4.46715 9.73641 4.49554 9.69616C4.52393 9.65591 4.54764 9.60147 4.59491 9.57307C4.61862 9.55654 4.69428 9.52627 4.7701 9.49741C4.85293 9.46902 4.92157 9.43345 4.96884 9.46902C5.02094 9.50443 4.99723 9.55186 4.99723 9.55186C4.99723 9.55186 5.16056 9.49258 5.3072 9.56839C5.454 9.63922 5.8114 9.6843 5.8114 9.6843L5.93947 9.94233L5.09224 10.6688L4.74202 10.844L4.67104 10.8557L4.67057 10.8552Z" fill="#E5C66B"/><path fill-rule="evenodd" clip-rule="evenodd" d="M5.8468 9.66759C5.8468 9.66759 5.58409 9.84277 5.52497 9.90658C5.56038 9.91141 5.61951 9.93513 5.59579 9.97054C5.5674 10.006 5.39705 10.129 5.30236 10.2451C5.20299 10.361 5.10829 10.5078 5.07522 10.5788C5.03981 10.6426 4.76993 10.8296 4.67773 10.8532C4.8718 10.8532 5.26227 10.6142 5.40891 10.6142C5.40423 10.6852 5.44915 10.7657 5.53199 10.7727C5.61483 10.7797 5.85382 10.8248 6.17565 10.6261C6.49747 10.432 6.39108 10.2875 6.52587 10.193C6.78389 10.0225 6.88794 9.87101 7.0299 9.77647C7.17186 9.68194 7.24534 9.66041 7.24534 9.66041C7.24534 9.66041 7.25002 9.58943 7.29214 9.59661C7.30367 9.59793 7.31461 9.60238 7.3238 9.60947C7.33298 9.61656 7.34005 9.62603 7.34424 9.63685C7.34424 9.63685 7.59041 9.46167 7.90584 9.4144C7.89848 9.41111 7.8926 9.40522 7.88931 9.39786C7.88931 9.39786 7.91286 9.38601 7.9177 9.37415C7.9177 9.37415 7.93423 9.35044 7.94609 9.36229C7.95795 9.37415 7.97448 9.46167 7.99819 9.49723C8.0503 9.47352 8.14967 9.25107 8.14967 9.25107L8.38882 8.56716V7.94238L8.20162 7.97795L6.79762 8.57418L5.94555 9.45699L5.84617 9.66759H5.8468Z" fill="#E6BD62"/><path fill-rule="evenodd" clip-rule="evenodd" d="M9.88805 6.60306C9.96399 6.58463 10.0368 6.55509 10.1041 6.51539C10.0757 6.5912 10.0757 6.67404 9.95263 6.85391C9.82955 7.03377 9.82487 7.05983 9.7255 7.24672C9.62613 7.44078 9.61427 7.72002 9.51958 7.84295C9.56202 7.82233 9.60755 7.80878 9.65436 7.80286C9.65436 7.80286 9.55983 7.88569 9.51958 7.97321C9.47933 8.06073 9.40835 8.24293 9.23332 8.35432C9.05829 8.4657 8.83567 8.53653 8.59668 8.79923C8.35753 9.0571 8.11152 9.38377 7.98828 9.50123C8.05224 9.39001 8.13976 9.16755 8.16347 9.02091C8.18718 8.87427 8.15863 8.69892 8.19888 8.50502C8.23913 8.31111 8.23913 8.17133 8.43288 7.83281C8.62663 7.49429 8.95829 6.3182 8.95829 6.3182L9.67293 6.09106L9.88836 6.60228L9.88805 6.60306Z" fill="#B6933F"/><path fill-rule="evenodd" clip-rule="evenodd" d="M9.37155 6.16991C9.37155 6.16991 9.15627 6.47988 9.09715 6.75444C9.03802 7.029 9.09231 7.00529 9.0569 7.14023C9.03572 7.2225 9.03572 7.3088 9.0569 7.39107C9.13146 7.27096 9.23354 7.17032 9.3547 7.09748C9.55828 6.97455 9.72396 6.88688 9.8227 6.78283C9.92208 6.6716 10.0049 6.48939 10.2202 6.34977C10.1327 6.33792 10.0096 6.29767 9.98619 6.30297C10.0739 6.2036 10.3364 6.05213 10.6015 5.86992C10.8642 5.68272 10.8476 5.60721 11.2737 5.42032C11.134 5.44404 11.0677 5.40847 10.9517 5.42032C10.9985 5.32095 11.1623 5.27353 11.3261 5.11035C11.4899 4.94718 11.222 4.70569 11.222 4.70569L9.97402 5.46057L9.37062 6.17053L9.37155 6.16991Z" fill="#C49937"/><path fill-rule="evenodd" clip-rule="evenodd" d="M5.98633 5.60648L6.01472 5.37934L6.37212 4.80667L6.74605 3.80094V2.42595L6.71766 1.63082L6.77678 1.11009L6.82171 0.944575L6.86913 0.880615L7.17427 1.03911L7.59562 1.61179L7.63587 2.71705L7.22637 4.46113L6.05731 5.73674L5.98633 5.60648Z" fill="#DFC068"/><path fill-rule="evenodd" clip-rule="evenodd" d="M6.91491 0.816778C6.91491 0.816778 6.72771 0.821614 6.68778 1.60021C6.64784 2.37881 6.6285 2.78815 6.60011 3.17394C6.57171 3.55973 6.50557 3.79388 6.47234 4.02118C6.43911 4.24847 6.42024 4.55828 6.31385 4.74767C6.26705 4.83518 6.16705 5.10974 5.93274 5.31566C5.67004 5.5428 5.27754 5.70145 5.21811 5.71331C5.1139 5.73686 4.58615 5.78897 4.37087 5.90737C4.29521 5.94762 4.16495 5.99489 4.02065 6.12983C3.73424 6.3877 3.35329 6.84914 3.07873 7.40528C2.65753 8.23598 2.23633 10.5811 2.23633 10.5811L2.33102 10.4226C2.33102 10.4226 2.34288 10.212 2.55348 9.84278C2.7594 9.47369 2.70027 9.05951 2.98653 8.35189C3.09776 8.08217 3.23738 7.73195 3.40773 7.43368C3.67761 6.94852 4.00412 6.532 4.33312 6.30486C4.87023 5.93576 5.46193 5.85527 5.46193 5.85527L6.09857 5.43407C6.09857 5.43407 6.2098 5.21879 6.35659 4.97262C6.56235 4.62724 6.82459 4.24145 6.88184 3.68063C6.96951 2.84993 6.75876 2.30564 6.77061 1.81346C6.78247 1.32128 6.78715 0.959207 6.88668 0.871535C6.98621 0.783863 6.91507 0.817091 6.91507 0.817091L6.91491 0.816778Z" fill="#A88F33"/><path fill-rule="evenodd" clip-rule="evenodd" d="M6.91614 4.53227C6.91614 4.53227 7.19694 3.84119 7.32549 3.22827C7.3492 3.10518 7.39647 2.98225 7.40833 2.88288C7.46745 2.30303 7.48399 2.06404 7.40833 1.74689C7.3492 1.51289 7.12206 1.30198 7.00366 1.13849C6.88775 0.967983 6.83331 0.904491 6.85702 0.868611C6.88073 0.832731 6.97293 0.774075 7.06278 0.781095C7.1583 0.783875 7.25225 0.806052 7.33893 0.846279C7.42561 0.886507 7.50319 0.943943 7.56698 1.01509C7.74919 1.22569 7.89349 1.94049 7.89349 1.94049L8.04528 2.88366L8.43107 4.0716L6.91645 4.53321L6.91614 4.53227Z" fill="#C99E3D"/><path fill-rule="evenodd" clip-rule="evenodd" d="M9.554 3.81297C9.554 3.81297 9.5019 3.83653 9.40736 3.81297C9.41139 3.85161 9.40469 3.8906 9.38798 3.92567C9.37127 3.96073 9.34521 3.99051 9.31267 4.01172C9.2133 3.97147 8.28307 4.05196 8.28307 4.05196C8.28307 4.05196 7.85001 3.97615 7.71507 3.40347C7.62054 3.02237 7.78605 2.49711 7.73161 2.15157C7.64877 1.6427 7.53287 1.54317 7.52101 1.38483C7.50915 1.22649 7.4973 1.18609 7.4973 1.08672C7.44519 1.07486 7.41446 1.05833 7.36251 1.05833C7.35066 1.01153 7.37421 0.970653 7.32227 0.887817C7.35066 0.899673 7.54472 0.923385 7.77186 1.13867C7.95906 1.31385 7.95906 1.37766 7.98729 1.41323C8.02271 1.44864 8.30912 1.69403 8.4322 1.93863C8.55529 2.18324 8.79428 2.96324 8.84872 3.09101C8.86526 3.14311 8.90083 3.19521 8.98912 3.31346C9.1264 3.48397 9.32749 3.76586 9.55462 3.81266L9.554 3.81297Z" fill="#B58634"/><path fill-rule="evenodd" clip-rule="evenodd" d="M8.02148 1.42505C8.16484 1.65663 8.29364 1.89692 8.40712 2.14452C8.54674 2.45917 8.62957 2.7172 8.80476 2.9278C8.71007 2.65339 8.54206 2.11379 8.44268 1.92206C8.33146 1.71926 8.10432 1.50086 8.02148 1.4252V1.42505Z" fill="#A88F33"/><path fill-rule="evenodd" clip-rule="evenodd" d="M6.41164 5.31571C6.41164 5.31571 6.17265 5.37483 5.72774 5.60914C5.58095 5.6848 5.44148 5.74861 5.30655 5.80789C4.95602 5.96638 4.58006 6.11287 4.28179 6.19368C4.3055 6.22207 4.3172 6.23377 4.3172 6.23377C4.3172 6.23377 4.3172 6.34983 4.38116 6.41598C4.34575 6.45154 3.87229 6.77337 4.01206 7.85008C4.1066 7.81467 4.21783 7.76725 4.23436 7.76725C4.26291 7.77208 4.26993 7.85008 4.30534 7.85008C4.34076 7.85008 4.45682 7.80328 4.5799 7.64416C4.57522 7.70812 4.50424 8.35178 4.88519 8.78484C4.95617 8.702 5.13604 8.42744 5.13604 8.42744L5.14072 8.33993C5.14072 8.33993 5.15726 8.03463 5.25678 7.75539C5.35631 7.47615 5.55022 7.27023 5.55022 7.27023L6.56281 5.82427L6.41133 5.31555L6.41164 5.31571Z" fill="#E6C367"/><path fill-rule="evenodd" clip-rule="evenodd" d="M5.46495 7.43876C5.41859 7.47152 5.36752 7.49703 5.31348 7.51442C5.29694 7.4553 5.27323 7.25171 5.41285 7.05297C5.57618 6.81382 5.93342 6.50385 6.03279 6.25737C6.09675 6.09872 6.06836 5.70123 6.63636 5.19235C7.20435 4.68348 7.42665 4.50845 7.42665 4.50845L8.34487 4.047L9.47369 4.49191L8.91287 6.68996L8.47747 7.71956L6.74587 7.39305L5.4648 7.43876H5.46495Z" fill="#DCBA5A"/><path fill-rule="evenodd" clip-rule="evenodd" d="M6.12695 6.842L6.34239 6.57227V6.38055C6.34239 6.38055 6.58138 6.31659 6.83925 6.05388C7.09712 5.79118 7.45452 5.28714 7.76932 5.31787C8.08413 5.35344 8.11486 6.00178 8.12672 6.18414C8.13858 6.36651 8.17882 6.78038 8.24263 7.00299C8.31361 7.22544 7.47589 8.06785 7.47589 8.06785L6.90695 8.5009L6.12695 6.842Z" fill="#E9CE77"/><path fill-rule="evenodd" clip-rule="evenodd" d="M6.79297 9.08782C6.79297 9.08782 6.96816 8.81326 6.83977 8.75414C6.91543 8.58379 7.05505 8.40392 7.05505 8.40392C7.05505 8.40392 7.15442 8.15791 7.47624 7.85496C7.79807 7.552 7.99697 7.35076 8.04907 7.14734C8.08119 7.01476 8.09866 6.87906 8.10118 6.74268C8.13597 6.7711 8.17318 6.79642 8.2124 6.81834C8.26451 6.84205 8.51052 7.04547 8.4751 7.45497C8.43969 7.86447 8.28791 8.03482 8.28791 8.03482C8.28791 8.03482 8.14127 8.18146 8.03722 8.25728C7.92583 8.33294 7.88574 8.42046 7.6987 8.42763C7.71792 8.41235 7.73953 8.40033 7.76266 8.39206C7.76266 8.39206 7.5686 8.36851 7.46439 8.46304C7.36018 8.55758 7.13866 8.84883 7.02744 8.9365C6.91621 9.00748 6.79344 9.08798 6.79344 9.08798L6.79297 9.08782Z" fill="#CDAE50"/><path fill-rule="evenodd" clip-rule="evenodd" d="M14.6619 4.48476C14.3823 4.38286 14.0885 4.32538 13.7911 4.31441C13.2941 4.29787 12.5676 4.32626 11.8553 4.33094C11.0886 4.33562 10.3928 4.06824 9.42732 4.02097C9.26882 3.92628 8.86572 3.5121 7.60742 4.39007C7.68308 4.38539 8.52096 4.196 8.8119 4.56057C9.10533 4.92265 9.0225 5.53792 8.98241 5.68456C8.90659 6.01122 8.66042 6.48687 8.56121 6.82055C8.46199 7.15424 8.48539 7.32958 8.41441 7.56358C8.34343 7.79758 8.18727 7.9138 8.27947 8.18353C8.40255 8.10787 8.46667 8.10787 8.67228 7.64642C8.87789 7.18497 8.83561 6.85596 9.17647 6.46549C9.51015 6.07269 10.0657 5.53542 10.2769 5.40048C10.4881 5.26554 12.1653 4.39475 13.9214 5.22545C14.3449 5.18052 14.6621 4.4846 14.6621 4.4846L14.6619 4.48476Z" fill="#D2A83E"/><path fill-rule="evenodd" clip-rule="evenodd" d="M8.3143 4.1628C8.31256 4.14501 8.30863 4.12751 8.3026 4.11069C8.28618 4.07608 8.26461 4.04416 8.23864 4.016C8.23864 4.016 7.82212 3.94034 7.61152 3.9639C7.24226 4.00414 6.90857 4.46091 6.75242 4.69523C6.59626 4.92954 6.40219 5.29146 6.19159 5.47851C6.1939 5.46028 6.1897 5.44183 6.17973 5.4264C6.17973 5.4264 6.19159 5.44294 6.16803 5.46665C6.14448 5.49036 6.14432 5.50206 6.15618 5.51345L6.19175 5.54886C6.20345 5.54886 6.53011 5.40207 6.97503 4.98726C7.44834 4.5542 7.81042 4.33206 7.9998 4.25593C8.1008 4.21301 8.20637 4.18176 8.31446 4.1628H8.3143Z" fill="#C29637"/><path fill-rule="evenodd" clip-rule="evenodd" d="M16.3942 2.38354C16.3942 2.38354 16.3184 2.47808 16.2237 2.58229C16.0131 2.80474 15.7385 3.05544 15.5042 3.31346C15.2819 3.55963 15.0311 3.75135 14.7493 4.07318C14.4676 4.39501 14.1409 4.75225 14.0582 4.85646C13.9826 4.96067 13.9235 5.13102 13.9235 5.21853C13.8832 5.19014 13.8359 5.15941 13.8359 5.15941C13.8558 5.19656 13.8796 5.2315 13.9069 5.26362C13.966 5.34645 14.0582 5.45082 14.1057 5.51447C14.1638 5.59549 14.2056 5.68712 14.2286 5.78419C14.257 5.78887 14.4392 5.82444 14.6665 5.45051C14.8938 5.07657 15.1917 4.66723 15.1917 4.66723L15.665 3.96429L15.9633 3.36806L16.3377 2.70069L16.3946 2.38354H16.3942Z" fill="#AC8132"/><path fill-rule="evenodd" clip-rule="evenodd" d="M16.8795 1.90552C16.8795 1.90552 16.593 2.13952 16.4818 2.27992C16.3706 2.42032 16.1074 2.78879 16.1074 2.78879L16.2021 2.77694L16.6826 2.35106L16.8698 2.01737L16.8793 1.90614L16.8795 1.90552Z" fill="#A88F33"/><path fill-rule="evenodd" clip-rule="evenodd" d="M16.7903 20.7119C16.7903 20.7119 16.7856 20.5179 16.8945 20.402C17.0057 20.2859 17.2873 20.1155 17.5619 19.4766C17.8364 18.8376 17.867 18.6933 17.867 18.6933C17.867 18.6933 17.3748 19.1145 17.0714 19.2139C17.1424 19.0671 17.1827 18.963 17.2182 18.8872C17.178 18.8518 17.0076 18.8115 16.9911 18.7927C17.0856 18.698 17.1377 18.466 17.3294 18.3122C17.5756 18.125 18.0252 17.8033 18.3746 17.5166C18.7241 17.2299 19.4111 16.563 19.4988 16.3689C19.5509 16.4446 19.5626 16.4918 19.5626 16.4918C19.5626 16.4918 19.2172 16.9416 19.0373 17.2278C18.8787 17.474 18.8905 17.6136 18.8905 17.6136L19.2172 17.4732C19.2172 17.4732 19.3117 17.8234 18.8835 18.356C19.0707 18.285 19.1462 18.3276 19.2526 18.2684C19.0774 18.3797 18.8361 18.5312 18.609 18.9476C18.3865 19.3641 18.0836 19.8493 17.5725 20.152C17.0755 20.4715 16.7891 20.7105 16.7891 20.7105L16.7903 20.7119Z" fill="#A67A2E"/><path fill-rule="evenodd" clip-rule="evenodd" d="M15.5089 4.73116C15.5089 4.73116 15.3149 5.13566 15.2865 5.45047C15.2818 5.52629 15.2628 5.58541 15.2628 5.67293C15.2581 5.9545 15.2793 6.26931 15.216 6.41595C15.1922 6.35683 15.1804 6.31658 15.1567 6.29302C15.1213 6.3924 15.0573 6.70237 15.0052 6.81827C14.9816 6.74261 14.9295 6.47991 14.9344 6.16994C14.9392 5.85997 14.9461 5.80069 14.9461 5.73689C14.9344 5.83142 14.8704 5.95934 14.8467 6.035C14.8113 5.9712 14.771 5.88836 14.7236 5.81972C14.6952 5.86652 14.6598 5.93563 14.6291 5.9712C14.6243 5.94281 14.6126 5.86699 14.6054 5.7606C14.6007 5.63751 14.5935 5.47902 14.6007 5.44579C14.6124 5.38199 14.7119 5.13114 14.9225 4.90151C15.1734 4.62695 15.4314 4.09936 15.507 3.93603C15.5827 3.77269 15.9045 3.09363 15.9045 3.09363H16.1507L15.7933 3.90763C15.7933 3.90763 15.578 4.35255 15.4668 4.51603C15.3556 4.67952 15.1213 5.14799 15.0171 5.33019C15.0927 5.23082 15.1567 5.17872 15.2325 5.08403C15.3058 5.01773 15.5092 4.73147 15.5092 4.73147L15.5089 4.73116Z" fill="#8C6228"/><path fill-rule="evenodd" clip-rule="evenodd" d="M16.8843 1.87451C16.8441 1.99827 16.7806 2.11318 16.6971 2.21303C16.5503 2.38822 16.2355 2.62238 16.0819 2.80926C15.9415 2.99147 15.6607 3.48849 15.7883 4.0777C15.8351 3.94994 15.9232 3.69675 16.1575 3.41033C16.3918 3.12392 16.6427 2.79507 16.7659 2.53954C16.8888 2.28152 16.9054 2.07809 16.9054 2.07809L16.9522 2.01897L16.9238 1.88403L16.8835 1.87451H16.8843Z" fill="#CBA94C"/><path fill-rule="evenodd" clip-rule="evenodd" d="M21.6757 17.5715C21.6757 17.5715 21.5811 17.3137 21.5527 17.0794C21.5243 16.845 21.5995 16.7986 21.5124 16.5304C21.4603 16.3671 21.3658 16.39 21.3421 16.3671C21.3184 16.3441 21.3018 16.0973 21.3065 15.9624C21.3112 15.8275 21.3018 15.6524 21.2781 15.5766C21.2427 15.5482 21.219 15.5245 21.1669 15.3495C21.1078 15.1743 21.0794 15.0868 21.051 15.0348C21.0226 14.9829 20.9396 14.9354 20.9396 14.8833C20.9396 14.7791 21.0343 14.7248 21.0343 14.6961C21.0296 14.637 20.9586 14.6844 20.9396 14.6677C20.916 14.6394 20.9989 14.469 20.9681 14.4453C20.9563 14.4336 20.8734 14.533 20.8521 14.5046C20.8284 14.476 20.8 14.1944 20.7574 14.0076C20.7173 13.8253 20.6745 13.6929 20.6699 13.6385C20.6652 13.5864 20.3432 12.6681 20.2652 12.4457C20.2023 12.2577 20.1494 12.0666 20.1067 11.873C20.083 11.7618 20.0664 11.5345 20.0546 11.5582C20.0427 11.5819 20.0499 11.6978 20.0309 11.6931C20.0143 11.6883 19.9552 11.2838 19.9363 11.2198C19.9198 11.1559 19.8203 10.939 19.7959 10.7821C19.7722 10.6234 19.7203 10.2093 19.6847 9.92769C19.6491 9.64611 19.6326 9.5302 19.6326 9.45969C19.6384 9.28722 19.6289 9.11458 19.6042 8.9438C19.5574 8.64553 19.4638 8.28345 19.3818 8.07301C19.2233 7.67536 18.8019 6.65777 18.7266 6.40459C18.7266 6.34063 18.8094 6.37619 18.8094 6.37619C18.8094 6.37619 19.0152 6.89209 19.1666 7.28957C19.3134 7.68722 19.4531 8.03744 19.4886 8.07301C19.517 8.10842 19.7395 8.49889 19.8388 9.13786C19.9382 9.77684 19.9736 10.366 20.0329 10.7589C20.0613 10.9461 20.085 11.1446 20.1441 11.3434C20.2079 11.5588 20.3073 11.7813 20.4376 12.122C20.5488 12.4084 20.6316 12.6474 20.6766 12.8533C20.7287 13.116 20.7287 13.3148 20.7594 13.445C20.7879 13.5562 20.8304 13.7785 20.9299 14.1002C21.0294 14.4219 21.1759 14.8362 21.2753 15.0941C21.4695 15.61 21.5561 16.0407 21.5854 16.2703C21.6113 16.507 21.699 17.3258 21.6753 17.5718L21.6757 17.5715Z" fill="#A88F33"/><path fill-rule="evenodd" clip-rule="evenodd" d="M16.8944 1.84615L16.8825 1.87455C16.8825 1.87455 16.9179 1.8864 16.9109 1.93383C16.9114 1.99871 16.9074 2.06355 16.899 2.12789C16.8873 2.21073 16.8636 2.27453 16.8589 2.32663C16.8589 2.43786 16.8755 2.56563 16.7185 2.88278C16.6717 2.97029 16.6429 3.04595 16.6192 3.09806C16.5601 3.22582 16.5482 3.24485 16.4961 3.30398C16.5789 3.25718 16.8772 3.06998 17.0285 3.09806C16.9245 3.15718 16.7658 3.27324 16.6664 3.42472C16.6902 3.4294 16.7895 3.44843 16.9472 3.42472C17.2099 3.38447 17.5034 3.28978 17.7612 3.30866C18.043 3.32519 17.9317 2.97029 17.9317 2.97029L17.6066 2.25565L16.9914 1.82275L16.8944 1.84631V1.84615Z" fill="#BE9C44"/><path fill-rule="evenodd" clip-rule="evenodd" d="M18.5006 7.19929C18.5006 7.19929 18.226 6.92473 18.1148 5.98249C18.0035 5.03588 18.0273 3.64249 18.0273 3.64249L17.8048 3.09821C17.8048 3.09821 17.758 2.73613 17.6415 2.60135C17.5249 2.46656 17.2961 2.23927 17.1919 2.12804C17.0877 2.01682 16.9694 1.86534 16.8984 1.84163C16.9338 1.7825 17.0925 1.44882 17.7006 1.44414C18.3087 1.43946 18.4962 1.77782 18.5597 1.90091C18.6232 2.02399 18.9099 2.55611 19.0163 3.57011C19.1157 4.58286 19.1205 4.65868 19.104 5.0089C19.0921 5.20296 19.0281 5.65255 18.9168 6.13288C18.8151 6.54004 18.7038 6.99447 18.5002 7.20023L18.5006 7.19929Z" fill="#A17C34"/><path fill-rule="evenodd" clip-rule="evenodd" d="M17.6381 8.00629C17.7296 8.01289 17.821 7.99227 17.9008 7.94701C17.9883 7.94233 18.3055 7.98258 18.5491 7.67261C18.5657 7.74343 18.6084 7.93531 18.497 8.10566C18.5563 8.04638 18.6438 8.02283 18.6557 8.00629C18.6604 8.09381 18.7432 8.36353 18.393 9.01904C18.4875 8.91499 18.5988 8.91967 18.6981 8.90781C18.703 9.0309 18.7691 9.44492 18.5941 9.66753C18.4782 9.81901 18.2888 9.77158 18.2888 9.77158C18.2915 9.73852 18.2915 9.70528 18.2888 9.67221C18.2841 9.60825 18.2604 9.54445 18.2771 9.50186C18.1856 9.46006 18.1022 9.40233 18.0309 9.33135C17.825 9.13729 17.5576 8.8061 17.5387 8.55993C17.515 8.28537 17.7612 8.22625 17.7612 8.22625C17.7406 8.2078 17.723 8.18622 17.7091 8.16229C17.6972 8.1222 17.6854 8.05824 17.6381 8.00629Z" fill="#8C6228"/><path fill-rule="evenodd" clip-rule="evenodd" d="M15.8139 5.02927C15.8139 5.02927 15.8021 5.01273 15.7383 5.08839C15.7501 5.01273 15.762 4.9416 15.7667 4.87296C15.7969 4.80941 15.836 4.75048 15.8827 4.69792C15.8472 4.76875 15.8235 4.83271 15.8235 4.83271C15.8235 4.83271 15.9111 4.66938 16.0389 4.57001C16.1264 4.49903 16.2376 4.46595 16.2849 4.39965C16.337 4.32867 16.3251 4.31682 16.337 4.30496C16.337 4.30496 16.4531 4.2293 16.6306 4.00669C16.6541 3.9783 16.6897 3.94757 16.7134 3.91917C16.7535 3.90264 16.8482 3.86005 16.9594 3.80311C17.0755 3.7393 17.2056 3.65179 17.2861 3.61591C17.4446 3.54493 17.6128 3.5521 17.6908 3.44072C17.7499 3.42418 17.8137 3.24666 17.802 3.09534C17.8895 3.13075 18.3391 3.40999 18.4931 4.02057C18.6043 4.45363 18.4054 5.121 18.3226 5.44298C18.2397 5.76497 18.228 6.0038 18.112 6.15044C17.9652 6.34466 17.492 6.61844 17.376 6.75401C17.2766 6.86523 16.9785 7.14681 16.9902 7.35024C17.002 7.50171 17.1889 7.58424 17.2293 7.61294C17.2697 7.64165 17.2694 7.6769 17.3452 7.65974C17.421 7.64258 17.4493 7.60764 17.4802 7.60764C17.5156 7.61232 17.5156 7.61949 17.5321 7.61949C17.5441 7.61914 17.556 7.61752 17.5677 7.61466C17.5677 7.61466 17.5558 7.83009 17.0518 7.89546C17.0162 7.90029 16.9808 7.91199 16.9357 7.91917C16.995 7.89078 17.0304 7.89078 17.0944 7.80326C17.0234 7.79141 16.8198 7.77955 16.7677 7.76301C16.7843 7.73462 16.8387 7.65881 16.8836 7.62339C16.9239 7.58798 16.8789 7.57659 16.8435 7.595C16.7826 7.63648 16.7241 7.68149 16.6683 7.72979C16.6092 7.78189 16.5571 7.85287 16.4624 7.91699C16.434 7.82229 16.4387 7.64243 16.5501 7.51232C16.5216 7.517 16.4671 7.59984 16.4152 7.5833C16.4058 7.49698 16.4114 7.40969 16.4317 7.32528C16.4601 7.21873 16.6139 7.03184 16.6139 7.03184L17.3569 5.70413L17.5154 4.69839L15.8139 5.02896V5.02927Z" fill="#92723A"/><path fill-rule="evenodd" clip-rule="evenodd" d="M15.7727 5.08615C15.7727 5.08615 15.7325 5.11455 15.813 5.16899C15.8011 5.18553 15.7727 5.24465 15.7371 5.2849C15.697 5.3317 15.6543 5.36071 15.6378 5.40096C15.6023 5.4838 15.574 5.54058 15.574 5.57615C15.574 5.61172 15.5621 5.83885 15.4627 5.98549C15.4272 6.0376 15.3869 6.12511 15.3585 6.18424C15.2994 6.28829 15.2473 6.37144 15.2354 6.41824C15.2119 6.50107 15.1953 6.72821 15.1953 6.72821C15.1953 6.72821 15.2474 6.66425 15.2663 6.64069C15.2378 6.69982 15.207 6.76362 15.1621 6.81105C15.1905 6.78733 15.2733 6.72821 15.413 6.60513C15.607 6.44195 15.91 6.16739 16.2792 5.94993C16.1679 5.99017 16.0733 5.99017 15.9977 6.00203C16.0568 5.94291 16.5892 5.31813 16.8685 5.259C16.8854 5.2375 16.8939 5.21051 16.8922 5.18319L16.653 5.15963L16.1679 5.26368L16.097 4.88928L15.7727 5.08569V5.08615Z" fill="#B18E3E"/><path fill-rule="evenodd" clip-rule="evenodd" d="M16.5451 7.21584C16.5451 7.21584 16.4811 7.27964 16.422 7.43829C16.3765 7.39076 16.3375 7.33742 16.306 7.27964C16.2184 7.133 16.0837 6.94596 15.7689 7.05251C15.7642 6.95313 15.757 6.90103 15.7689 6.83005C15.821 6.81835 15.9795 6.69059 16.1379 6.50354C16.2493 6.37578 16.3534 6.22898 16.4244 6.04209C16.4712 6.00653 16.5521 5.9474 16.6584 5.87876C16.8098 5.77471 16.992 5.63259 17.0204 5.4741C16.9495 5.50249 16.798 5.57347 16.5707 5.56177C16.6584 5.52152 16.7931 5.47893 16.7766 5.30375C16.8122 5.28003 16.8406 5.2635 16.8406 5.2635C16.8139 5.2546 16.7858 5.25059 16.7577 5.25164C16.7529 5.23511 16.7459 5.21155 16.7056 5.22325C16.6654 5.23495 16.6588 5.23511 16.6535 5.25164C16.637 5.25648 16.5825 5.25164 16.5423 5.28019C16.502 5.30874 16.3908 5.40312 16.3482 5.41965C16.3648 5.39126 16.3883 5.34883 16.3883 5.34883C16.3883 5.34883 16.2724 5.36053 16.1896 5.39563C16.0381 5.44773 15.8631 5.54243 15.6855 5.63462C15.7021 5.60623 15.7093 5.58782 15.721 5.58252C15.7327 5.57721 15.7612 5.57082 15.7612 5.56598C15.7612 5.56115 15.7495 5.51918 15.7565 5.50218C15.8096 5.38974 15.8722 5.28207 15.9437 5.18035C16.0266 5.06897 16.0431 4.91047 16.0431 4.91047L16.4052 4.72826L17.4228 4.49426L18.0831 4.53451L18.0003 4.99128L17.6103 5.78875L17.2766 6.51524L16.8955 6.96031L16.5453 7.21584H16.5451Z" fill="#543E26"/><path fill-rule="evenodd" clip-rule="evenodd" d="M18.1945 5.23929C18.1945 5.23929 17.7968 5.73147 17.6856 5.80728C17.7566 5.65581 18.1945 4.75413 18.353 4.50328C18.3175 4.47489 18.2701 4.47489 18.3813 4.03528C18.2868 4.25758 18.2536 4.37364 18.1756 4.43277C18.0976 4.49189 18.0879 4.47301 18.0352 4.47301C18.0451 4.455 18.0492 4.43434 18.0469 4.41389C18.0469 4.41389 17.7132 4.37364 17.4853 4.37364C17.2574 4.37364 16.8062 4.49673 16.5552 4.5961C16.3565 4.67893 16.2453 4.67893 16.1743 4.73088C16.1033 4.79001 16.063 4.85397 16.0275 4.8705C15.9991 4.88704 15.8643 4.92963 15.8334 4.97455C15.805 5.02135 15.7578 5.07393 15.7578 5.08578C15.7578 5.09764 15.7459 5.11433 15.7815 5.10232C15.7932 5.09764 15.8808 5.05021 15.9802 4.99109C16.115 4.91543 16.2783 4.82791 16.3967 4.77581C16.7351 4.64087 16.8416 4.66458 16.993 4.63619C17.1514 4.6078 17.3787 4.5415 17.5301 4.5415C17.6815 4.53682 17.9679 4.5415 18.0342 4.55335C18.0059 4.57707 17.9821 4.60546 17.994 4.70483C17.994 4.73322 17.9703 4.76395 17.9472 4.83259C17.8764 5.02666 17.7414 5.34849 17.6664 5.51182C17.5624 5.73412 17.4441 5.92116 17.3856 6.03707C17.3271 6.15298 17.1984 6.45827 17.071 6.6216C16.9435 6.78493 16.8769 6.88431 16.837 6.91987C16.797 6.95544 16.5103 7.16589 16.5317 7.2417C16.5838 7.22517 16.9128 7.1013 17.1516 6.83236C17.3904 6.56341 17.438 6.3993 17.6249 6.25251C17.8118 6.10571 17.9586 5.8597 18.0461 5.65627C18.1194 5.46689 18.1029 5.40777 18.1951 5.23975L18.1945 5.23929Z" fill="#806031"/><path fill-rule="evenodd" clip-rule="evenodd" d="M9.62571 8.91262C9.62571 8.91262 9.5736 9.1279 9.4552 9.23445C9.33929 9.33865 9.13336 9.42851 9.10981 9.6037C9.08142 9.77873 9.31573 9.8664 9.31573 9.8664C9.31573 9.8664 9.18781 10.077 9.18781 10.2355C9.18781 10.3988 9.18313 10.4296 9.19967 10.5857C9.1809 10.5978 9.16494 10.6138 9.15286 10.6325C9.15286 10.6325 9.16457 10.784 9.28063 10.8785C9.3967 10.9731 9.49591 11.03 9.55504 11.0063C9.56406 11.0256 9.57198 11.0454 9.57875 11.0656C9.57875 11.0656 9.66642 10.8431 9.72555 10.6491C9.78467 10.4503 9.83677 10.4785 9.86033 10.2112C9.88389 9.94378 10.1411 9.48467 10.1411 9.48467L10.3166 9.09233L10.0304 8.86987L9.62571 8.91246V8.91262Z" fill="#B6903C"/><path fill-rule="evenodd" clip-rule="evenodd" d="M10.157 9.29834C10.0979 9.35894 10.0434 9.4238 9.99395 9.4924C9.91829 9.59661 9.85916 9.69115 9.74793 9.73155C9.6367 9.77195 9.56572 9.77164 9.57274 9.88303C9.57976 9.99441 9.68397 10.0415 9.7431 10.0983C9.80706 10.1574 9.85916 10.2568 9.83077 10.3682C9.86618 10.3517 9.93014 10.3326 9.98927 10.2049C10.0484 10.0771 10.462 9.2985 10.462 9.2985H10.157V9.29834Z" fill="#685026"/><path fill-rule="evenodd" clip-rule="evenodd" d="M11.7889 7.50203C11.7889 7.50203 11.8243 7.4075 11.7889 7.33886C11.7534 7.26788 11.5381 7.24416 11.4315 7.16367C11.3203 7.08083 11.1854 7.02327 11.0741 7.05962C11.0907 7.01937 11.157 6.9317 11.1025 6.91282C11.0504 6.89628 10.8565 6.9838 10.8044 7.02405C10.7523 7.0643 10.6339 7.11156 10.6103 7.14011C10.5868 7.16866 10.5464 7.22295 10.5227 7.19924C10.499 7.1827 10.4873 7.14011 10.447 7.16367C10.4068 7.18722 10.213 7.34588 10.1773 7.43823C10.1416 7.53058 10.0612 7.7365 9.81989 7.97065C9.57856 8.20481 9.47435 8.35644 9.54533 8.44396C9.61631 8.53147 9.64954 8.46767 9.6614 8.54333C9.67052 8.6176 9.6665 8.6929 9.64954 8.76578C9.62115 8.88887 9.57388 9.00478 9.63769 9.02849C9.80102 9.08059 9.95967 8.98169 9.99508 9.01195C10.0661 9.07575 9.95483 9.30539 10.1228 9.35031C10.2934 9.39711 10.4614 9.31007 10.4614 9.31007L11.0813 8.97638L11.6777 8.66173L11.9828 8.05817L11.8192 7.55414L11.788 7.50203H11.7889Z" fill="#D4B968"/><path fill-rule="evenodd" clip-rule="evenodd" d="M11.2041 8.94342C11.2041 8.94342 11.0999 8.78492 11.2278 8.64514C11.3557 8.50537 11.5378 8.4464 11.6087 8.35888C11.5952 8.34222 11.5771 8.3299 11.5566 8.32347C11.6038 8.23916 11.6756 8.17136 11.7626 8.12925C11.7271 8.09384 11.6797 8.06545 11.6278 8.06545C11.5117 8.06545 11.4406 8.13643 11.3342 8.13643C11.2301 8.13643 11.2183 8.08433 11.2183 8.08433C11.2183 8.08433 11.3935 8.06779 11.3768 7.98963C11.3602 7.9068 11.33 7.9068 11.33 7.9068C11.33 7.9068 11.6683 7.7664 11.7275 7.69152C11.7866 7.61664 11.7796 7.52819 11.7914 7.49278C11.8315 7.49278 12.0658 7.36969 12.1605 7.4218C12.2552 7.4739 12.1889 7.61586 12.1889 7.61586C12.1889 7.61586 12.4755 7.40042 12.6215 7.1892C12.7493 7.20106 12.8087 7.10168 12.9023 7.10168C13.0184 7.10168 13.2006 7.26018 13.236 7.59854C13.2597 7.79261 13.2951 7.90383 13.2597 8.24703C13.2432 8.4411 13.2478 8.85543 13.3065 9.06104C13.3466 9.22437 13.4413 9.20784 13.4413 9.20784C13.4267 9.2576 13.3979 9.30202 13.3584 9.3356C13.2945 9.39472 13.2875 9.55103 13.2945 9.61016C13.3039 9.65338 13.3158 9.69604 13.33 9.73792C13.33 9.73792 13.2544 9.82544 13.2354 9.88472C13.2188 9.94384 13.1408 9.98409 13.0839 9.98409C13.0269 9.98409 13.0555 9.97925 12.9798 9.98409C12.9042 9.98892 12.8805 10.0006 12.833 9.98409C12.7856 9.96755 12.7502 9.94852 12.7692 9.79689C12.7858 9.64541 12.1847 9.29285 12.1847 9.29285L11.2019 8.94264L11.2041 8.94342Z" fill="#CCA849"/><path fill-rule="evenodd" clip-rule="evenodd" d="M10.075 10.4389C10.075 10.4389 10.2903 10.7253 11.1754 10.7253C11.5966 10.7253 11.7434 10.6851 11.8306 10.6614C11.9253 10.6377 12.2802 10.4982 12.6376 10.0769C12.9595 9.6959 12.8885 9.53974 12.8885 9.53974L12.7013 9.51135L12.0929 9.59419L10.2926 10.3609L10.0742 10.4389H10.075Z" fill="#585136"/><path fill-rule="evenodd" clip-rule="evenodd" d="M10.7355 10.51C10.7355 10.51 9.96875 10.6805 9.96875 10.1953C9.96875 9.72204 10.4421 9.22503 10.5605 9.13752C10.6835 9.04984 10.977 8.95032 10.977 8.95032H11.6846L11.8194 9.30771L11.7603 10.0791L10.7355 10.5098V10.51Z" fill="#252211"/><path fill-rule="evenodd" clip-rule="evenodd" d="M11.443 9.09482C11.443 9.09482 11.2963 8.95988 10.9626 9.14162C10.6289 9.32336 10.3591 9.70322 10.3425 10.0481C10.326 10.3533 10.5934 10.5806 11.0099 10.5924C11.3199 10.6041 11.5069 10.5687 11.6016 10.5456C11.5779 10.5172 11.4548 10.3634 11.4548 10.3634L11.4431 9.09497L11.443 9.09482Z" fill="#C3B378"/><path fill-rule="evenodd" clip-rule="evenodd" d="M11.2993 9.17043C11.2993 9.17043 11.2639 9.14204 11.1589 9.19882C11.0714 9.24562 10.9436 9.36933 10.8443 9.45684C10.7803 9.50894 10.7401 9.5325 10.7039 9.57275C10.5571 9.74793 10.434 10.0343 10.5051 10.1763C10.5763 10.3183 10.8104 10.4816 11.4068 10.3704L11.2976 9.17058L11.2993 9.17043Z" fill="#E6D89C"/><path fill-rule="evenodd" clip-rule="evenodd" d="M11.1042 9.46394C11.1042 9.46394 11.0095 9.61074 11.0095 9.84505C11.0095 10.084 11.1444 10.465 11.6415 10.4934C12.0224 10.5171 12.2779 9.94442 12.5548 9.72196C12.7654 9.55161 12.8932 9.54678 12.8932 9.54678C12.8932 9.54678 12.6779 9.31277 12.1029 9.00966C11.5349 8.70437 10.8983 8.66412 10.5527 9.13275C10.7161 9.12089 11.2438 8.98595 11.2438 8.98595L11.5018 9.06879L11.1042 9.4641V9.46394Z" fill="#252211"/><path fill-rule="evenodd" clip-rule="evenodd" d="M11.8471 9.77391C11.8306 9.7385 11.8187 9.69107 11.8873 9.67937C11.956 9.66767 11.9867 9.67454 12.0104 9.72617C12.0341 9.77781 12.0572 9.82086 12.0221 9.84224C11.9867 9.86111 11.8944 9.84223 11.8469 9.7736L11.8471 9.77391ZM11.7359 9.44022C11.7359 9.44022 11.7122 9.45676 11.724 9.42369C11.7287 9.3836 11.7596 9.31246 11.8352 9.32915C11.9109 9.34584 11.8945 9.42852 11.882 9.45224C11.8696 9.47595 11.8064 9.51604 11.759 9.49904C11.753 9.4975 11.7474 9.49457 11.7427 9.49047C11.7381 9.48638 11.7344 9.48125 11.7321 9.47549C11.7298 9.46973 11.7289 9.46351 11.7294 9.45732C11.73 9.45114 11.732 9.44518 11.7353 9.43991L11.7359 9.44022Z" fill="#6F674D"/><path fill-rule="evenodd" clip-rule="evenodd" d="M5.33008 9.59155C5.33008 9.59155 5.51728 9.73195 5.73474 9.72649C5.95002 9.72166 6.22692 9.49935 6.35468 9.35724C6.43034 9.2744 6.49508 9.18688 6.56528 9.11824C6.62456 9.05912 6.66466 9.03073 6.69305 8.99048C6.7333 8.94368 6.77588 8.8557 6.79726 8.82715C6.74515 8.8674 6.66949 8.93853 6.59134 8.9858C6.51568 9.0326 6.35235 9.12059 6.28605 9.1443C6.22224 9.16801 5.55955 9.5187 5.55955 9.5187L5.33008 9.59155Z" fill="#AC924C"/><path fill-rule="evenodd" clip-rule="evenodd" d="M5.61719 7.84294C5.61719 7.84294 5.72124 7.77196 5.92248 7.72688C6.11654 7.68008 6.50701 7.64404 6.50701 7.64404L6.82884 7.78444L6.9566 8.2696L6.7226 8.7738L6.42449 8.961L6.08597 8.41671L5.61797 7.84388L5.61719 7.84294Z" fill="#9F8E57"/><path fill-rule="evenodd" clip-rule="evenodd" d="M5.19537 8.27596L5.08398 8.35911C5.08398 8.35911 5.11253 8.30701 5.13609 8.14851C5.15964 7.99001 5.28288 7.60422 5.46275 7.38176C5.64262 7.15931 5.63794 7.17116 5.63794 7.17116C5.62139 7.16814 5.60438 7.16867 5.58806 7.17273C5.57173 7.1768 5.55645 7.18429 5.54325 7.19472C5.56696 7.1423 5.71844 6.9551 5.86991 6.8615C6.02139 6.7679 6.08051 6.73842 6.23901 6.8147C6.39751 6.89099 6.43775 6.93061 6.55382 6.92593C6.66988 6.92125 6.7691 6.79817 6.7691 6.79817C6.7691 6.79817 6.79281 6.87383 6.70529 7.04902C6.61778 7.2242 6.27224 7.58145 6.27224 7.58145L5.55276 8.07363L5.19537 8.27643V8.27596Z" fill="#EAC970"/><path fill-rule="evenodd" clip-rule="evenodd" d="M5.72719 7.78397C5.72719 7.78397 6.24791 7.85495 6.40641 7.70831C6.41109 7.72485 6.43012 7.72485 6.43012 7.7367C6.42885 7.74564 6.42468 7.75391 6.41827 7.76026C6.43551 7.75751 6.45292 7.75595 6.47037 7.75558C6.49121 7.76178 6.51265 7.76576 6.53433 7.76744C6.55179 7.76706 6.5692 7.76544 6.58643 7.7626C6.58479 7.77436 6.58079 7.78567 6.57468 7.79586C6.56857 7.80604 6.56047 7.81489 6.55087 7.82188C6.57458 7.82188 6.59767 7.82656 6.59767 7.84544C6.59767 7.86431 6.60235 7.92125 6.57395 7.93311C6.55043 7.93961 6.5254 7.93791 6.50297 7.92827C6.50485 7.97308 6.51702 8.01685 6.53854 8.05619C6.58534 8.14371 6.68518 8.24339 6.81934 8.21469C6.81934 8.21469 6.89017 8.38504 6.59205 8.76365C6.55196 8.81576 6.50921 8.88673 6.45727 8.94586C6.43674 8.9906 6.42105 9.03741 6.41047 9.08548C6.41047 9.08548 6.91466 8.89142 7.05896 8.44884C7.20575 8.00393 7.23415 7.5662 7.20575 7.15685C7.20092 7.04079 7.18204 6.95811 7.15365 6.89883C7.08267 6.75203 6.88377 6.77574 6.80343 6.85858C6.68737 6.97464 6.4933 7.26324 6.22358 7.46199C5.94902 7.66073 5.93732 7.69599 5.72656 7.78397H5.72719Z" fill="#D7BC6B"/><path fill-rule="evenodd" clip-rule="evenodd" d="M5.10366 8.42298C5.10366 8.42298 5.00429 8.4821 4.95219 8.70378C4.90008 8.93091 4.99899 9.20781 5.05624 9.29533C5.11349 9.38284 5.24344 9.62199 5.51302 9.63385C5.57974 9.63349 5.64572 9.61981 5.70709 9.5936C5.80119 9.55045 5.88946 9.49557 5.9698 9.43027C6.08586 9.34275 6.1804 9.26709 6.16854 9.25992C6.14015 9.24806 5.45389 8.68007 5.45389 8.68007L5.19586 8.39209L5.10351 8.42329L5.10366 8.42298Z" fill="#585136"/><path fill-rule="evenodd" clip-rule="evenodd" d="M5.75099 9.36462C5.75099 9.36462 5.89061 9.35291 5.97345 9.30081C6.05628 9.24871 5.48828 8.68555 5.48828 8.68555L5.52853 9.29395L5.75099 9.36462Z" fill="#453A25"/><path fill-rule="evenodd" clip-rule="evenodd" d="M5.14754 8.38005C5.14754 8.38005 5.07656 8.51499 5.07656 8.55056C5.06471 8.66646 5.10027 9.03088 5.12867 9.14679C5.15706 9.26987 5.31087 9.45676 5.50977 9.45676C5.6327 9.45676 5.80321 9.3811 5.80321 9.36222C5.80321 9.33851 5.62802 9.31542 5.58075 9.22728C5.55236 9.18048 5.5405 9.06411 5.53395 8.94648C5.52927 8.87082 5.52927 8.78799 5.55766 8.75928C5.62162 8.6883 5.63332 8.48472 5.63332 8.48472L5.86046 8.06274H5.56172L5.20433 8.2852L5.14754 8.38005Z" fill="#84754B"/><path fill-rule="evenodd" clip-rule="evenodd" d="M5.06055 8.51037C5.06055 8.51037 5.29455 8.2004 5.50546 8.12926C5.71637 8.05813 5.81075 8.10087 5.81075 8.10087L5.68766 8.41568L5.51248 8.60974L5.52433 8.70911C5.52433 8.70911 5.49578 8.97181 5.67097 9.15402C5.84616 9.33623 5.97626 9.32921 6.05208 9.32921C6.12789 9.32921 6.34551 9.26525 6.45674 9.00255C6.55611 8.75654 6.63894 8.44095 6.4402 8.12458C6.24598 7.80978 5.90294 7.79761 5.83664 7.79761C5.77034 7.79761 5.24977 7.82366 5.06055 8.5099V8.51037Z" fill="#252211"/><path fill-rule="evenodd" clip-rule="evenodd" d="M11.0685 9.56335C10.981 9.52311 11.0638 9.27709 11.1513 9.20128C11.2388 9.12546 11.3501 9.0381 11.5443 9.02609C11.6151 9.02141 11.6838 9.06634 11.6721 9.11376C11.6555 9.20128 11.5324 9.32436 11.4212 9.41188C11.2674 9.53262 11.1679 9.60828 11.0685 9.56335Z" fill="#F7F7E7"/><path fill-rule="evenodd" clip-rule="evenodd" d="M6.33507 8.22149C6.39903 8.21681 6.48187 8.26829 6.49841 8.33755C6.51494 8.41321 6.45816 8.56469 6.33507 8.56469C6.2357 8.56469 6.18359 8.44161 6.18359 8.40619C6.18471 8.37707 6.19285 8.34866 6.20731 8.32336C6.21199 8.31618 6.22384 8.23334 6.33507 8.22149Z" fill="#F8F6DE"/><path fill-rule="evenodd" clip-rule="evenodd" d="M5.4135 8.27612C5.4135 8.27612 5.25017 8.35178 5.17451 8.51012C5.12045 8.62704 5.10409 8.75788 5.12771 8.88452C5.13957 8.94364 5.19869 9.09028 5.23894 9.14238C5.27919 9.19448 5.33363 9.23005 5.37388 9.22522C5.41413 9.22038 5.49681 9.11399 5.49681 9.05019C5.49681 8.98638 5.50165 8.71651 5.57965 8.56971C5.64829 8.42307 5.41397 8.27628 5.41397 8.27628L5.4135 8.27612Z" fill="#D4C38B"/><path fill-rule="evenodd" clip-rule="evenodd" d="M5.43688 8.2642C5.40849 8.28074 5.36122 8.30445 5.37292 8.33518C5.38478 8.36358 5.48415 8.38198 5.51972 8.45125C5.55996 8.52223 5.55996 8.59788 5.54811 8.63345C5.57902 8.61877 5.60707 8.59869 5.63094 8.57417C5.68305 8.51505 5.74685 8.43471 5.8013 8.43471C5.83686 8.43471 5.87228 8.45125 5.9055 8.45125C5.95761 8.45125 6.00956 8.43471 6.01673 8.38027C6.02843 8.30929 5.91736 8.24533 5.8534 8.25719C5.86526 8.21039 5.88179 8.14128 5.82969 8.09386C5.77758 8.04643 5.61441 8.12942 5.57884 8.15313C5.54327 8.17685 5.43688 8.26436 5.43688 8.26436V8.2642Z" fill="#E2D59D"/><path fill-rule="evenodd" clip-rule="evenodd" d="M9.19611 13.2362L9.54633 13.1328L9.64571 13.2038C9.64571 13.2038 9.71653 13.3553 9.82791 13.3741C9.79235 13.4498 9.69999 13.5145 9.70483 13.5682C9.70966 13.6219 9.75693 13.6629 9.75693 13.6629C9.75693 13.6629 9.44213 14.1835 10.0622 14.7081C9.91543 14.7672 9.72854 14.8485 9.62917 14.8953C9.69999 14.9118 9.85147 14.9421 9.91543 14.9995C9.97939 15.0569 9.97939 15.0752 10.0385 15.1107C10.0976 15.1463 10.133 15.1936 10.1213 15.2148C10.0811 15.1911 9.94616 15.1203 9.92261 15.1864C9.89905 15.2525 9.33807 15.2266 9.33807 15.2266L8.39147 15.4089C8.39147 15.4089 8.42688 15.3142 8.32751 15.2266C8.2116 15.1226 8.06964 15.2313 7.91816 15.1154C7.71942 14.9639 7.71224 14.7888 7.64844 14.7226C7.71224 14.6824 7.8425 14.6232 8.15247 14.5822C8.14062 14.5585 8.10037 14.4875 8.12408 14.4237C8.15247 14.3409 8.27072 14.2888 8.23531 14.1897C8.28741 14.1779 8.31097 14.1779 8.44123 14.0145C8.56431 13.8512 8.63997 13.8158 8.73467 13.8039C8.82936 13.7921 8.88614 13.8039 9.06133 13.6406C9.18426 13.5247 9.14417 13.4253 9.14417 13.4253C9.14417 13.4253 9.22451 13.3993 9.19627 13.2359L9.19611 13.2362Z" fill="#CBAC5A"/><path fill-rule="evenodd" clip-rule="evenodd" d="M8.16199 13.2888C8.16667 13.2651 8.1857 13.2533 8.31346 13.2651C8.44123 13.277 9.25056 13.1895 9.47067 13.1776C9.69313 13.1611 10.4764 13.1728 10.8575 13.2533C11.2386 13.3338 11.6243 13.4285 11.8111 13.4757C11.9983 13.5278 12.0573 13.5465 12.0501 13.5703C12.0455 13.594 12.0033 13.6171 11.9792 13.6105C11.9556 13.6058 11.3355 13.4164 11.1439 13.3765C10.9524 13.3366 10.2895 13.2297 9.92713 13.2361C9.58876 13.241 9.45383 13.2314 9.16756 13.2645C8.88115 13.3001 8.40784 13.3473 8.26588 13.3285C8.12548 13.3119 8.1545 13.3119 8.16167 13.2882L8.16199 13.2888Z" fill="#D6BC6F"/><path fill-rule="evenodd" clip-rule="evenodd" d="M10.0672 15.1436C10.0672 15.1436 10.5524 15.4063 10.7276 15.7281C10.8553 15.9671 10.6519 16.0855 10.6519 16.0855C10.6519 16.0855 10.9265 16.0855 10.8909 16.237C10.8743 16.3315 10.4176 16.5871 10.1123 16.722C9.80232 16.8569 9.81417 16.8499 9.6627 16.8735C9.5159 16.8972 9.11358 16.8267 9.03074 16.9445C8.94791 17.0622 8.98394 17.1836 9.00703 17.2025C9.03074 17.219 9.22247 17.2427 9.22247 17.2427C9.22247 17.2427 9.18222 17.354 8.78473 17.3658C8.38724 17.3777 8.28772 17.4059 8.264 17.4487C8.24029 17.4887 8.33966 17.4652 8.52203 17.4955C8.70424 17.5238 8.95976 17.5423 8.95976 17.5423C8.95976 17.5423 8.87693 17.6132 8.66165 17.67C8.41548 17.7338 8.02969 17.7931 7.91378 17.8641C7.97291 17.9043 8.06058 17.9634 8.10098 17.9681C8.00161 17.9918 7.86184 18.0439 7.83828 18.0628C7.87369 18.0865 7.92112 18.1149 7.92112 18.1149C7.92112 18.1149 7.72222 18.3539 7.60631 18.4132C7.4904 18.4725 6.82303 18.7823 6.5934 18.7232C6.02073 18.5717 5.94975 17.9446 5.81013 17.8973C5.59953 17.8263 5.50016 17.9681 5.31311 17.8688C5.39595 17.8096 5.44103 17.7742 5.52855 17.734C5.43386 17.6872 4.94402 17.3766 4.94402 17.3766C4.89279 17.2649 4.83594 17.156 4.77367 17.0501C4.67897 16.8867 4.53967 16.669 4.43515 16.4772C4.20801 16.056 4.19615 15.862 3.99023 15.623C4.0258 15.5762 4.14873 15.5827 4.14873 15.5827L5.87409 16.1507L8.9334 16.2393L9.729 15.1035L10.0674 15.1438L10.0672 15.1436Z" fill="#DFC677"/><path fill-rule="evenodd" clip-rule="evenodd" d="M5.53516 16.8759C5.55362 16.8964 5.57514 16.914 5.59896 16.928C5.65824 16.9682 5.74576 17.0157 5.80488 17.0865C5.82859 17.0511 5.88772 16.9871 5.99208 17.0865C6.09644 17.1859 6.22608 17.115 6.30673 17.1386C6.38957 17.1671 6.39425 17.1788 6.39425 17.1788C6.39425 17.1788 6.44105 17.1386 6.54573 17.096C6.60969 17.0723 6.68534 17.0558 6.76818 17.0322C6.84384 17.0157 6.92668 16.992 6.98362 16.992C7.03572 17.0274 7.22261 17.226 7.97281 16.9328C8.68043 16.6583 8.84361 16.6275 8.96201 16.67C8.97387 16.6416 8.98572 16.5871 9.16793 16.5943C9.16793 16.5187 9.01645 16.2606 9.01645 16.2606L8.18107 15.9744H7.72415L6.354 16.2252L5.59475 16.6584L5.53562 16.8768L5.53516 16.8759Z" fill="#C4A859"/><path fill-rule="evenodd" clip-rule="evenodd" d="M5.08008 16.3955C5.08008 16.3955 5.09661 16.5233 5.286 16.6582C5.4732 16.793 5.53201 16.8735 5.53201 16.8735C5.53201 16.8735 5.56758 16.8267 5.59597 16.7789C5.62436 16.7268 5.64807 16.6677 5.69534 16.6512C5.79003 16.6109 6.00531 16.6866 6.05274 16.6747C6.09299 16.663 6.08113 16.5802 6.12372 16.5802C6.22309 16.5754 6.28689 16.644 6.32246 16.644C6.35803 16.644 6.44539 16.6393 6.45725 16.6204C6.4691 16.6016 6.47378 16.405 6.60872 16.3103C6.75552 16.2063 6.93539 16.2512 6.98312 16.2749C6.98312 16.3103 6.9878 16.398 7.08249 16.4027C7.17719 16.4074 7.18655 16.3908 7.26969 16.4192C7.35284 16.4476 7.4519 16.4145 7.49683 16.554C7.53708 16.5423 7.63177 16.5304 7.60806 16.3955C7.65486 16.3601 7.69573 16.3364 7.79526 16.1968C7.81897 16.1613 7.85906 16.1211 7.88995 16.069C7.97279 16.069 8.07216 16.0525 8.2046 16.1684C8.16435 16.1968 8.14064 16.2152 8.12894 16.244C8.16358 16.2783 8.19521 16.3155 8.22348 16.3552C8.25905 16.402 8.28276 16.4595 8.32769 16.4713C8.42706 16.4997 8.59039 16.4595 8.7726 16.4713C8.94779 16.4832 9.09443 16.547 9.15839 16.5872C9.1821 16.5755 9.1821 16.5707 9.24122 16.5825C9.30035 16.5944 9.34527 16.5991 9.28147 16.5234C9.31688 16.54 9.35713 16.5755 9.3927 16.54C9.42827 16.5044 9.4565 16.4524 9.55587 16.4406C9.65525 16.4287 9.69081 16.4453 9.73106 16.3412C9.78317 16.2134 9.6033 16.2134 9.6033 16.2134C9.6033 16.2134 9.68613 16.1376 9.77849 16.0383C9.88971 15.9342 10.0175 15.7993 10.0482 15.6336C10.1003 15.3283 9.8022 15.2882 9.8022 15.2882L8.35623 15.7331L6.58844 15.6454L5.08101 16.3957L5.08008 16.3955Z" fill="#927D49"/><path fill-rule="evenodd" clip-rule="evenodd" d="M3.77967 12.2187C3.77967 12.2187 3.73287 12.2778 3.70401 12.4174C3.67515 12.557 3.68748 12.5405 3.66376 12.6399C3.64005 12.7392 3.3488 13.7284 3.458 14.0621C3.5672 14.3958 3.75627 14.5189 3.87452 14.7886C3.89823 14.8478 3.92132 14.8833 3.93364 14.9354C3.97389 15.1105 3.93848 15.2454 3.98575 15.4206C4.00228 15.4797 4.04503 15.5484 4.10883 15.6193C4.24923 15.766 4.47808 15.9056 4.57683 16.005C4.71629 16.1518 4.91519 16.45 5.16838 16.4783C5.30332 16.4948 5.49504 16.438 5.65354 16.3435C5.79394 16.2558 5.88068 16.1329 6.02794 16.0627C6.13199 16.0106 6.24322 15.9917 6.34259 15.968C6.54851 15.9277 6.73555 15.9212 6.84678 15.9443C7.01713 15.9799 7.41946 16.1029 7.64238 16.1029C7.81658 16.1001 7.98979 16.0763 8.15827 16.032C8.49664 15.9326 8.90598 15.7621 9.17586 15.6864C9.33436 15.6396 9.46212 15.6273 9.59238 15.5989C9.81483 15.5468 10.0017 15.4758 10.1083 15.3409C10.0373 15.258 9.94977 15.1303 9.47631 15.135C8.93921 15.1468 8.31911 15.4449 8.01382 15.4924C7.70853 15.5398 7.57608 15.5799 7.23522 15.4568C6.90107 15.3324 6.88999 15.2502 6.88999 15.2502C6.88999 15.2502 6.53915 15.0048 6.39235 14.3793C6.24556 13.7537 6.39236 13.2979 6.77346 12.8647C6.87284 12.7534 6.84912 12.6541 6.84912 12.6541C6.84912 12.6541 7.09997 12.3157 7.03133 11.9989C6.95567 11.6841 6.47051 11.748 6.47051 11.748L3.77983 12.2187H3.77967Z" fill="#6E6342"/><path fill-rule="evenodd" clip-rule="evenodd" d="M4.18497 13.2717C4.1641 13.311 4.15429 13.3551 4.15657 13.3995C4.16125 13.4633 4.18029 13.5461 4.37185 13.7332C4.53519 13.8963 4.49962 14.0785 4.49962 14.0785C4.49962 14.0785 4.58183 14.0951 4.80491 13.9907C4.9801 13.9079 5.03891 14.0547 5.03891 14.0547C5.08991 14.0279 5.14518 14.0103 5.20224 14.0026C5.25394 13.9978 5.30398 13.9818 5.34888 13.9558C5.34888 13.9558 5.5548 14.1664 5.73467 14.2657C5.898 14.3534 5.99269 14.4125 6.07319 14.3534C6.14885 14.3013 6.14885 14.1948 6.14401 14.1475C6.12524 14.1039 6.10147 14.0626 6.07319 14.0244C6.02109 13.9488 5.93825 13.8611 5.93279 13.7904C5.92093 13.6272 6.05587 13.433 6.02733 13.3858C5.99878 13.3385 5.89254 13.3266 5.62984 13.4213C5.35777 13.5112 4.18387 13.2722 4.18387 13.2722L4.18497 13.2717Z" fill="#39331F"/><path fill-rule="evenodd" clip-rule="evenodd" d="M4.80459 14.3297C4.80459 14.3297 4.66982 14.202 4.71708 13.5819C4.7743 13.581 4.83143 13.5866 4.88742 13.5984C4.88742 13.5984 4.96089 14.0789 4.80459 14.3297Z" fill="#292311"/><path fill-rule="evenodd" clip-rule="evenodd" d="M3.84324 11.7453C3.86205 11.7314 3.8795 11.7157 3.89535 11.6985C3.84855 11.786 3.63249 12.1362 3.80768 12.6877C3.98286 13.2366 4.42294 13.646 4.96488 13.665C5.50683 13.6841 5.79168 13.4189 6.11741 13.0214C6.24517 12.8629 6.39197 12.664 6.52207 12.5292C6.71614 12.3184 6.86761 12.2593 6.86761 12.0559C6.86761 11.6394 6.44158 11.4523 5.81446 11.2654C5.18734 11.0785 4.62168 11.1016 4.32825 11.2296C4.04199 11.369 3.9189 11.5158 3.84309 11.7454L3.84324 11.7453Z" fill="#252211"/><path fill-rule="evenodd" clip-rule="evenodd" d="M5.85789 14.5166L5.90469 14.4929C5.90469 14.4929 5.91639 14.3057 5.9922 14.3106C6.06786 14.3225 6.10343 14.422 6.09625 14.4574C6.09157 14.4929 6.0727 14.5521 5.99688 14.545C5.89751 14.5473 5.85742 14.5166 5.85742 14.5166H5.85789Z" fill="#3F3824"/><path fill-rule="evenodd" clip-rule="evenodd" d="M5.64648 13.7214C5.64648 13.7214 5.69328 13.7048 5.75054 13.7616C5.79734 13.7616 6.00139 13.7379 6.06535 13.7782C6.12931 13.8184 6.14818 13.8538 6.14818 13.8538C6.14818 13.8538 5.90919 13.9059 5.77893 13.8538C5.64648 13.8089 5.64648 13.7214 5.64648 13.7214Z" fill="#2D2815"/><path fill-rule="evenodd" clip-rule="evenodd" d="M6.7013 13.7568C6.7013 13.7449 6.57354 13.6574 6.43859 13.6289C6.41488 13.6242 6.41005 13.6407 6.39179 13.6407C6.37994 13.636 6.37526 13.6005 6.37526 13.6005L6.2985 13.6409C6.2985 13.6409 6.28665 13.6574 6.3269 13.6877C6.36231 13.7161 6.42159 13.7398 6.43813 13.787C6.45466 13.8343 6.45466 13.8508 6.46184 13.858C6.46652 13.8627 6.54936 13.858 6.5896 13.8343C6.62985 13.8106 6.70567 13.7719 6.70083 13.7563L6.7013 13.7568Z" fill="#82764F"/><path fill-rule="evenodd" clip-rule="evenodd" d="M5.50586 14.2374C5.50586 14.2374 5.52942 14.0742 5.68807 14.067C5.85124 14.0552 5.88213 14.2137 5.88213 14.2137L5.78744 14.3083C5.78744 14.306 5.71646 14.2066 5.50664 14.2374H5.50586Z" fill="#2D2816"/><path fill-rule="evenodd" clip-rule="evenodd" d="M6.53543 13.5343C6.53543 13.5343 6.44776 13.629 6.25385 13.6574C6.23731 13.6336 6.20175 13.5864 6.25385 13.5107C6.30595 13.435 6.36508 13.4113 6.4242 13.4349C6.45029 13.4391 6.47462 13.4507 6.49433 13.4683C6.51404 13.4859 6.5283 13.5088 6.53543 13.5343Z" fill="#574F35"/><path fill-rule="evenodd" clip-rule="evenodd" d="M6.89165 13.6503C6.89649 13.6266 6.87995 13.6219 6.89165 13.6101C6.90335 13.5982 6.96747 13.5747 6.97933 13.5864C6.98401 13.5912 6.97933 13.6101 6.97933 13.6332C6.97933 13.6563 6.97933 13.68 6.96747 13.697C6.95093 13.7207 6.90367 13.7325 6.87995 13.7255C6.85624 13.7185 6.85156 13.6853 6.85156 13.6787C6.86326 13.6741 6.89165 13.6622 6.89165 13.6503ZM7.29569 13.3948C7.29569 13.383 7.33594 13.3593 7.35965 13.3593C7.39507 13.3593 7.39507 13.3876 7.3999 13.3948C7.4116 13.3995 7.4116 13.39 7.42346 13.4114C7.43531 13.4327 7.45201 13.4705 7.43999 13.4942C7.42798 13.5179 7.38087 13.5343 7.36917 13.5296C7.35264 13.5177 7.30053 13.4114 7.29569 13.3948Z" fill="#82764F"/><path fill-rule="evenodd" clip-rule="evenodd" d="M6.48242 13.705C6.48242 13.705 6.53453 13.7167 6.60551 13.776C6.5818 13.7925 6.54623 13.8114 6.54623 13.8114C6.54623 13.8114 6.54155 13.7569 6.48242 13.7048V13.705Z" fill="#6E6342"/><path fill-rule="evenodd" clip-rule="evenodd" d="M6.36711 13.1842C6.35525 13.1725 6.40252 13.1441 6.43091 13.1488C6.4593 13.1535 6.47116 13.1725 6.50189 13.1772C6.53262 13.1819 6.53746 13.1654 6.54869 13.1535C6.55992 13.1416 6.60079 13.1488 6.60781 13.1535C6.61219 13.1587 6.61615 13.1642 6.61967 13.17C6.62017 13.161 6.62251 13.1522 6.62657 13.1442C6.63062 13.1361 6.63629 13.129 6.64323 13.1232C6.6523 13.1166 6.66277 13.112 6.67385 13.11C6.68493 13.1079 6.69632 13.1084 6.70719 13.1114C6.71187 13.1279 6.73558 13.187 6.7309 13.1989C6.72622 13.2108 6.65524 13.2274 6.64323 13.2154C6.65508 13.244 6.70719 13.3031 6.71421 13.3148C6.72123 13.3265 6.6621 13.3551 6.63855 13.3504C6.60547 13.348 6.40189 13.2296 6.36648 13.1847L6.36711 13.1842ZM6.67708 12.7914C6.6727 12.7795 6.66432 12.7695 6.65337 12.763C6.63683 12.7584 6.58239 12.763 6.58239 12.7914C6.58239 12.8198 6.62919 12.9786 6.68176 13.0613C6.74104 13.1441 6.78113 13.2126 6.82138 13.2317C6.83402 13.2374 6.84836 13.2382 6.86153 13.2338C6.8747 13.2294 6.88572 13.2201 6.89236 13.2079C6.89704 13.1961 6.9089 13.1086 6.90422 12.9027C6.89954 12.6967 6.89236 12.498 6.8805 12.4861C6.86865 12.4743 6.82138 12.4744 6.80484 12.498C6.78831 12.5215 6.68176 12.756 6.67692 12.7914H6.67708Z" fill="#585136"/><path fill-rule="evenodd" clip-rule="evenodd" d="M6.4668 14.003C6.4668 14.003 6.38396 13.9509 6.30346 13.9864C6.2278 14.022 6.23248 14.1616 6.23248 14.1616C6.2495 14.1683 6.26789 14.1707 6.28606 14.1686C6.30422 14.1666 6.3216 14.1601 6.33669 14.1498C6.3888 14.1143 6.45494 14.0552 6.4668 14.0031V14.003Z" fill="#574F35"/><path fill-rule="evenodd" clip-rule="evenodd" d="M6.62297 14.1901C6.61829 14.1433 6.57617 14.1433 6.57617 14.1191C6.57907 14.1075 6.58577 14.0973 6.59519 14.09C6.60461 14.0827 6.6162 14.0788 6.62812 14.0788C6.65183 14.0788 6.67492 14.1072 6.70394 14.1256C6.73233 14.1422 6.77492 14.1724 6.7796 14.2085C6.78428 14.2445 6.7328 14.3433 6.67554 14.3433C6.61829 14.3433 6.6353 14.2367 6.62344 14.1895L6.62297 14.1901ZM7.07974 14.1261C7.07974 14.1261 6.98505 14.1545 6.99207 14.1261C6.99909 14.0977 7.02062 14.0907 7.05135 14.0907C7.06696 14.0744 7.08796 14.0642 7.11047 14.0622C7.12335 14.0615 7.13599 14.0658 7.14588 14.074C7.14588 14.074 7.20984 14.0456 7.22872 14.0622C7.2476 14.0787 7.23356 14.0787 7.24526 14.0977C7.26015 14.1188 7.26993 14.1431 7.2738 14.1687C7.2738 14.1876 7.20282 14.2278 7.14588 14.2208C7.07974 14.2066 7.09144 14.138 7.07974 14.1261ZM7.63104 14.0196C7.63104 14.0196 7.65944 14.0361 7.63588 14.0551C7.61934 14.0717 7.53651 14.1019 7.46537 14.1072C7.39439 14.1072 7.33059 14.1189 7.33059 14.0954C7.33059 14.0718 7.38971 14.0244 7.42512 14.0125C7.43223 14.0037 7.44125 13.9965 7.45151 13.9916C7.46178 13.9866 7.47302 13.9841 7.4844 13.9842C7.5128 13.9842 7.62387 13.9723 7.65476 13.9676C7.68315 13.9628 7.70686 13.9793 7.69017 14.003C7.68315 14.0196 7.63104 14.0196 7.63104 14.0196ZM7.79438 13.2889C7.79438 13.2889 7.75881 13.3645 7.71872 13.3645C7.67847 13.3598 7.67847 13.348 7.67847 13.3361C7.67847 13.3196 7.71872 13.277 7.71388 13.2651C7.70218 13.2651 7.67363 13.2651 7.67847 13.2368C7.67847 13.213 7.71872 13.1846 7.75413 13.19C7.78089 13.168 7.8142 13.1555 7.84882 13.1545C7.88907 13.1545 7.92448 13.1662 7.92448 13.19C7.92448 13.2137 7.87768 13.2656 7.86052 13.2776C7.84164 13.2965 7.81793 13.3088 7.79438 13.2893V13.2889ZM7.25477 14.6874C7.25477 14.6874 7.20797 14.6922 7.20797 14.7158C7.20797 14.7277 7.21967 14.7277 7.23636 14.7206C7.24598 14.7201 7.2555 14.7185 7.26476 14.7158C7.26944 14.7206 7.26944 14.7442 7.305 14.7442C7.33421 14.7403 7.36236 14.7306 7.38784 14.7158C7.41623 14.7041 7.43994 14.6921 7.43994 14.669C7.42809 14.6288 7.40438 14.6097 7.36896 14.6097C7.35082 14.6086 7.33272 14.6127 7.31686 14.6216C7.31686 14.6216 7.305 14.5979 7.26476 14.6216C7.22451 14.6453 7.22919 14.6453 7.24104 14.6571C7.26226 14.676 7.25524 14.6883 7.25524 14.6883L7.25477 14.6874ZM6.98739 14.9336C6.98739 14.9217 7.04651 14.898 7.06305 14.9052C7.07958 14.9099 7.12685 14.9997 7.12685 15.0092C7.12685 15.0211 7.06773 15.0495 7.04402 15.0495C7.0203 15.0495 6.98021 15.0092 6.98021 15.0027C6.98021 14.998 7.0086 14.991 7.0086 14.9862C7.01562 14.9745 6.98739 14.9459 6.98739 14.934V14.9336ZM6.80019 14.588C6.81204 14.5834 6.81204 14.5715 6.82858 14.5596C6.83376 14.5562 6.83965 14.554 6.84582 14.5532C6.85199 14.5524 6.85826 14.553 6.86415 14.555C6.86832 14.5475 6.8741 14.5411 6.88106 14.5362C6.88802 14.5312 6.89599 14.5279 6.9044 14.5264C6.93279 14.5217 6.9565 14.5264 6.9512 14.5383C6.9512 14.5738 6.97491 14.5974 6.97491 14.6258C6.97491 14.6542 6.95837 14.6897 6.89925 14.7135C6.84012 14.73 6.75963 14.73 6.74777 14.7253C6.73592 14.7206 6.72406 14.6732 6.73592 14.6495C6.74777 14.6258 6.78084 14.5999 6.79988 14.588H6.80019Z" fill="#82764F"/><path fill-rule="evenodd" clip-rule="evenodd" d="M6.87509 14.604C6.87509 14.604 6.83484 14.6277 6.83484 14.6396C6.83127 14.651 6.82969 14.663 6.83016 14.675C6.83016 14.682 6.88227 14.6703 6.88929 14.6631C6.89163 14.6584 6.87509 14.6163 6.87509 14.604Z" fill="#6E6342"/><path fill-rule="evenodd" clip-rule="evenodd" d="M6.52242 14.4927C6.54598 14.4976 6.58623 14.4927 6.61696 14.5046C6.64067 14.5164 6.65721 14.5401 6.63349 14.5685C6.60978 14.5969 6.5867 14.6395 6.53412 14.6323C6.475 14.6276 6.41822 14.5969 6.41822 14.5732C6.41722 14.5582 6.41922 14.5432 6.4241 14.5289C6.42897 14.5147 6.43662 14.5016 6.44661 14.4904C6.47032 14.4715 6.48202 14.4834 6.52227 14.4927H6.52242Z" fill="#585136"/><path fill-rule="evenodd" clip-rule="evenodd" d="M6.49399 14.5165C6.49399 14.5165 6.41834 14.5756 6.39931 14.6042C6.37559 14.6325 6.25969 14.7792 6.22428 14.8099C6.23604 14.7892 6.24945 14.7694 6.26437 14.7508C6.21757 14.7807 6.18249 14.8258 6.165 14.8786C6.13661 14.9662 6.32365 15.0135 6.44657 15.0491C6.5695 15.0846 6.61707 15.0959 6.61707 15.0959C6.57182 15.0278 6.53296 14.9558 6.50101 14.8806C6.45422 14.7694 6.43004 14.7575 6.46077 14.7054C6.48448 14.6533 6.52005 14.6179 6.52005 14.5776C6.50585 14.5402 6.49399 14.5165 6.49399 14.5165Z" fill="#574F35"/><path fill-rule="evenodd" clip-rule="evenodd" d="M3.79719 14.7036C3.81441 14.7067 3.83207 14.7067 3.84929 14.7036C3.8847 14.6987 4.25395 14.5632 4.63974 14.5875C4.92855 14.605 5.2148 14.652 5.494 14.7279C5.97916 14.8557 6.58256 15.1089 6.97303 15.2533C7.07708 15.2934 7.17895 15.3646 7.25383 15.3928C7.5521 15.5089 7.5638 15.5089 7.73899 15.5396C7.94491 15.568 8.15551 15.4993 8.37562 15.4521C8.64535 15.3928 9.10679 15.3644 9.51146 15.3053C9.64231 15.2871 9.77138 15.2579 9.89725 15.2178C9.89725 15.2178 9.57542 15.5396 8.80384 15.6555C8.49197 15.7029 8.17504 15.7069 7.86207 15.6674C7.61591 15.6437 7.45273 15.6081 7.32965 15.5727C7.19003 15.5324 6.90361 15.4259 6.55105 15.3387C6.30488 15.2747 6.03032 15.2274 5.71567 15.1683C4.93942 15.0262 4.09702 14.863 3.79688 14.7045L3.79719 14.7036Z" fill="#252211"/><path fill-rule="evenodd" clip-rule="evenodd" d="M2.92488 13.2411C2.73768 13.3996 2.53909 13.5511 2.34518 13.6977L1.76065 14.1468C1.56191 14.2935 1.36785 14.4449 1.16895 14.5917C0.970046 14.7385 0.771458 14.878 0.560547 15.0129C0.747747 14.8544 0.946334 14.7076 1.14508 14.5633C1.34382 14.419 1.5499 14.2776 1.74162 14.1312L2.32615 13.6815C2.52724 13.5348 2.7213 13.3834 2.92488 13.2414V13.2411ZM1.89076 14.8977C1.89076 14.8977 2.10136 14.7225 2.36406 14.4765C2.69057 14.1713 3.09055 13.7807 3.21831 13.7099L1.8906 14.8978L1.89076 14.8977Z" fill="#CFB66C"/><path fill-rule="evenodd" clip-rule="evenodd" d="M1.89062 14.8976C1.99483 14.7935 2.10606 14.6918 2.21729 14.5923L2.38764 14.4457C2.43975 14.3989 2.49903 14.3463 2.55097 14.2942C2.65503 14.1901 2.75689 14.0788 2.86095 13.9724C2.91252 13.9189 2.96705 13.8683 3.02428 13.8209C3.05289 13.7956 3.08467 13.7741 3.11881 13.7569C3.14736 13.7404 3.17809 13.7101 3.21818 13.7048C3.19463 13.7404 3.16624 13.7569 3.14252 13.7877C3.11413 13.8114 3.09042 13.8398 3.06686 13.8633C3.01476 13.9154 2.95564 13.9627 2.90353 14.0101C2.7923 14.1048 2.6764 14.1973 2.56517 14.2964C2.45394 14.3954 2.34989 14.5023 2.2385 14.6017C2.11792 14.7035 2.00669 14.8029 1.89062 14.8981V14.8976ZM3.30586 13.951C3.30586 13.951 2.53444 14.706 2.37579 14.829L3.30586 13.951Z" fill="#CFB66C"/><path fill-rule="evenodd" clip-rule="evenodd" d="M3.30702 13.9509C3.23763 14.0313 3.16322 14.1071 3.08426 14.1781L2.85026 14.4005C2.7746 14.4762 2.70346 14.552 2.62312 14.6277C2.54028 14.6986 2.46463 14.7681 2.37695 14.8336L2.60409 14.6111C2.6799 14.5355 2.76274 14.4717 2.84324 14.3958L3.07037 14.1734C3.14837 14.0954 3.22419 14.0196 3.30702 13.9509ZM3.34244 14.3603C3.27133 14.5587 3.18754 14.7524 3.09159 14.9401C2.89284 15.3378 2.59473 15.8346 2.46447 16.088L3.34244 14.3603Z" fill="#CFB66C"/><path fill-rule="evenodd" clip-rule="evenodd" d="M3.34242 14.3604C3.34242 14.4479 3.31871 14.5237 3.29032 14.5993C3.26264 14.6751 3.23109 14.7493 3.19578 14.8218C3.16022 14.8928 3.11997 14.9686 3.07972 15.0372C3.03947 15.1059 2.9922 15.1767 2.95664 15.2479L2.71764 15.6691C2.63481 15.8095 2.55431 15.9507 2.4668 16.0856C2.52592 15.9341 2.60642 15.7922 2.68223 15.6525C2.76507 15.5121 2.84073 15.3717 2.91623 15.2265C2.9531 15.1541 2.98626 15.0799 3.0156 15.0042C3.05102 14.9284 3.08643 14.8574 3.11498 14.7887C3.15039 14.7131 3.17878 14.6419 3.21435 14.5735C3.25444 14.5 3.28767 14.429 3.34211 14.3604H3.34242Z" fill="#CFB66C"/><path fill-rule="evenodd" clip-rule="evenodd" d="M4.1849 16.3008C4.1849 16.3008 3.9509 16.6108 3.9743 17.0036C4.0381 16.7978 4.1186 16.483 4.1849 16.3008ZM4.40736 16.6115C4.40736 16.6115 4.32452 17.4539 4.25588 17.8681C4.35291 17.3894 4.37179 17.4296 4.40736 16.6115ZM5.95737 17.9179C5.95737 17.9179 5.60715 18.9475 5.59997 19.2336C5.67579 18.9394 5.82243 18.3383 5.95737 17.9171V17.9179Z" fill="#DEC270"/><path fill-rule="evenodd" clip-rule="evenodd" d="M6.77539 16.2371C6.77539 16.2371 7.34339 17.1742 7.76942 17.974C7.65414 17.5715 7.38894 16.8333 6.77539 16.2371Z" fill="#CBAF59"/><path fill-rule="evenodd" clip-rule="evenodd" d="M8.30273 17.6167C8.61459 18.1679 8.89582 18.736 9.14513 19.3182C9.09787 18.9159 8.96995 18.2273 8.30273 17.6167Z" fill="#E3C677"/><path fill-rule="evenodd" clip-rule="evenodd" d="M12.7894 18.9984C12.8839 18.9393 13.071 18.6173 13.2343 18.5369C13.3975 18.4541 13.5206 18.4376 13.6674 18.2742C13.814 18.1037 13.8546 17.9997 14.1761 17.8649C14.6258 17.6707 14.3165 17.4198 14.3165 17.4198C14.366 17.3712 14.419 17.3261 14.475 17.285C14.5911 17.1975 14.7258 17.091 14.7141 16.9039C14.6976 16.5893 14.6385 16.1325 14.3805 15.8675C14.6313 15.8154 15.1116 15.78 15.4101 15.7043C15.7554 15.6166 15.9141 15.4935 15.9141 15.4935C15.9141 15.4935 15.7153 15.1552 16.0372 14.8145C16.359 14.4738 16.6217 14.2702 16.8158 13.8891C16.5933 13.8607 16.2542 13.7424 15.3887 14.0713C15.4354 14.0933 15.4805 14.1186 15.5236 14.1469C15.5236 14.1469 14.9912 14.2937 14.7971 14.4571C14.4586 14.7433 14.416 14.9776 14.0493 15.1528C13.6825 15.328 13.3133 15.2806 13.0081 15.4226C12.703 15.5645 12.6579 15.6853 12.5465 15.7374C12.5702 15.7658 12.5418 15.813 12.5868 15.8533C12.5584 15.8935 12.3927 16.1632 12.2247 16.1632C12.2412 16.2272 12.3832 16.2745 12.3832 16.2745C12.3832 16.2745 12.2791 16.3503 12.0141 16.3692C12.1489 16.5096 12.2768 16.6626 12.6293 16.8851C12.601 16.9442 12.4826 17.0319 12.53 17.1431C12.5821 17.2543 12.7172 17.4058 13.2565 17.5289C12.9819 17.5406 12.6602 17.6045 12.2269 17.5454C11.7938 17.4933 11.7228 17.4626 11.4554 17.5289C11.4838 17.5573 11.5595 17.5573 11.6258 17.6329C11.5548 17.6376 11.1099 17.5808 10.9584 17.7797C10.7999 17.9855 10.7313 18.324 10.7431 18.5511C10.6603 18.5914 10.5798 18.6624 10.6201 18.8092C10.6603 18.956 10.8709 19.0032 11.0059 19.0954C11.1406 19.1948 11.1525 19.2302 11.2804 19.2067C11.4152 19.1783 11.6139 19.0435 11.73 19.0435C11.8461 19.0435 11.9288 19.131 11.9288 19.131C11.9288 19.131 12.2436 18.9795 12.2743 19.0079C12.3027 19.0363 12.279 19.2185 12.3097 19.2469C12.3409 19.2683 12.6955 19.0577 12.7902 18.9984H12.7894Z" fill="#ECD592"/><path fill-rule="evenodd" clip-rule="evenodd" d="M19.6686 9.52797C18.1896 5.70847 14.5333 5.00085 14.5333 5.00085H4.10172L4.14197 8.89134H6.21942V17.5788H4.10156V21.4623H14.2445C16.689 21.4623 18.6486 19.0058 18.6486 19.0058C21.7865 14.5521 19.6685 9.52797 19.6685 9.52797H19.6686ZM14.299 16.3884C14.299 16.3884 13.5034 17.5362 12.6377 17.5362H10.9061L10.8651 8.90085H13.0873C13.0873 8.90085 14.1169 9.11613 14.8362 11.1537C14.8362 11.1537 15.7899 14.0708 14.299 16.3884Z" fill="white" fill-opacity="0.8"/></g><rect x="0.599219" y="0.599951" width="22.8" height="22.8" rx="3.25" stroke="#7A6A2A" stroke-width="0.3"/></svg>