<svg width="1329" height="126" fill="none" xmlns="http://www.w3.org/2000/svg"><path opacity="0.3" d="M1328 84.8623L1323.52 87.2752C1318.12 90.1858 1311.68 90.4556 1306.05 88.007L1302.65 86.5237C1300.13 85.4278 1297.41 84.8623 1294.66 84.8623H1289.71C1285.56 84.8623 1281.53 86.2347 1278.25 88.7654V88.7654C1273.97 92.0615 1268.48 93.3562 1263.18 92.3189L1262.83 92.2497C1261.59 92.0073 1260.33 91.8853 1259.07 91.8853H1246.8C1243.28 91.8853 1240.04 89.9905 1238.31 86.9279V86.9279C1236.59 83.8653 1233.34 81.9705 1229.83 81.9705H1221.87C1218.67 81.9705 1215.58 83.1438 1213.18 85.2685V85.2685C1211.95 86.3648 1210.52 87.2173 1208.96 87.781L1200.08 91.0066C1198.47 91.59 1196.8 91.9649 1195.09 92.1223L1180.15 93.5038C1176.97 93.7976 1173.91 94.8474 1171.22 96.5656L1162.69 102.019C1160.77 103.241 1158.67 104.129 1156.46 104.644L1137.21 109.128C1135.72 109.474 1134.2 109.649 1132.67 109.649H1123.39C1119.99 109.649 1116.65 108.785 1113.69 107.139L1106.26 103.021C1099.86 99.4675 1092.02 99.701 1085.84 103.63L1070.92 113.104C1069.35 114.101 1067.65 114.874 1065.87 115.401L1064.94 115.676C1060.09 117.113 1054.87 116.654 1050.34 114.392L1048.13 113.288C1046.04 112.247 1043.79 111.579 1041.47 111.313L1033.05 110.347C1029.09 109.892 1025.08 110.632 1021.54 112.472L1012.33 117.265C1008.92 119.036 1005.08 119.789 1001.26 119.436L989.887 118.385C986.668 118.087 983.5 119.339 981.354 121.756V121.756C978.552 124.913 974.09 126.008 970.145 124.507L963.665 122.043L952.198 116.07C950.337 115.1 948.64 113.844 947.17 112.347L941.393 106.467C939.703 104.747 937.717 103.347 935.529 102.334L927.895 98.7989C925.7 97.7828 923.758 96.2927 922.209 94.4361V94.4361C919.721 91.4559 916.255 89.4573 912.43 88.7972L905.942 87.6775C903.08 87.1837 900.36 86.0725 897.971 84.4213L885.46 75.7738L868.073 66.0096C866.431 65.0876 864.668 64.4021 862.834 63.9733L845.107 59.8276C843.464 59.4435 841.878 58.8521 840.385 58.0676V58.0676C834.431 54.9393 827.3 55.032 821.43 58.314L815.324 61.7279L799.256 68.8574C797.704 69.5462 796.704 71.0848 796.704 72.783V72.783C796.704 74.5804 795.584 76.1877 793.898 76.8111L787.165 79.3008C782.968 80.8529 778.258 79.2253 775.915 75.4125V75.4125C774.902 73.7657 773.407 72.4717 771.631 71.7071L750.634 62.664C745.574 60.4846 739.838 60.4894 734.782 62.6771L732.285 63.7571C730.96 64.3305 729.701 65.0457 728.529 65.8903L722.843 69.9902L718.38 72.7626C715.212 74.7308 711.557 75.7738 707.827 75.7738H699.189C697.177 75.7738 695.177 75.4703 693.256 74.8736L686.844 72.882L668.33 68.8853C665.4 68.2529 662.65 66.9703 660.283 65.1322L652.707 59.2492L644.29 53.9968C643.283 53.3685 642.222 52.831 641.12 52.3908L634.634 49.8008C631.846 48.6873 628.796 48.4019 625.85 48.9786L622.68 49.5992C620.837 49.96 618.925 49.6077 617.332 48.6136L616.668 48.1993C613.12 45.9853 608.433 47.4971 606.847 51.3672V51.3672C606.395 52.471 605.658 53.4352 604.712 54.1618L601.865 56.3481C599.416 58.2294 596.414 59.2492 593.325 59.2492V59.2492C590.757 59.2492 588.238 59.9545 586.043 61.2883L581.398 64.1111C577.555 66.4464 572.72 66.3982 568.925 63.9868L567.546 63.1105C563.942 60.8209 559.261 61.1774 556.045 63.9864V63.9864C553.285 66.3979 549.395 67.0333 546.011 65.6255L541.422 63.7168C538.301 62.4183 534.872 62.0449 531.544 62.6413L524.809 63.8482C521.972 64.3565 519.059 64.2458 516.269 63.5237L509.332 61.7279L497.718 59.7954C495.545 59.4338 493.326 59.4338 491.153 59.7954L488.862 60.1765C482.96 61.1587 476.928 59.4465 472.421 55.5098L472.179 55.2982C470.478 53.8118 468.537 52.6244 466.439 51.7865L459.127 48.8667C457.843 48.3537 456.615 47.7088 455.463 46.9423L447.885 41.8984L433.092 29.7804C432.198 29.0473 431.241 28.3932 430.233 27.8255L425.936 25.4055C419.569 21.8197 411.753 21.9917 405.55 25.854L401.229 28.5445C398.114 30.4841 394.362 31.1253 390.78 30.3305V30.3305C386.138 29.3005 381.29 30.6934 377.902 34.0304L374.281 37.5974C370.174 41.6434 364.52 43.7201 358.771 43.2948L343.385 42.157C341.112 41.9889 338.949 41.1073 337.207 39.6379V39.6379C333.332 36.3715 327.71 36.2305 323.677 39.2985L323.521 39.4171C319.912 42.1622 314.994 42.4287 311.11 40.0896L304.509 36.1148L299.046 33.6906C292.124 30.6188 284.06 31.7207 278.215 36.5371L274.717 39.4197L271.67 42.1238C268.797 44.6736 265.25 46.342 261.454 46.9296L247.845 49.0361C243.171 49.7596 238.936 52.2032 235.971 55.8876V55.8876C232.951 59.6399 228.616 62.1026 223.847 62.7759L215.845 63.9056C212.527 64.3741 209.144 64.0012 206.007 62.8212L197.887 59.7663C196.971 59.422 196.083 59.0111 195.228 58.5369L188.044 54.5521C186.252 53.5582 184.623 52.2949 183.215 50.8064L181.17 48.6439C177.176 44.4223 171.357 42.4422 165.618 43.3517V43.3517C163.073 43.755 160.471 43.5951 157.995 42.8835L137.435 36.9743C135.504 36.4191 133.438 36.5616 131.601 37.3769V37.3769C128.759 38.6377 125.457 38.2586 122.976 36.3865L112.35 28.371C109.877 26.5058 106.62 26.042 103.725 27.1431V27.1431C101.172 28.1139 98.317 27.8741 95.9621 26.4911L94.0211 25.3511C90.8926 23.5138 87.1631 22.9925 83.6508 23.9017L80.1304 24.8129C78.7034 25.1822 77.3758 25.8627 76.2427 26.8054V26.8054C72.8446 29.6326 67.9929 29.8916 64.3131 27.4423L57.3982 22.8398C54.5737 20.9599 50.8076 21.3769 48.4629 23.8293V23.8293C45.8713 26.5399 41.6036 26.7257 38.7863 24.2505L28.3097 15.0459L23.7578 11.5834C21.0737 9.54162 17.7943 8.43607 14.4218 8.43607V8.43607C9.84963 8.43607 5.51318 6.40708 2.58333 2.89694L0.999994 1" stroke="#597A9B"/></svg>