<svg width="1329" height="193" fill="none" xmlns="http://www.w3.org/2000/svg"><path opacity="0.3" d="M1328 62.2131L1325.59 60.2015C1319.29 54.9536 1310.29 54.4926 1303.49 59.0701V59.0701C1300.45 61.1188 1296.87 62.2131 1293.2 62.2131H1290.91C1286.09 62.2131 1281.52 60.081 1278.43 56.3898L1277.3 55.0479C1273.8 50.8627 1268.13 49.1749 1262.9 50.7585V50.7585C1261.62 51.1469 1260.29 51.3443 1258.95 51.3443H1249.27C1244.37 51.3443 1239.99 54.41 1238.31 59.0164V59.0164C1236.64 63.6227 1232.26 66.6885 1227.35 66.6885H1223.54C1219.37 66.6885 1215.45 64.6926 1212.99 61.3184V61.3184C1211.89 59.8016 1210.47 58.5406 1208.83 57.6216L1200.92 53.1766C1198.76 51.9655 1196.4 51.1646 1193.96 50.8145L1181.85 49.0826C1177.61 48.4753 1173.67 46.5201 1170.62 43.5052L1162.93 35.9021C1160.87 33.8607 1158.38 32.2932 1155.65 31.3085L1138.26 25.0379C1136.08 24.2535 1133.79 23.8525 1131.48 23.8525H1125.62C1120.84 23.8525 1116.22 25.5639 1112.59 28.6768L1109.81 31.0626C1101.93 37.8309 1090.17 37.4334 1082.76 30.1479L1070.53 18.1199C1069.23 16.8367 1067.71 15.7906 1066.04 15.0287V15.0287C1060.72 12.5918 1054.48 13.3071 1049.85 16.8862L1048.56 17.8829C1046.2 19.7043 1043.44 20.9278 1040.51 21.4488L1035.93 22.2625C1030.24 23.2727 1024.39 21.7739 1019.89 18.1518L1013.88 13.3167C1009.56 9.8417 1004 8.3145 998.51 9.09949L991.212 10.1436C987.321 10.7002 983.484 8.82801 981.528 5.41851V5.41851C978.87 0.784411 972.939 -0.786861 968.335 1.92318L964.546 4.15317C963.959 4.49868 963.398 4.88674 962.868 5.31423L951.956 14.1113C950.256 15.4814 948.792 17.1205 947.622 18.9637L940.918 29.5257C939.544 31.6905 937.766 33.571 935.682 35.0645L928.269 40.3769C925.83 42.1244 923.822 44.4053 922.398 47.0459V47.0459C919.818 51.8292 915.379 55.3359 910.128 56.7381L907.134 57.5378C903.516 58.5041 900.241 60.4668 897.684 63.2025L885.46 76.2787L868.409 91.0977C866.551 92.7127 864.411 93.9707 862.096 94.8085L845.034 100.984C843.445 101.559 841.964 102.397 840.653 103.463V103.463C834.977 108.078 826.808 107.954 821.277 103.167L815.324 98.0164L800.214 87.6404C798.017 86.1313 796.703 83.6365 796.703 80.9707V80.9707C796.703 78.069 795.15 75.3895 792.631 73.9482L790.283 72.6044C784.827 69.4819 777.869 71.9154 775.549 77.7582V77.7582C774.774 79.7091 773.424 81.3777 771.677 82.5419L753.167 94.8793C746.834 99.1004 738.582 99.0918 732.258 94.8574V94.8574C730.952 93.9832 729.761 92.949 728.712 91.7789L722.843 85.2295L719.34 81.8611C715.614 78.2793 710.647 76.2787 705.478 76.2787H700.712C697.712 76.2787 694.751 76.9535 692.047 78.2532L686.844 80.7541L669.276 86.6232C665.748 87.8018 662.619 89.9409 660.24 92.8001L652.707 101.852L644.324 109.948C643.295 110.941 642.163 111.822 640.946 112.574L634.438 116.596C631.847 118.198 628.693 118.609 625.779 117.726L623.199 116.944C621.108 116.311 618.837 116.859 617.265 118.377V118.377C613.956 121.573 608.431 120.032 607.253 115.584L606.589 113.077C606.304 112.001 605.785 111.001 605.068 110.149L601.109 105.444C599.194 103.167 596.37 101.852 593.395 101.852V101.852C590.828 101.852 588.357 100.873 586.487 99.1146L581.473 94.3984C577.927 91.0629 572.379 91.1245 568.907 94.5379L568.032 95.3989C564.565 98.8072 558.885 98.3604 555.994 94.4521V94.4521C553.488 91.0627 548.78 90.2014 545.235 92.4835L541.46 94.9142C538.394 96.8878 534.632 97.4592 531.119 96.4849L527.014 95.3465C522.791 94.1753 518.3 94.4237 514.232 96.0533L509.332 98.0164L498.554 100.792C495.852 101.488 493.018 101.488 490.317 100.792V100.792C483.802 99.1142 476.921 101.556 472.921 106.964L471.815 108.459C470.357 110.43 468.537 112.105 466.452 113.393L459.304 117.812C457.903 118.677 456.615 119.712 455.468 120.893L447.885 128.705L432.903 147.699C432.134 148.674 431.277 149.574 430.341 150.39L427.692 152.698C420.856 158.657 410.599 158.401 404.069 152.108L400.74 148.9C398.057 146.315 394.152 145.45 390.629 146.66V146.66C386.338 148.133 381.594 146.509 379.105 142.716L374.575 135.81C370.432 129.493 363.083 126.05 355.578 126.909L343.768 128.261C341.288 128.545 339.03 129.824 337.512 131.805L337.215 132.192C333.801 136.647 327.147 136.814 323.514 132.536V132.536C320.262 128.708 314.472 128.371 310.797 131.795L305.374 136.85C304.798 137.387 304.184 137.879 303.535 138.324L303.227 138.536C294.526 144.511 282.68 142.696 276.167 134.39L274.717 132.541L271.608 128.271C268.808 124.425 264.727 121.703 260.099 120.594L249.454 118.044C243.818 116.694 239.044 112.964 236.37 107.822L235.592 106.328C232.854 101.061 227.917 97.2837 222.118 96.0166L218.393 95.2027C213.501 94.1339 208.387 94.9386 204.06 97.4578L198.09 100.934C197.04 101.545 196.048 102.251 195.126 103.042L187.733 109.388C186.147 110.749 184.785 112.351 183.695 114.134L179.557 120.903C176.717 125.55 171.197 127.824 165.908 126.527V126.527C163.216 125.867 160.38 126.12 157.847 127.246L137.612 136.247C135.644 137.122 133.363 136.913 131.587 135.693V135.693C128.976 133.901 125.434 134.365 123.374 136.77L111.867 150.204C109.847 152.562 106.428 153.132 103.753 151.557V151.557C101.335 150.134 98.2719 150.45 96.1956 152.337L93.9834 154.348C91.0181 157.043 86.7741 157.808 83.0544 156.318L80.1127 155.14C78.7053 154.576 77.4733 153.648 76.5433 152.45V152.45C73.3596 148.351 67.2854 148.016 63.67 151.74L57.8611 157.723C55.1479 160.518 50.5298 160.015 48.4827 156.701V156.701C46.2554 153.096 41.0883 152.887 38.5775 156.301L28.3096 170.262L23.1295 176.361C20.9033 178.981 17.6383 180.492 14.1996 180.492V180.492C9.89213 180.492 5.93196 182.855 3.88721 186.647L0.999965 192" stroke="#43BF98"/></svg>