<svg width="1326" height="681" fill="none" xmlns="http://www.w3.org/2000/svg"><g opacity="0.2"><rect opacity="0.2" x="168.166" y="679.98" width="0.768604" height="679.596" transform="rotate(-180 168.166 679.98)" stroke="white" stroke-width="0.768604" stroke-dasharray="1.24 6.2"/><rect opacity="0.2" x="417.161" y="679.98" width="0.768604" height="679.596" transform="rotate(-180 417.161 679.98)" stroke="white" stroke-width="0.768604" stroke-dasharray="1.24 6.2"/><rect opacity="0.2" x="830.655" y="679.98" width="0.768604" height="679.596" transform="rotate(-180 830.655 679.98)" stroke="white" stroke-width="0.768604" stroke-dasharray="1.24 6.2"/><rect opacity="0.2" x="251.141" y="679.98" width="0.768604" height="679.596" transform="rotate(-180 251.141 679.98)" stroke="white" stroke-width="0.768604" stroke-dasharray="1.24 6.2"/><rect opacity="0.2" x="581.645" y="679.98" width="0.768604" height="679.596" transform="rotate(-180 581.645 679.98)" stroke="white" stroke-width="0.768604" stroke-dasharray="1.24 6.2"/><rect opacity="0.2" x="996.675" y="679.98" width="0.768604" height="679.596" transform="rotate(-180 996.675 679.98)" stroke="white" stroke-width="0.768604" stroke-dasharray="1.24 6.2"/><rect opacity="0.2" x="2.15086" y="679.983" width="0.7686" height="654.855" transform="rotate(-180 2.15086 679.983)" stroke="white" stroke-width="0.7686" stroke-dasharray="1.24 6.2"/><rect opacity="0.2" x="332.655" y="679.98" width="0.768604" height="679.596" transform="rotate(-180 332.655 679.98)" stroke="white" stroke-width="0.768604" stroke-dasharray="1.24 6.2"/><rect opacity="0.2" x="666.194" y="679.98" width="0.768604" height="679.596" transform="rotate(-180 666.194 679.98)" stroke="white" stroke-width="0.768604" stroke-dasharray="1.24 6.2"/><rect opacity="0.2" x="1078.13" y="679.98" width="0.768604" height="679.596" transform="rotate(-180 1078.13 679.98)" stroke="white" stroke-width="0.768604" stroke-dasharray="1.24 6.2"/><rect opacity="0.2" x="1242.59" y="679.98" width="0.768604" height="679.596" transform="rotate(-180 1242.59 679.98)" stroke="white" stroke-width="0.768604" stroke-dasharray="1.24 6.2"/><rect opacity="0.2" x="85.1489" y="679.98" width="0.768604" height="679.596" transform="rotate(-180 85.1489 679.98)" stroke="white" stroke-width="0.768604" stroke-dasharray="1.24 6.2"/><rect opacity="0.2" x="498.62" y="679.98" width="0.768604" height="679.596" transform="rotate(-180 498.62 679.98)" stroke="white" stroke-width="0.768604" stroke-dasharray="1.24 6.2"/><rect opacity="0.2" x="913.677" y="679.98" width="0.768604" height="679.596" transform="rotate(-180 913.677 679.98)" stroke="white" stroke-width="0.768604" stroke-dasharray="1.24 6.2"/><rect opacity="0.2" x="747.68" y="679.98" width="0.768604" height="679.596" transform="rotate(-180 747.68 679.98)" stroke="white" stroke-width="0.768604" stroke-dasharray="1.24 6.2"/><rect opacity="0.2" x="1161.14" y="679.98" width="0.768604" height="679.596" transform="rotate(-180 1161.14 679.98)" stroke="white" stroke-width="0.768604" stroke-dasharray="1.24 6.2"/><rect opacity="0.2" x="1325.62" y="679.98" width="0.768604" height="679.596" transform="rotate(-180 1325.62 679.98)" stroke="white" stroke-width="0.768604" stroke-dasharray="1.24 6.2"/><path d="M2.53516 407.665L14.5085 433.891C14.9295 434.813 16.2189 434.869 16.7177 433.986L31.2394 408.295C31.4596 407.905 31.8723 407.665 32.3198 407.665H46.1469C46.6869 407.665 47.1649 408.014 47.3291 408.528L58.2542 442.757C58.5184 443.585 59.5294 443.892 60.2092 443.351L68.9734 436.376C69.193 436.201 69.4654 436.106 69.7461 436.106H88.0176C88.6372 436.106 89.1618 435.649 89.2469 435.035L94.5149 397.024C94.5999 396.41 95.1246 395.953 95.7441 395.953H112.269C112.826 395.953 113.316 396.325 113.465 396.863L118.723 415.834C118.759 415.963 118.816 416.087 118.891 416.198L132.159 435.779C132.303 435.992 132.509 436.154 132.75 436.245L154.118 444.275C154.45 444.4 154.712 444.66 154.839 444.991L169.996 484.362C170.063 484.534 170.167 484.69 170.301 484.817L194.47 507.706C194.701 507.924 195.006 508.046 195.324 508.046H210.717C211.207 508.046 211.652 507.757 211.851 507.308L232.571 460.589C233.019 459.579 234.464 459.613 234.862 460.644L260.915 527.933C260.964 528.059 261.032 528.175 261.118 528.279L270.896 540.037C271.47 540.728 272.566 540.598 272.963 539.792L284.291 516.803C284.416 516.549 284.624 516.346 284.88 516.227L301.297 508.568C301.915 508.279 302.651 508.545 302.943 509.162L321.712 548.839C321.989 549.423 322.666 549.697 323.271 549.47L343.117 542.011C343.826 541.745 344.605 542.169 344.766 542.908L351.862 575.402C352.098 576.479 353.518 576.737 354.117 575.811L365.483 558.237L379.65 528.237C379.686 528.161 379.714 528.081 379.734 527.999L390.178 484.776C390.203 484.675 390.24 484.577 390.289 484.485L404.353 458.013C404.408 457.908 404.448 457.796 404.472 457.68L410.52 428.224C410.584 427.914 410.764 427.639 411.023 427.458L426.99 416.257C427.201 416.109 427.36 415.899 427.446 415.657L443.39 370.858L463.075 325.915C463.142 325.764 463.237 325.628 463.357 325.514L485.883 304.098C485.996 303.992 486.087 303.865 486.152 303.725L496.642 281.317C497.094 280.352 498.473 280.368 498.902 281.344L513.259 313.975L531.652 347.155C531.754 347.339 531.808 347.546 531.808 347.757V370.483C531.808 370.727 531.88 370.967 532.016 371.17L546.723 393.278C547.351 394.223 548.813 393.898 548.983 392.776L554.033 359.376C554.055 359.224 554.106 359.079 554.182 358.946L584.521 305.828C584.998 304.993 586.202 304.994 586.677 305.83L597.909 325.584C597.948 325.652 597.98 325.723 598.005 325.797L605.387 347.436L614.351 370.074C614.538 370.547 614.996 370.858 615.505 370.858H631.374C631.753 370.858 632.111 370.685 632.347 370.387L641.179 359.235C641.225 359.176 641.277 359.122 641.333 359.073L663.866 339.299C664.036 339.149 664.162 338.956 664.231 338.741L675.256 303.937L685.108 278.944C685.135 278.876 685.168 278.81 685.206 278.748L696.781 259.957C697.171 259.323 698.028 259.173 698.61 259.637L706.714 266.086C707.367 266.605 708.335 266.346 708.641 265.57L716.043 246.794C716.52 245.584 718.302 245.83 718.432 247.125L721.616 278.712C721.625 278.798 721.642 278.883 721.669 278.966L729.391 303.074C729.555 303.588 730.033 303.937 730.573 303.937H737.487C737.992 303.937 738.448 304.244 738.637 304.712L751.369 336.165C751.79 337.207 753.27 337.196 753.676 336.148L764.804 307.406C765.234 306.295 766.833 306.37 767.156 307.518L775.254 336.278C775.55 337.329 776.961 337.513 777.517 336.573L790.185 315.151C790.557 314.52 791.392 314.348 791.983 314.779L806.076 325.045C806.579 325.412 807.277 325.348 807.706 324.897L817.993 314.073C818.054 314.008 818.123 313.95 818.197 313.9L832.229 304.407C832.649 304.123 833.2 304.123 833.62 304.407L846.34 313.012C847.041 313.486 848.001 313.135 848.23 312.32L857.61 279.008C857.641 278.898 857.688 278.792 857.748 278.694L869.959 258.87C870.002 258.8 870.038 258.726 870.066 258.649L879.298 233.67L895.374 180.133L910.255 146.062C910.697 145.05 912.141 145.076 912.547 146.102L929.96 190.181C930.279 190.986 931.303 191.226 931.946 190.646L942.068 181.517C942.763 180.89 943.876 181.229 944.103 182.138L958.745 240.772C958.916 241.46 959.627 241.864 960.306 241.66L986.238 233.864C986.641 233.743 986.955 233.426 987.073 233.023L995.028 205.756C995.37 204.583 997.024 204.559 997.4 205.722L1008.1 238.803C1008.45 239.904 1009.99 239.961 1010.43 238.89L1022.13 210.247L1037.39 182.713C1037.92 181.752 1039.35 181.907 1039.67 182.96L1051.81 223.632L1059.1 249.937C1059.18 250.235 1059.37 250.491 1059.63 250.656L1085.36 266.845C1085.65 267.027 1085.85 267.32 1085.92 267.655L1094.98 313.421C1095.05 313.773 1095.27 314.078 1095.58 314.256L1114.48 325.103C1115.05 325.431 1115.77 325.256 1116.13 324.706L1129.66 304.021C1129.69 303.965 1129.73 303.906 1129.75 303.845L1140.8 278.949C1140.83 278.877 1140.85 278.803 1140.87 278.727L1150.95 235.386C1151.15 234.55 1152.11 234.159 1152.84 234.624L1163.43 241.448C1163.95 241.784 1164.64 241.683 1165.04 241.212L1190.38 211.605C1190.95 210.947 1191.99 211.053 1192.41 211.81L1197.58 221.139C1198.11 222.087 1199.51 221.953 1199.85 220.922L1216.71 169.225C1217.03 168.232 1218.36 168.059 1218.93 168.936L1224.89 178.157C1225.43 178.995 1226.69 178.883 1227.08 177.963L1235.95 156.791C1236.29 155.965 1237.37 155.766 1237.99 156.416L1247.6 166.532C1247.74 166.674 1247.84 166.847 1247.9 167.035L1254.17 188.262C1254.51 189.407 1256.11 189.46 1256.53 188.34L1271.73 147.192C1272.16 146.038 1273.82 146.141 1274.1 147.338L1280.71 175.441C1281.01 176.689 1282.77 176.726 1283.12 175.491L1297.28 124.923L1305.65 99.0137C1305.82 98.5015 1306.3 98.1545 1306.83 98.1545H1317.29C1317.87 98.1545 1318.38 97.7403 1318.5 97.1631L1324.48 68.04" stroke="white" stroke-width="1.24098"/><path opacity="0.2" d="M14.5085 436.981L4.90504 415.945C4.35124 414.732 2.53516 415.127 2.53516 416.461V679.124C2.53516 679.81 3.09079 680.365 3.77616 680.365H1323.24C1323.93 680.365 1324.48 679.81 1324.48 679.124V83.3444C1324.48 81.8494 1322.32 81.6303 1322.02 83.0948L1318.5 100.253C1318.38 100.83 1317.87 101.244 1317.29 101.244H1306.83C1306.3 101.244 1305.82 101.591 1305.65 102.104L1297.28 128.013L1283.12 178.581C1282.77 179.816 1281.01 179.779 1280.71 178.531L1274.1 150.428C1273.82 149.231 1272.16 149.128 1271.73 150.282L1256.53 191.43C1256.11 192.55 1254.51 192.497 1254.17 191.352L1247.9 170.125C1247.84 169.937 1247.74 169.764 1247.6 169.622L1237.99 159.505C1237.37 158.856 1236.29 159.055 1235.95 159.881L1227.08 181.053C1226.69 181.973 1225.43 182.085 1224.89 181.247L1218.93 172.025C1218.36 171.148 1217.03 171.322 1216.71 172.315L1199.85 224.012C1199.51 225.043 1198.11 225.177 1197.58 224.229L1192.41 214.9C1191.99 214.143 1190.94 214.037 1190.38 214.695L1165.04 244.302C1164.64 244.773 1163.95 244.874 1163.43 244.538L1152.84 237.714C1152.11 237.249 1151.15 237.64 1150.95 238.476L1140.87 281.817C1140.85 281.893 1140.83 281.967 1140.8 282.039L1129.75 306.935C1129.73 306.996 1129.69 307.055 1129.66 307.111L1116.13 327.796C1115.77 328.346 1115.05 328.52 1114.48 328.193L1095.58 317.346C1095.27 317.167 1095.05 316.863 1094.98 316.511L1085.92 270.745C1085.85 270.41 1085.65 270.117 1085.36 269.935L1059.63 253.746C1059.37 253.581 1059.18 253.325 1059.1 253.027L1051.81 226.721L1039.67 186.05C1039.35 184.997 1037.92 184.842 1037.39 185.803L1022.13 213.337L1010.43 241.98C1009.99 243.051 1008.45 242.994 1008.1 241.893L997.4 208.812C997.024 207.649 995.37 207.673 995.028 208.846L987.072 236.113C986.955 236.516 986.641 236.833 986.238 236.954L960.306 244.75C959.627 244.954 958.916 244.55 958.745 243.862L944.103 185.228C943.876 184.319 942.763 183.98 942.068 184.607L931.946 193.736C931.303 194.316 930.279 194.076 929.96 193.27L912.547 149.192C912.141 148.165 910.697 148.14 910.255 149.151L895.374 183.223L879.298 236.76L870.066 261.739C870.038 261.816 870.002 261.89 869.959 261.96L857.748 281.784C857.688 281.882 857.641 281.987 857.61 282.098L848.23 315.41C848.001 316.225 847.041 316.576 846.34 316.102L833.62 307.497C833.2 307.213 832.649 307.213 832.229 307.497L818.197 316.989C818.123 317.04 818.054 317.098 817.993 317.162L807.706 327.987C807.277 328.438 806.579 328.502 806.076 328.135L791.983 317.869C791.392 317.438 790.557 317.61 790.185 318.24L777.517 339.663C776.961 340.603 775.55 340.419 775.254 339.368L767.156 310.608C766.833 309.46 765.234 309.384 764.804 310.496L753.676 339.238C753.27 340.286 751.79 340.297 751.368 339.255L738.637 307.802C738.447 307.333 737.992 307.027 737.487 307.027H730.573C730.033 307.027 729.555 306.678 729.391 306.164L721.669 282.056C721.642 281.973 721.625 281.888 721.616 281.801L718.432 250.215C718.302 248.92 716.52 248.673 716.043 249.884L708.641 268.66C708.335 269.436 707.367 269.695 706.714 269.176L698.61 262.727C698.028 262.263 697.171 262.413 696.781 263.047L685.206 281.838C685.168 281.9 685.135 281.966 685.108 282.034L675.256 307.027L664.231 341.831C664.162 342.046 664.036 342.239 663.866 342.388L641.333 362.162C641.277 362.212 641.225 362.266 641.179 362.325L632.347 373.477C632.111 373.775 631.753 373.948 631.374 373.948H615.505C614.996 373.948 614.538 373.637 614.351 373.164L605.387 350.525L598.005 328.887C597.98 328.813 597.948 328.742 597.909 328.674L586.677 308.92C586.202 308.084 584.998 308.083 584.521 308.918L554.182 362.036C554.106 362.168 554.055 362.314 554.033 362.466L548.983 395.866C548.813 396.988 547.351 397.312 546.722 396.368L532.016 374.26C531.88 374.056 531.808 373.817 531.808 373.573V350.846C531.808 350.636 531.754 350.429 531.652 350.245L513.259 317.065L498.902 284.433C498.473 283.458 497.094 283.442 496.642 284.407L486.152 306.815C486.087 306.955 485.996 307.081 485.883 307.188L463.357 328.604C463.237 328.717 463.142 328.854 463.075 329.005L443.39 373.948L427.446 418.747C427.36 418.989 427.201 419.199 426.99 419.347L411.023 430.548C410.764 430.729 410.584 431.004 410.52 431.314L404.472 460.77C404.448 460.886 404.408 460.998 404.352 461.103L390.289 487.575C390.24 487.667 390.203 487.765 390.178 487.866L379.734 531.089C379.714 531.171 379.686 531.251 379.65 531.327L365.483 561.327L354.117 578.901C353.518 579.827 352.098 579.569 351.862 578.491L344.766 545.998C344.605 545.259 343.826 544.835 343.117 545.101L323.271 552.56C322.666 552.787 321.989 552.513 321.712 551.929L302.943 512.252C302.651 511.635 301.915 511.369 301.297 511.658L284.88 519.317C284.624 519.436 284.416 519.639 284.291 519.893L272.963 542.882C272.566 543.688 271.47 543.818 270.896 543.127L261.118 531.368C261.032 531.265 260.964 531.148 260.915 531.023L234.862 463.733C234.464 462.703 233.019 462.669 232.571 463.678L211.851 510.398C211.652 510.847 211.207 511.136 210.717 511.136H195.324C195.006 511.136 194.701 511.014 194.47 510.796L170.301 487.907C170.167 487.78 170.063 487.624 169.996 487.452L154.839 448.081C154.712 447.75 154.45 447.49 154.118 447.365L132.75 439.335C132.509 439.244 132.303 439.082 132.159 438.869L118.891 419.288C118.816 419.176 118.759 419.053 118.723 418.923L113.465 399.953C113.316 399.415 112.826 399.043 112.269 399.043H95.7441C95.1246 399.043 94.5999 399.5 94.5149 400.114L89.2468 438.125C89.1618 438.739 88.6372 439.196 88.0176 439.196H69.7461C69.4654 439.196 69.193 439.291 68.9733 439.466L60.2092 446.441C59.5294 446.982 58.5184 446.675 58.2542 445.847L47.3291 411.618C47.1649 411.104 46.6869 410.754 46.1469 410.754H32.3198C31.8723 410.754 31.4596 410.995 31.2394 411.385L16.7177 437.076C16.2189 437.959 14.9295 437.903 14.5085 436.981Z" fill="url(#paint0_linear)"/></g><defs><linearGradient id="paint0_linear" x1="663.508" y1="275.239" x2="663.508" y2="680.365" gradientUnits="userSpaceOnUse"><stop stop-color="white"/><stop offset="1" stop-color="white" stop-opacity="0"/></linearGradient></defs></svg>