<svg width="16" height="16" fill="none" xmlns="http://www.w3.org/2000/svg"><path fill-rule="evenodd" clip-rule="evenodd" d="M12.9236 1.02C12.9236 0.765947 13.1296 0.559998 13.3836 0.559998H14.2269H15.0703C15.3243 0.559998 15.5303 0.765947 15.5303 1.02V7.46C15.5303 7.71405 15.3244 7.92 15.0703 7.92H14.6613V14.8456C14.6613 15.0855 14.4668 15.28 14.2269 15.28C13.9869 15.28 13.7924 15.0855 13.7924 14.8456V7.92H13.3836C13.1296 7.92 12.9236 7.71405 12.9236 7.46V1.02ZM1.21879 3.32C0.964738 3.32 0.758789 3.52595 0.758789 3.78V10.22C0.758789 10.474 0.964738 10.68 1.21879 10.68H1.62758V14.8456C1.62758 15.0855 1.82209 15.28 2.06202 15.28C2.30196 15.28 2.49647 15.0855 2.49647 14.8456V10.68H2.90546C3.15951 10.68 3.36546 10.474 3.36546 10.22V3.78C3.36546 3.52595 3.15951 3.32 2.90546 3.32H2.49647V0.994442C2.49647 0.754505 2.30196 0.559998 2.06202 0.559998C1.82209 0.559998 1.62758 0.754505 1.62758 0.994442V3.32H1.21879ZM7.30121 7C7.04716 7 6.84121 7.20595 6.84121 7.46V14.82C6.84121 15.074 7.04716 15.28 7.30121 15.28H8.14444H8.98788C9.24193 15.28 9.44788 15.074 9.44788 14.82V7.46C9.44788 7.20595 9.24193 7 8.98788 7H8.57889V0.994442C8.57889 0.754505 8.38438 0.559998 8.14444 0.559998C7.90451 0.559998 7.71 0.754505 7.71 0.994442V7H7.30121Z" fill="#959CBD"/></svg>