<svg width="137" height="33" fill="none" xmlns="http://www.w3.org/2000/svg"><path d="M19.8879 23.3358L14.1795 25.8247V25.5735C13.0835 25.8475 11.8505 26.0073 10.7088 26.0758C5.32017 26.0302 1.07317 23.1988 1.00467 19.8651V18.6321C2.76284 21.1895 6.37051 22.9248 10.7088 22.8563C12.1702 22.9248 13.6772 22.6965 14.933 22.354L15.4353 21.121C13.9512 21.5777 12.3072 21.8745 10.7088 21.8745C5.32017 21.8745 1.07317 19.066 1.00467 15.6638V14.6591C2.76284 17.0338 6.37051 18.7463 10.7088 18.6321C12.6725 18.7463 14.5677 18.3353 16.1889 17.6275L16.44 16.3945C14.8645 17.2165 12.8323 17.696 10.7317 17.6275C5.34301 17.696 1.096 14.8875 1.0275 11.4168V10.4121C2.78567 12.8325 6.39334 14.5678 10.7317 14.6363C13.1977 14.5678 15.5267 13.9056 17.4447 12.901L17.6959 11.4168C15.9605 12.6955 13.426 13.5403 10.7317 13.6545C5.34301 13.5403 1.096 10.709 1.0275 7.19263C1.07317 3.83612 5.34301 1.02762 10.7317 0.981955C13.9283 1.02762 16.9195 2.14646 18.6777 3.97313L18.8604 4.26996H20.1162L19.9335 3.97313C18.1754 1.57562 14.6362 0.000119034 10.7317 0.000119034C4.74934 -0.0227143 0 3.24246 0 7.1698V7.42096V20.0935C0.2055 23.9295 4.84067 27.0577 10.686 27.0577C14.5448 27.0805 18.0384 25.5507 19.8879 23.3358Z" fill="#263238"/><path d="M17.5587 32.081L19.568 23.5413L13.7912 26.053L17.3075 11.257H10.5488L12.307 3.97314H33.8845L32.1264 11.257H25.0937L23.5867 15.2757L31.3728 12.0105L17.5587 32.081ZM21.075 21.806L20.0703 26.8293L28.3588 14.2938L21.5773 17.3078L24.5913 10.2751H31.3728L32.6287 5.00065H13.0377L11.7818 10.2751H18.5633L15.2982 24.3177L21.075 21.806Z" fill="#FABF2C"/><path fill-rule="evenodd" clip-rule="evenodd" d="M47.4703 10.7546C47.9727 10.2979 48.2239 9.68146 48.201 8.88226H46.7626C46.7626 9.36176 46.6483 9.72711 46.42 9.95544C46.1917 10.1838 45.8721 10.2979 45.4154 10.2979C44.9359 10.2979 44.5706 10.1152 44.2965 9.74994C44.0454 9.38458 43.9083 8.90509 43.9083 8.33423V6.82727C43.9083 6.25641 44.0454 5.79974 44.2965 5.43445C44.5477 5.06909 44.8903 4.88641 45.3469 4.88641C45.8264 4.88641 46.1917 5.00061 46.42 5.22894C46.6483 5.45728 46.7626 5.82257 46.7626 6.30206H48.2239V6.27924C48.2467 5.4801 47.9955 4.86359 47.4703 4.40692C46.9452 3.97308 46.2374 3.74475 45.3241 3.74475C44.4564 3.74475 43.7485 4.04156 43.2006 4.61243C42.6754 5.18323 42.4014 5.93677 42.4014 6.8501V8.33423C42.4014 9.24762 42.6754 10.0011 43.2234 10.5719C43.7714 11.1428 44.5021 11.4396 45.3926 11.4396C46.2831 11.4396 46.968 11.2112 47.4703 10.7546ZM55.599 10.5491C56.1699 9.95544 56.4667 9.17908 56.4667 8.26575H56.4438V6.91858C56.4438 6.00525 56.1699 5.22894 55.5762 4.63525C55.0054 4.01874 54.2518 3.72192 53.3157 3.72192C52.4023 3.72192 51.6489 4.04156 51.078 4.63525C50.5072 5.25177 50.2103 6.00525 50.2103 6.91858V8.26575C50.2103 9.17908 50.5072 9.95544 51.078 10.5491C51.6718 11.1428 52.4023 11.4396 53.3385 11.4396C54.2747 11.4396 55.0282 11.1428 55.599 10.5491ZM54.5259 5.45728C54.8228 5.8454 54.9597 6.30206 54.9597 6.89575V8.24292C54.9597 8.83661 54.8228 9.33893 54.5259 9.70428C54.229 10.0924 53.8408 10.2751 53.3157 10.2751C52.8134 10.2751 52.4023 10.0696 52.1284 9.70428C51.8315 9.3161 51.6946 8.83661 51.6946 8.24292V6.89575C51.6946 6.30206 51.8544 5.82257 52.1284 5.45728C52.4023 5.06909 52.8134 4.88641 53.3157 4.88641C53.8408 4.88641 54.229 5.09192 54.5259 5.45728ZM58.8414 11.3254H60.3484V3.83612H58.8414V11.3254ZM67.4952 11.3254H69.0022V3.83612H67.4952V8.88226H67.4724L64.4584 3.83612H62.9514V11.3254H64.4584V6.27924H64.4812L67.4952 11.3254ZM74.4137 5.00061H76.5601V3.83612H70.806V5.00061H72.9067V11.3254H74.4137V5.00061ZM79.9851 8.03741H82.7708H82.7936V6.87292H80.0079V5.00061H83.2959V3.83612H78.5009V11.3254H83.2959V10.1838H79.9851V8.03741ZM90.3058 10.1838H86.9492V3.83612H85.4423V11.3254H90.3058V10.1838ZM93.9135 8.03741H96.6991H96.7219V6.87292H93.9363V5.00061H97.2242V3.83612H92.4292V11.3254H97.2242V10.1838H93.9135V8.03741ZM104.074 11.1199C104.554 10.8916 104.896 10.6176 105.125 10.3207H105.147V7.37524H102.202V8.4256H103.64V9.8869C103.526 10.0011 103.366 10.0924 103.161 10.1609C102.955 10.2294 102.681 10.2751 102.316 10.2751C101.837 10.2751 101.448 10.1152 101.152 9.74994C100.855 9.38458 100.718 8.92792 100.718 8.35712V6.78162C100.718 6.23358 100.855 5.77692 101.129 5.41156C101.426 5.06909 101.791 4.88641 102.248 4.88641C102.681 4.88641 103.024 5.00061 103.252 5.22894C103.481 5.45728 103.595 5.77692 103.595 6.1651H105.01V6.14227C105.033 5.41162 104.782 4.84076 104.303 4.40692C103.823 3.97308 103.115 3.74475 102.202 3.74475C101.334 3.74475 100.604 4.04156 100.056 4.61243C99.4847 5.18323 99.2108 5.91394 99.2108 6.82727V8.40277C99.2108 9.3161 99.5076 10.0468 100.078 10.6176C100.649 11.1884 101.38 11.4624 102.293 11.4624C103.024 11.4624 103.618 11.3483 104.074 11.1199ZM109.006 11.3254V8.37994H110.239C110.605 8.37994 110.901 8.49408 111.107 8.69958C111.312 8.90509 111.404 9.2019 111.404 9.56726V10.0924C111.404 10.3207 111.427 10.5719 111.472 10.8231C111.518 11.0743 111.609 11.257 111.746 11.3711H113.299V11.257C113.162 11.1428 113.048 10.9829 113.002 10.7546C112.934 10.5262 112.911 10.2979 112.911 10.0924V9.54443C112.911 9.08777 112.797 8.69958 112.614 8.40277C112.408 8.08307 112.089 7.87762 111.655 7.7406C112.043 7.55792 112.34 7.32959 112.545 7.0556C112.751 6.75879 112.842 6.43909 112.842 6.0509C112.842 5.36591 112.591 4.81793 112.112 4.42975C111.632 4.04156 110.947 3.83612 110.102 3.83612H107.499V11.3254H109.006ZM110.079 7.19257H109.006V5.00061H110.102C110.513 5.00061 110.81 5.09192 111.016 5.29742C111.221 5.50293 111.335 5.77692 111.335 6.11945C111.335 6.48474 111.221 6.7359 111.016 6.91858C110.81 7.10126 110.49 7.19257 110.079 7.19257ZM116.792 9.72711H119.213L119.715 11.3483H121.291L118.779 3.85895H117.249L114.715 11.3483H116.29L116.792 9.72711ZM118.847 8.53973H117.158L118.003 5.89111H118.025L118.847 8.53973ZM124.624 11.3254V8.6311H125.994C126.862 8.6311 127.524 8.40277 128.026 7.96893C128.506 7.5351 128.757 6.94141 128.757 6.23358C128.757 5.52576 128.529 4.93207 128.026 4.49823C127.524 4.06445 126.862 3.83612 125.994 3.83612H123.117V11.3254H124.624ZM125.994 7.46661H124.624V5.02344H125.994C126.428 5.02344 126.748 5.13757 126.953 5.36591C127.159 5.59424 127.273 5.89111 127.273 6.25641C127.273 6.59894 127.159 6.89575 126.953 7.12408C126.725 7.35242 126.405 7.46661 125.994 7.46661ZM135.493 11.3254H137V3.83612H135.493V7.0556H132.433V3.83612H130.926V11.3254H132.433V8.22009H135.493V11.3254ZM44.2053 23.5641H45.1415V18.632H46.8312V17.8329H42.5156V18.632H44.2053V23.5641ZM50.4845 23.5641H51.4207V20.7327C51.4207 19.6595 50.8955 19.1344 49.8451 19.1344C49.5483 19.1344 49.2971 19.2029 49.0688 19.317C48.8405 19.4312 48.6578 19.5911 48.5436 19.7966H48.4751C48.4979 19.4997 48.5208 19.2485 48.5208 18.9974V17.4447H47.6074V23.5412H48.5208V21.3949C48.5208 20.8469 48.6122 20.4587 48.7948 20.2304C48.9774 20.0021 49.2515 19.8879 49.6396 19.8879C49.9365 19.8879 50.142 19.9792 50.2789 20.139C50.416 20.2989 50.4845 20.55 50.4845 20.8926V23.5641ZM53.0189 23.0389C53.3843 23.4271 53.9094 23.6326 54.5945 23.6326C54.7406 23.6326 54.8812 23.627 55.0109 23.616C55.1445 23.6046 55.2665 23.5873 55.3708 23.5641C55.5046 23.5373 55.6385 23.5027 55.7723 23.4556C55.8668 23.4224 55.9613 23.383 56.0558 23.3358V22.5822C55.8047 22.6964 55.5763 22.7877 55.348 22.8334C55.1425 22.879 54.8914 22.9019 54.6401 22.9019C54.252 22.9019 53.9323 22.7877 53.7268 22.5594C53.5212 22.3539 53.4071 22.0114 53.3843 21.6004H56.2842V21.0981C56.2842 20.4816 56.1243 20.0021 55.7819 19.6595C55.4622 19.317 55.0055 19.1344 54.4347 19.1344C53.8181 19.1344 53.3158 19.3399 52.9733 19.7509C52.6309 20.1619 52.4481 20.7099 52.4481 21.4177C52.4481 22.1027 52.6307 22.6508 53.0189 23.0389ZM53.7268 20.1162C53.9094 19.9335 54.1378 19.8422 54.4347 19.8422C54.7314 19.8422 54.9598 19.9335 55.1196 20.1162C55.2794 20.2989 55.3708 20.5729 55.3708 20.9382H53.4071C53.4528 20.5729 53.5442 20.2989 53.7268 20.1162ZM60.5311 19.9107H61.5586V19.2029H60.5083V18.9289C60.5083 18.8173 60.5173 18.7191 60.5354 18.6325C60.558 18.5243 60.5946 18.4341 60.6453 18.358C60.7367 18.2439 60.8965 18.1754 61.1019 18.1754C61.3303 18.1754 61.5358 18.2211 61.7642 18.2896L62.0153 17.5817C61.6957 17.4675 61.376 17.4219 61.0563 17.4219C60.5768 17.4219 60.2114 17.5361 59.9603 17.7872C59.7091 18.0384 59.595 18.4266 59.595 18.9289V19.2029L58.8871 19.4769V19.9107H59.595V23.5641H60.5311V19.9107ZM65.2577 22.9932L65.3947 23.5641H66.1254V19.2257H65.1891V21.3949C65.1891 21.9429 65.0978 22.3311 64.9152 22.5594C64.7324 22.7877 64.4585 22.9019 64.0703 22.9019C63.7734 22.9019 63.568 22.8105 63.431 22.6507C63.2939 22.4681 63.2255 22.2397 63.2255 21.8972V19.2257H62.2893V22.0799C62.2893 22.605 62.4034 23.0161 62.6775 23.2672C62.9514 23.5184 63.3396 23.6554 63.8647 23.6554C64.1616 23.6554 64.4357 23.5869 64.6639 23.4727C64.8923 23.3586 65.075 23.1987 65.212 22.9932H65.2577ZM69.733 22.7649C69.5046 22.8334 69.2764 22.8791 69.048 22.8791C68.8654 22.8791 68.7054 22.8334 68.637 22.7421C68.5228 22.6279 68.4772 22.4681 68.4772 22.2397V19.9107H69.7102V19.2029H68.4772V18.2439H67.9062L67.5867 19.1572L66.9473 19.4997V19.9107H67.541V22.2397C67.541 23.1531 67.9749 23.6097 68.8425 23.6097C68.9352 23.6097 69.022 23.6039 69.1058 23.5951C69.1874 23.5865 69.2661 23.5753 69.3448 23.5641C69.5046 23.5412 69.6416 23.4955 69.733 23.4499V22.7649ZM73.5005 22.9932L73.6375 23.5641H74.3682V19.2257H73.432V21.3949C73.432 21.9429 73.3407 22.3311 73.158 22.5594C72.9753 22.7877 72.7013 22.9019 72.3131 22.9019C72.0164 22.9019 71.8108 22.8105 71.6738 22.6507C71.5369 22.4681 71.4683 22.2397 71.4683 21.8972V19.2257H70.5321V22.0799C70.5321 22.605 70.6692 23.0161 70.9203 23.2672C71.1943 23.5184 71.5825 23.6554 72.1077 23.6554C72.4044 23.6554 72.6785 23.5869 72.9069 23.4727C73.1351 23.3586 73.3179 23.1987 73.4548 22.9932H73.5005ZM78.1527 19.1503C78.072 19.1409 77.9814 19.1344 77.8845 19.1344C77.8364 19.1344 77.7891 19.1372 77.7424 19.1426C77.5237 19.1679 77.3232 19.2498 77.1538 19.3627C76.9255 19.5225 76.72 19.728 76.583 19.9792H76.5374L76.4231 19.2257H75.6925V23.5641H76.6058V21.3035C76.6058 20.9154 76.72 20.6185 76.9484 20.3674C77.1766 20.1162 77.4735 20.0021 77.8389 20.0021C77.9758 20.0021 78.1128 20.0249 78.2498 20.0477L78.3412 19.1801C78.2876 19.1694 78.224 19.1587 78.1527 19.1503ZM79.3002 23.0389C79.6655 23.4271 80.1907 23.6326 80.8756 23.6326C81.1725 23.6326 81.4237 23.6097 81.652 23.5641C81.8804 23.5184 82.1086 23.4499 82.337 23.3358V22.5822C82.0858 22.6964 81.8575 22.7877 81.6292 22.8334C81.5114 22.8596 81.3785 22.8782 81.2393 22.8894C81.1356 22.8978 81.0284 22.9019 80.9213 22.9019C80.5332 22.9019 80.2135 22.7877 80.0079 22.5594C79.8025 22.3539 79.6884 22.0114 79.6655 21.6004H82.5653V21.0981C82.5653 20.4816 82.4055 20.0021 82.063 19.6595C81.7433 19.317 81.2866 19.1344 80.7158 19.1344C80.0994 19.1344 79.597 19.3399 79.2545 19.7509C78.912 20.1619 78.7294 20.7099 78.7294 21.4177C78.7294 22.1027 78.912 22.6508 79.3002 23.0389ZM80.0079 20.1162C80.1907 19.9335 80.4189 19.8422 80.7158 19.8422C80.9899 19.8422 81.2181 19.9335 81.4009 20.1162C81.5607 20.2989 81.652 20.5729 81.652 20.9382H79.6884C79.734 20.5729 79.8253 20.2989 80.0079 20.1162ZM88.9814 23.0389C89.3468 22.6279 89.5295 22.0799 89.5295 21.3721C89.5295 20.6871 89.3696 20.1619 89.0043 19.7509C88.639 19.3399 88.1366 19.1344 87.5201 19.1344C86.858 19.1344 86.3557 19.3399 85.9904 19.728C85.625 20.1162 85.4423 20.6642 85.4423 21.3721C85.4423 21.8287 85.5337 22.2169 85.6935 22.5594C85.8533 22.9019 86.0817 23.1759 86.4014 23.3586C86.7209 23.5413 87.0635 23.6326 87.4745 23.6326C88.1138 23.6326 88.6162 23.4271 88.9814 23.0389ZM87.4973 22.8791C86.7438 22.8791 86.3785 22.3767 86.3785 21.3721C86.3785 20.8926 86.4698 20.5272 86.6525 20.2761C86.8352 20.0249 87.1091 19.8879 87.4973 19.8879C88.228 19.8879 88.5934 20.3902 88.5934 21.3721C88.5934 22.3767 88.228 22.8791 87.4973 22.8791ZM91.7214 19.9107H92.749V19.2029H91.6986V18.9289C91.6986 18.6777 91.7444 18.4722 91.8357 18.358C91.927 18.2439 92.0868 18.1754 92.2924 18.1754C92.5206 18.1754 92.7262 18.2211 92.9545 18.2896L93.2057 17.5817C92.886 17.4675 92.5663 17.4219 92.2467 17.4219C91.7672 17.4219 91.4019 17.5361 91.1506 17.7872C90.8995 18.0384 90.7853 18.4266 90.7853 18.9289V19.2029L90.0775 19.4769V19.9107H90.7853V23.5641H91.7214V19.9107ZM98.3203 23.5641H99.2565H99.325V21.2579C99.325 20.8012 99.4164 20.4587 99.5762 20.2304C99.736 20.0021 99.9872 19.8879 100.353 19.8879C100.626 19.8879 100.809 19.9792 100.946 20.139C101.06 20.3217 101.129 20.55 101.129 20.8926V23.5641H102.042V20.7327C102.042 20.2076 101.905 19.7966 101.677 19.5453C101.426 19.2942 101.06 19.1572 100.535 19.1572C100.238 19.1572 99.9644 19.2257 99.736 19.3399C99.5077 19.454 99.325 19.6367 99.188 19.8422H99.1195C98.9139 19.3856 98.4573 19.1572 97.7952 19.1572C97.5211 19.1572 97.27 19.2029 97.0416 19.317C96.8134 19.4312 96.6306 19.5911 96.5165 19.7966H96.4708L96.3339 19.2257H95.6031V23.5641H96.5165V21.3949C96.5165 20.8469 96.6078 20.4587 96.7677 20.2304C96.9275 20.0021 97.1787 19.8879 97.5439 19.8879C97.818 19.8879 98.0234 19.9792 98.1377 20.139C98.2518 20.3217 98.3203 20.55 98.3203 20.8926V23.5641ZM106.563 23.0389C106.928 22.6279 107.111 22.0799 107.111 21.3721C107.111 20.6871 106.928 20.1619 106.586 19.7509C106.221 19.3399 105.718 19.1344 105.102 19.1344C104.44 19.1344 103.937 19.3399 103.572 19.728C103.207 20.1162 103.024 20.6642 103.024 21.3721C103.024 21.8287 103.115 22.2169 103.275 22.5594C103.435 22.9019 103.663 23.1759 103.983 23.3586C104.303 23.5413 104.645 23.6326 105.056 23.6326C105.696 23.6326 106.198 23.4271 106.563 23.0389ZM105.079 22.8791C104.325 22.8791 103.96 22.3767 103.96 21.3721C103.96 20.8926 104.052 20.5272 104.234 20.2761C104.417 20.0249 104.691 19.8879 105.079 19.8879C105.81 19.8879 106.175 20.3902 106.175 21.3721C106.175 22.3767 105.81 22.8791 105.079 22.8791ZM111.061 23.5641H111.998V20.7556C111.998 19.6824 111.495 19.1572 110.445 19.1572C110.148 19.1572 109.874 19.2029 109.646 19.317C109.417 19.4312 109.235 19.5911 109.098 19.7966H109.052L108.915 19.2257H108.184V23.5641H109.098V21.3949C109.098 20.8469 109.212 20.4587 109.372 20.2304C109.531 20.0021 109.828 19.8879 110.217 19.8879C110.4 19.8879 110.548 19.9227 110.667 19.9869C110.741 20.0267 110.803 20.0778 110.856 20.139C110.993 20.2989 111.061 20.55 111.061 20.8926V23.5641ZM113.596 23.0389C113.961 23.4271 114.486 23.6326 115.171 23.6326C115.323 23.6326 115.462 23.6266 115.593 23.6147C115.719 23.6033 115.836 23.5864 115.948 23.5641C116.176 23.5184 116.404 23.4499 116.633 23.3358V22.5822C116.506 22.6398 116.38 22.6915 116.259 22.7345C116.14 22.7769 116.027 22.8107 115.925 22.8334C115.837 22.853 115.74 22.8684 115.638 22.8796C115.504 22.8945 115.36 22.9019 115.217 22.9019C114.829 22.9019 114.509 22.7877 114.304 22.5594C114.098 22.3539 113.984 22.0114 113.961 21.6004H116.861V21.0981C116.861 20.4816 116.701 20.0021 116.359 19.6595C116.039 19.317 115.582 19.1344 115.011 19.1344C114.395 19.1344 113.893 19.3399 113.55 19.7509C113.208 20.1619 113.025 20.7099 113.025 21.4177C113.025 22.1027 113.208 22.6508 113.596 23.0389ZM114.281 20.1162C114.464 19.9335 114.692 19.8422 114.989 19.8422C115.286 19.8422 115.514 19.9335 115.674 20.1162C115.833 20.2989 115.925 20.5729 115.925 20.9382H113.961C114.007 20.5729 114.098 20.2989 114.281 20.1162ZM118.094 19.2257H117.089L118.87 23.5412L118.71 23.9522C118.528 24.4774 118.208 24.7286 117.774 24.7286C117.592 24.7286 117.432 24.7057 117.295 24.6829V25.4136C117.387 25.4365 117.484 25.4537 117.584 25.4651C117.684 25.4764 117.786 25.4821 117.889 25.4821C118.688 25.4821 119.236 25.0254 119.578 24.1349L121.428 19.2257H120.423C119.807 20.9611 119.487 21.9429 119.418 22.1484C119.35 22.3539 119.304 22.5366 119.281 22.6736H119.259C119.213 22.3767 119.121 22.0342 118.984 21.6917L118.094 19.2257Z" fill="#263238"/></svg>