<svg width="101" height="21" fill="none" xmlns="http://www.w3.org/2000/svg"><path fill-rule="evenodd" clip-rule="evenodd" d="M15.1945 1.3273C16.2075 0.373923 17.9355 0.433509 18.8889 1.62524C19.6039 2.51903 19.6039 3.82993 18.8889 4.72373C17.9355 5.97504 16.0883 6.03463 15.0754 4.8429C14.122 3.82993 12.5727 3.82993 11.6193 4.8429L11.5598 4.90249C11.381 5.08125 11.1427 5.26 10.9043 5.37918C10.8588 5.40194 10.822 5.4247 10.7905 5.44414C10.7396 5.47559 10.7028 5.49835 10.666 5.49835H10.6064C10.5766 5.49835 10.5468 5.51325 10.517 5.52814C10.4872 5.54304 10.4574 5.55794 10.4276 5.55794H10.3084C10.2489 5.61752 10.1893 5.61752 10.1297 5.61752H9.11671C9.08245 5.58326 9.06789 5.5687 9.05037 5.56251C9.03743 5.55794 9.02286 5.55794 8.99754 5.55794C8.93796 5.49835 8.93795 5.49835 8.87837 5.49835C8.84858 5.49835 8.83368 5.48345 8.81878 5.46856C8.80389 5.45366 8.78899 5.43876 8.7592 5.43876C8.7294 5.43876 8.71451 5.42387 8.69961 5.40897C8.68471 5.39407 8.66982 5.37918 8.64002 5.37918C8.61023 5.37918 8.59533 5.36428 8.58044 5.34938C8.56554 5.33449 8.55064 5.31959 8.52085 5.31959C8.49106 5.31959 8.47616 5.3047 8.46126 5.2898C8.44637 5.2749 8.43147 5.26 8.40168 5.26C8.37189 5.26 8.35699 5.24511 8.34209 5.23021C8.32719 5.21531 8.3123 5.20042 8.28251 5.20042C8.25271 5.20042 8.23781 5.18552 8.22292 5.17063C8.20802 5.15573 8.19313 5.14083 8.16333 5.14083L8.04416 5.02166L7.98457 4.96207L7.92499 4.90249C6.97161 3.88952 5.42236 3.88952 4.46898 4.90249L4.40939 4.96207L4.34981 5.02166C3.45601 5.91546 3.39642 7.34553 4.17105 8.29891L4.34981 8.53726C4.34981 8.56705 4.3647 8.58195 4.3796 8.59684C4.3945 8.61174 4.40939 8.62664 4.40939 8.65643C4.88608 9.07353 5.12443 9.6694 5.12443 10.2653V10.3248V10.444C5.12443 11.0995 4.88608 11.7549 4.34981 12.2316C3.45601 13.1254 3.39642 14.5555 4.17105 15.5089L4.34981 15.7472L4.46898 15.8664C5.36277 16.7602 6.79285 16.8198 7.74623 16.0451L7.98457 15.8664L8.10375 15.7472C9.11671 14.7938 10.8447 14.8534 11.7981 16.0451C12.5131 16.9985 12.5131 18.3094 11.7981 19.2032C10.7851 20.4545 8.99754 20.5141 7.92499 19.382C6.97161 18.369 5.42236 18.369 4.46898 19.382L4.40939 19.4416L4.23063 19.6203C4.17105 19.6501 4.09656 19.6948 4.02208 19.7395C3.9476 19.7842 3.87311 19.8289 3.81353 19.8587H3.75394C3.72415 19.8587 3.69436 19.8736 3.66456 19.8885C3.63477 19.9034 3.60498 19.9183 3.57518 19.9183H3.5156C3.4858 19.9183 3.45601 19.9331 3.42622 19.948C3.39642 19.9629 3.36663 19.9778 3.33684 19.9778H3.27725C3.18787 19.9778 3.11339 19.9927 3.0389 20.0076C2.96442 20.0225 2.88994 20.0374 2.80056 20.0374H2.26428C2.2047 19.9778 2.14511 19.9778 2.08552 19.9778H2.02594C1.99614 19.9778 1.95145 19.9629 1.90676 19.948C1.86207 19.9331 1.81738 19.9183 1.78759 19.9183C1.66842 19.9183 1.60883 19.9183 1.54925 19.8587H1.48966C1.45987 19.8289 1.43007 19.814 1.40028 19.7991C1.37049 19.7842 1.34069 19.7693 1.3109 19.7395C1.3109 19.6799 1.25131 19.6799 1.25131 19.6799C1.19173 19.6799 1.13214 19.6203 1.07255 19.5607C1.07255 19.5011 1.01297 19.5011 1.01297 19.5011L0.953382 19.4416C0.953382 19.4047 0.930622 19.3907 0.899168 19.3712C0.879728 19.3592 0.856969 19.3451 0.834209 19.3224L0.774623 19.2628C0.774623 19.2628 0.715036 19.2628 0.715036 19.2032C0.65545 19.2032 0.65545 19.1436 0.65545 19.1436C0.595864 19.1436 0.595864 19.084 0.595864 19.084C0.536277 19.0245 0.476691 18.9649 0.417105 18.8457C0.357518 18.8457 0.357518 18.7861 0.357518 18.7861C0.357518 18.7563 0.342622 18.7265 0.327725 18.6967C0.312828 18.6669 0.297932 18.6371 0.297932 18.6074C0.238345 18.6074 0.238345 18.5478 0.238345 18.5478C0.238345 18.5478 0.178759 18.4882 0.178759 18.4286C0.0964801 18.3463 0.071008 18.2356 0.0435121 18.1162C0.0311829 18.0626 0.0184469 18.0072 0 17.9519V17.4752C0 17.2369 0.0595864 16.9389 0.178759 16.7006C0.213024 16.6663 0.227585 16.6518 0.233773 16.6342C0.238345 16.6213 0.238345 16.6067 0.238345 16.5814C0.238345 16.5516 0.253242 16.5367 0.268139 16.5218C0.283035 16.5069 0.297932 16.492 0.297932 16.4622C0.297932 16.4324 0.312829 16.4176 0.327725 16.4027C0.342622 16.3878 0.357518 16.3729 0.357518 16.3431L0.417105 16.2835C0.446898 16.2537 0.461794 16.2239 0.476691 16.1941C0.491588 16.1643 0.506484 16.1345 0.536277 16.1047C0.595864 16.1047 0.595864 16.0451 0.595864 16.0451C0.595864 15.9856 0.65545 15.926 0.715036 15.8664V15.8068L0.834209 15.6876L0.893796 15.628C1.84718 14.6747 1.84718 13.1254 0.893796 12.172C0.536277 11.8145 0.297932 11.3974 0.178759 10.9803V10.9207C0.119173 10.8611 0.119173 10.8015 0.119173 10.742V9.84816C0.178759 9.78857 0.178759 9.72898 0.178759 9.6694V9.60981C0.178759 9.58002 0.193656 9.55022 0.208552 9.52043C0.223449 9.49064 0.238345 9.46084 0.238345 9.43105V9.37146C0.268139 9.34167 0.283035 9.31188 0.297932 9.28209C0.312828 9.25229 0.327725 9.2225 0.357518 9.19271V9.13312C0.380278 9.0876 0.394345 9.05077 0.406359 9.01932C0.425798 8.96843 0.439865 8.9316 0.476691 8.89477C0.536276 8.7756 0.71503 8.59685 0.834203 8.47767L0.834209 8.47767C1.78759 7.52429 1.78759 5.97504 0.893796 5.08125L0.774623 4.96207L0.65545 4.8429L0.655447 4.8429C0.59586 4.78331 0.476689 4.66414 0.357518 4.60455C0.334758 4.55904 0.320692 4.52221 0.308678 4.49076C0.289238 4.43986 0.275172 4.40304 0.238345 4.36621C0.238345 4.33642 0.223449 4.30662 0.208552 4.27683C0.193656 4.24704 0.178759 4.21724 0.178759 4.18745V4.12786C0.178759 4.09807 0.163862 4.06828 0.148966 4.03848C0.134069 4.00869 0.119173 3.9789 0.119173 3.9491C0 3.532 0 3.1149 0.0595864 2.69779C0.0595864 2.62798 0.0800332 2.57862 0.0969719 2.53772C0.108949 2.50881 0.119173 2.48413 0.119173 2.45945C0.119173 2.42965 0.134069 2.39986 0.148966 2.37007C0.163863 2.34027 0.178759 2.31048 0.178759 2.28069C0.198098 2.24201 0.217437 2.20176 0.237286 2.16045C0.339748 1.94722 0.455783 1.70573 0.65545 1.50606L0.834209 1.3273L0.893796 1.26772C1.13214 1.02937 1.43007 0.9102 1.728 0.791027H1.78759C1.81035 0.768267 1.83311 0.754201 1.85255 0.742187C1.884 0.722747 1.90676 0.708681 1.90676 0.671855H1.96635H2.74097H2.97932C3.45601 0.731441 3.87311 0.969786 4.23063 1.26772L4.34981 1.38689C4.34981 1.44648 4.40939 1.44648 4.40939 1.44648C5.2436 2.34027 6.67367 2.39986 7.62706 1.62524L7.8654 1.44648L7.98457 1.3273L8.04416 1.26772C8.07395 1.23793 8.10375 1.22303 8.13354 1.20813C8.16333 1.19324 8.19313 1.17834 8.22292 1.14855C8.22292 1.08896 8.28251 1.08896 8.28251 1.08896C8.3123 1.05917 8.34209 1.04427 8.37189 1.02937C8.40168 1.01448 8.43147 0.99958 8.46126 0.969786C8.46126 0.9102 8.52085 0.9102 8.52085 0.9102C8.55064 0.9102 8.58044 0.895304 8.61023 0.880407C8.64002 0.86551 8.66982 0.850614 8.69961 0.850614C8.69961 0.791027 8.7592 0.791027 8.7592 0.791027C8.78899 0.791027 8.81878 0.776131 8.84858 0.761234C8.87837 0.746338 8.90816 0.731441 8.93796 0.731441H9.05713C9.11671 0.671855 9.1763 0.671855 9.23589 0.671855H10.1893C10.2191 0.671855 10.2638 0.686751 10.3084 0.701648C10.3531 0.716544 10.3978 0.731441 10.4276 0.731441C10.8447 0.850614 11.2618 1.08896 11.5598 1.38689V1.44648C12.4536 2.34027 13.8836 2.39986 14.837 1.62524L15.0754 1.44648L15.1945 1.3273ZM9.77247 11.4574C9.2362 11.4574 8.81909 11.0403 8.81909 10.5041C8.81909 9.96778 9.2362 9.55068 9.77247 9.55068C10.3088 9.55068 10.7259 9.96778 10.7259 10.5041C10.7259 11.0403 10.3088 11.4574 9.77247 11.4574ZM15.9099 10.5041C15.9099 9.96778 16.327 9.55068 16.8633 9.55068C17.3995 9.55068 17.8166 9.96778 17.8166 10.5041C17.8166 11.0403 17.3995 11.4574 16.8633 11.4574C16.327 11.4574 15.9099 11.0403 15.9099 10.5041ZM15.9099 17.714C15.9099 17.1777 16.327 16.7606 16.8633 16.7606C17.3995 16.7606 17.8166 17.1777 17.8166 17.714C17.8166 18.2503 17.3995 18.6674 16.8633 18.6674C16.327 18.6674 15.9099 18.2503 15.9099 17.714Z" fill="#FCC118"/><path d="M32.4756 9.01423C32.1181 8.65671 31.8201 8.41836 31.403 8.2396C31.0455 8.06085 30.6284 7.94167 30.0921 7.94167C29.6154 7.94167 29.1387 8.06085 28.7812 8.2396C28.4237 8.41836 28.1258 8.65671 27.8874 9.01423C27.6491 9.31216 27.4703 9.66968 27.3511 10.0868C27.232 10.5039 27.1724 10.921 27.1724 11.3381C27.1724 11.7552 27.232 12.1723 27.4107 12.5894C27.5299 13.0065 27.7683 13.3044 28.0066 13.6024C28.2449 13.9003 28.6025 14.1387 28.96 14.3174C29.3175 14.4962 29.7346 14.5558 30.2113 14.5558C30.7476 14.5558 31.1647 14.4366 31.5222 14.2578C31.8797 14.0791 32.2372 13.8407 32.5352 13.4832L33.7865 14.7941C33.3098 15.3304 32.7735 15.6879 32.1776 15.9262C31.5818 16.1646 30.9263 16.2838 30.2113 16.2838C29.4963 16.2838 28.7812 16.1646 28.1854 15.9262C27.5895 15.6879 27.0532 15.3304 26.6361 14.9133C26.219 14.4962 25.8615 13.9599 25.6231 13.364C25.3848 12.7682 25.2656 12.0531 25.2656 11.3381C25.2656 10.6231 25.3848 9.90802 25.6231 9.31216C25.8615 8.7163 26.219 8.18002 26.6361 7.70333C27.0532 7.28622 27.5895 6.9287 28.1854 6.69036C28.7812 6.45201 29.4963 6.33284 30.2113 6.33284C30.9263 6.33284 31.5818 6.45201 32.1776 6.69036C32.8331 6.9287 33.3694 7.34581 33.8461 7.8225L32.4756 9.01423ZM36.5274 11.2189C36.5274 11.6956 36.587 12.1723 36.7658 12.5298C36.885 12.9469 37.1233 13.3044 37.3617 13.6024C37.6 13.9003 37.9575 14.1387 38.315 14.2578C38.6726 14.4366 39.1492 14.4962 39.6259 14.4962C40.1026 14.4962 40.5197 14.4366 40.9368 14.2578C41.2944 14.0791 41.6519 13.8407 41.8902 13.6024C42.1286 13.3044 42.3669 12.9469 42.4861 12.5298C42.6053 12.1127 42.7244 11.6956 42.7244 11.2189C42.7244 10.7422 42.6648 10.2655 42.4861 9.90802C42.3669 9.49092 42.1286 9.1334 41.8902 8.83547C41.6519 8.53754 41.2944 8.29919 40.9368 8.18002C40.5793 8.00126 40.1026 7.94167 39.6259 7.94167C39.1492 7.94167 38.7321 8.00126 38.315 8.18002C37.9575 8.35878 37.6 8.59712 37.3617 8.83547C37.1233 9.1334 36.885 9.49092 36.7658 9.90802C36.6466 10.3251 36.5274 10.7422 36.5274 11.2189ZM34.6207 11.2189C34.6207 10.5039 34.7399 9.84844 34.9782 9.25257C35.2165 8.65671 35.5741 8.12043 36.0508 7.64374C36.5274 7.16705 37.0041 6.80953 37.6596 6.57119C38.2555 6.33284 38.9109 6.15408 39.6259 6.15408C40.341 6.15408 40.9964 6.27325 41.5923 6.57119C42.1882 6.80953 42.7244 7.16705 43.2011 7.64374C43.6778 8.12043 43.9757 8.65671 44.2737 9.25257C44.512 9.84844 44.6312 10.5039 44.6312 11.2189C44.6312 11.934 44.512 12.5894 44.2737 13.1853C44.0353 13.7811 43.6778 14.3174 43.2011 14.7941C42.7244 15.2708 42.2477 15.5687 41.5923 15.8667C40.9964 16.105 40.341 16.2838 39.6259 16.2838C38.9109 16.2838 38.2555 16.1646 37.6596 15.8667C37.0637 15.6283 36.5274 15.2708 36.0508 14.7941C35.5741 14.3174 35.2761 13.8407 34.9782 13.1853C34.7994 12.5894 34.6207 11.934 34.6207 11.2189ZM46.4784 16.0454H48.266V6.5116H46.4784V16.0454ZM46.0613 3.05559C46.0613 2.69807 46.1804 2.40014 46.4188 2.10221C46.6571 1.86386 46.9551 1.6851 47.3126 1.6851C47.6701 1.6851 47.968 1.80428 48.2064 2.10221C48.4447 2.34055 48.5639 2.69807 48.5639 3.05559C48.5639 3.41311 48.4447 3.71104 48.2064 4.00897C47.968 4.24732 47.6701 4.42608 47.3126 4.42608C46.9551 4.42608 46.6571 4.3069 46.4188 4.00897C46.1804 3.77063 46.0613 3.41311 46.0613 3.05559ZM50.7686 6.5116H52.5562V8.00126H52.6158C52.8541 7.46498 53.2116 7.04788 53.8075 6.74995C54.3438 6.45201 54.9992 6.27325 55.7738 6.27325C56.2505 6.27325 56.6676 6.33284 57.0847 6.5116C57.5019 6.63077 57.8594 6.86912 58.1573 7.16705C58.4552 7.46498 58.6936 7.8225 58.9319 8.29919C59.1107 8.77588 59.2299 9.31216 59.2299 9.96761V16.105H57.4423V10.4443C57.4423 10.0272 57.3827 9.61009 57.2635 9.31216C57.1443 9.01423 56.9656 8.7163 56.7868 8.53754C56.6081 8.35878 56.3697 8.18002 56.0718 8.12043C55.8334 8.06085 55.5355 8.00126 55.2376 8.00126C54.88 8.00126 54.5225 8.06084 54.2246 8.18002C53.9267 8.29919 53.6287 8.47795 53.3904 8.77588C53.152 9.01423 52.9733 9.37175 52.8541 9.78885C52.7349 10.206 52.6754 10.6826 52.6754 11.2189V16.1646H50.8878V6.5116H50.7686ZM65.8439 14.5558C66.3206 14.5558 66.7377 14.4962 67.1548 14.3174C67.5719 14.1387 67.8699 13.9003 68.1678 13.6024C68.4062 13.3044 68.6445 12.9469 68.7637 12.5298C68.8828 12.1127 69.002 11.6956 69.002 11.1593C69.002 10.6826 68.9424 10.206 68.7637 9.78885C68.6445 9.37175 68.4062 9.01423 68.1678 8.7163C67.8699 8.41836 67.5719 8.18002 67.1548 8.00126C66.7377 7.8225 66.3206 7.76291 65.8439 7.76291C65.3673 7.76291 64.9501 7.8225 64.533 8.00126C64.1159 8.18002 63.818 8.41836 63.5201 8.7163C63.2817 9.01423 63.0434 9.37175 62.9242 9.78885C62.805 10.206 62.6859 10.6231 62.6859 11.1593C62.6859 11.636 62.7454 12.1127 62.9242 12.5298C63.0434 12.9469 63.2817 13.3044 63.5201 13.6024C63.7584 13.9003 64.1159 14.1387 64.533 14.3174C64.8906 14.4366 65.3673 14.5558 65.8439 14.5558ZM70.7896 15.9858H69.002V14.6153H68.9424C68.5849 15.1516 68.1082 15.5091 67.5124 15.8071C66.9165 16.105 66.261 16.2242 65.6056 16.2242C64.8906 16.2242 64.1755 16.105 63.5797 15.8667C62.9838 15.6283 62.4475 15.2708 62.0304 14.7941C61.6133 14.3174 61.2558 13.7811 61.077 13.1853C60.8387 12.5894 60.7195 11.934 60.7195 11.2189C60.7195 10.5039 60.8387 9.84844 61.077 9.19299C61.3154 8.59712 61.6133 8.06084 62.0304 7.58415C62.4475 7.10746 62.9838 6.74994 63.5797 6.5116C64.1755 6.27325 64.831 6.15408 65.6056 6.15408C66.261 6.15408 66.9165 6.27325 67.5124 6.57119C68.1082 6.86912 68.5849 7.28622 68.8828 7.76291H68.9424V0.612549H70.73V15.9858H70.7896ZM79.9063 10.4443C79.9063 10.0272 79.8467 9.66968 79.7276 9.31216C79.6084 8.95464 79.4296 8.65671 79.1913 8.41836C78.9529 8.18002 78.655 8.00126 78.3571 7.8225C77.9996 7.70333 77.642 7.58415 77.1654 7.58415C76.7482 7.58415 76.3311 7.64374 75.9736 7.8225C75.6161 8.00126 75.3182 8.18002 75.0202 8.47795C74.7819 8.7163 74.5436 9.01423 74.4244 9.37175C74.3052 9.72926 74.186 10.0272 74.186 10.3251H79.9063V10.4443ZM74.186 11.934C74.186 12.3511 74.3052 12.7086 74.484 13.0661C74.6627 13.4236 74.9011 13.7215 75.199 13.9599C75.4969 14.1982 75.8545 14.377 76.212 14.4962C76.6291 14.6153 76.9866 14.6749 77.4037 14.6749C77.94 14.6749 78.4762 14.5558 78.8934 14.2578C79.3105 14.0195 79.668 13.662 80.0255 13.2449L81.396 14.3174C80.383 15.6283 78.9529 16.2838 77.1654 16.2838C76.3907 16.2838 75.7353 16.1646 75.1394 15.9262C74.5436 15.6879 74.0073 15.3304 73.5902 14.8537C73.1731 14.377 72.8155 13.9003 72.6368 13.2449C72.3984 12.649 72.2793 11.9935 72.2793 11.2785C72.2793 10.5635 72.3984 9.90802 72.6368 9.31216C72.8751 8.7163 73.2327 8.18002 73.6498 7.70333C74.0669 7.22664 74.6031 6.9287 75.199 6.63077C75.7949 6.39243 76.4503 6.27325 77.1654 6.27325C77.9996 6.27325 78.7146 6.39243 79.3105 6.69036C79.9063 6.98829 80.383 7.34581 80.7405 7.8225C81.0981 8.29919 81.396 8.83547 81.5747 9.43133C81.7535 10.0272 81.8131 10.6231 81.8131 11.2785V11.934H74.186ZM88.8443 8.89505C88.6059 8.65671 88.3676 8.41836 88.0697 8.2396C87.7717 8.06085 87.3546 7.94167 86.9375 7.94167C86.5204 7.94167 86.1629 8.06085 85.8054 8.2396C85.5074 8.41836 85.3287 8.65671 85.3287 9.01423C85.3287 9.31216 85.4479 9.5505 85.6266 9.66968C85.8054 9.84844 86.0437 9.96761 86.2821 10.0868C86.5204 10.206 86.8183 10.2655 87.0567 10.3251C87.3546 10.3847 87.593 10.4443 87.7717 10.4443C88.1292 10.5635 88.5464 10.6231 88.8443 10.8018C89.2018 10.921 89.4997 11.0997 89.7381 11.3381C89.9764 11.5764 90.1552 11.8148 90.3339 12.1127C90.4531 12.4106 90.5723 12.7682 90.5723 13.2449C90.5723 13.7811 90.4531 14.2578 90.2148 14.6153C89.9764 14.9729 89.6785 15.3304 89.321 15.5687C88.9635 15.8071 88.5464 15.9858 88.0697 16.105C87.593 16.2242 87.1163 16.2838 86.6992 16.2838C85.9245 16.2838 85.2095 16.1646 84.6136 15.9262C84.0178 15.6879 83.4815 15.2708 83.0048 14.6153L84.3753 13.4832C84.6732 13.7811 84.9712 14.0195 85.3287 14.2578C85.6862 14.4962 86.1033 14.6153 86.6396 14.6153C86.8779 14.6153 87.1163 14.6153 87.3546 14.5558C87.593 14.4962 87.7717 14.4366 87.9505 14.3174C88.1292 14.1982 88.2484 14.0791 88.3676 13.9599C88.4868 13.7811 88.5464 13.6024 88.5464 13.4236C88.5464 13.1853 88.4868 12.9469 88.308 12.7682C88.1292 12.5894 87.9505 12.4702 87.7121 12.3511C87.4738 12.2319 87.2355 12.1723 86.9971 12.1127L86.2821 11.934C85.9245 11.8148 85.5074 11.7552 85.2095 11.636C84.852 11.5169 84.5541 11.3381 84.3157 11.1593C84.0774 10.9806 83.839 10.6826 83.6603 10.3847C83.4815 10.0868 83.4219 9.66968 83.4219 9.25257C83.4219 8.77588 83.5411 8.29919 83.7199 7.94167C83.8986 7.58415 84.1965 7.28622 84.5541 7.04788C84.9116 6.80953 85.2691 6.63077 85.6862 6.5116C86.1033 6.39243 86.58 6.33284 86.9971 6.33284C87.6526 6.33284 88.2484 6.45201 88.8443 6.69036C89.4401 6.9287 89.9168 7.34581 90.2744 7.88209L88.8443 8.89505ZM92.3003 0.850894H94.0879V10.5039L98.1398 6.45201H100.583L96.233 10.7422L101 15.8667H98.4377L94.0879 10.9806V15.8667H92.3003V0.850894Z" fill="#101820"/></svg>