<svg width="60" height="16" fill="none" xmlns="http://www.w3.org/2000/svg"><path d="M5.79225 1.49148H7.10623C7.90644 1.37136 8.72365 1.47697 9.4691 1.79682C10.4043 2.37011 11.0826 3.29304 11.3594 4.36874C11.5553 4.93245 11.5553 4.93245 12.0279 4.7328H12.3967V0.27011H0.0291614V1.05695H0.536313C0.756699 1.0554 0.974627 1.10417 1.17409 1.19969C1.37355 1.2952 1.54947 1.43504 1.68893 1.60892C2.1615 2.38402 2.24219 3.25307 2.24219 7.77447C2.24219 12.5777 2.13845 13.7521 1.68893 14.3511C1.57796 14.505 1.43428 14.6315 1.26862 14.721C1.10297 14.8104 0.919618 14.8606 0.732258 14.8678C0.0291614 14.997 0.0291614 14.9852 0.0291614 15.3023C-0.00972045 15.4084 -0.00972045 15.5251 0.0291614 15.6312H7.83238C7.88402 15.5274 7.91093 15.4128 7.91093 15.2965C7.91093 15.1801 7.88402 15.0655 7.83238 14.9618C7.64338 14.9082 7.45076 14.8689 7.25607 14.8443C7.04546 14.8188 6.83728 14.7756 6.63366 14.7151C6.34206 14.4982 6.11107 14.2076 5.9635 13.8718C5.81594 13.5361 5.75691 13.167 5.79225 12.8009C5.67699 12.0258 5.61936 10.6048 5.61936 9.43037V8.5026H6.0804C6.65481 8.48469 7.22889 8.54793 7.78628 8.6905C8.0533 8.85863 8.2806 9.08475 8.45195 9.35272C8.6233 9.62068 8.73447 9.92389 8.77753 10.2407L8.88126 10.6048H9.58436V5.4022H8.93889L8.83516 5.90719C8.79151 6.23117 8.67388 6.54019 8.49171 6.80943C8.30955 7.07866 8.06793 7.30059 7.78628 7.45739C7.51351 7.5401 7.22615 7.56015 6.94487 7.51611H5.61936V6.24777C5.61936 4.93245 5.68851 2.16088 5.73462 1.72636L5.79225 1.49148ZM59.7347 10.8044C59.1899 9.91094 58.3401 9.25425 57.3488 8.96061C56.5889 8.71857 55.8864 8.3187 55.2856 7.78622C55.1505 7.653 55.0493 7.48811 54.9911 7.30592C54.9328 7.12374 54.9192 6.92979 54.9514 6.74101C54.9523 6.37071 55.0974 6.01591 55.3548 5.75452C55.5293 5.56833 55.7501 5.43393 55.9937 5.36567C56.2373 5.29741 56.4946 5.29786 56.7379 5.36697C57.2418 5.51329 57.6975 5.79575 58.0566 6.18444C58.4158 6.57312 58.6651 7.05355 58.7781 7.57483C58.9625 8.1033 58.9855 8.1033 59.3198 7.96238L59.5273 7.88017V4.95593L59.3774 4.88547C58.2427 4.4794 57.039 4.31161 55.8389 4.39223C54.8054 4.41891 53.8189 4.83771 53.0726 5.56662C52.7341 5.88945 52.469 6.28375 52.2958 6.72193C52.1226 7.16011 52.0455 7.63157 52.0698 8.1033C52.0763 8.82453 52.3573 9.51503 52.8536 10.0293C53.4021 10.5789 54.0751 10.9823 54.8131 11.2037C56.5996 11.9201 57.1183 12.3781 57.1183 13.2119C57.126 13.5635 57.016 13.9074 56.8066 14.1869C56.5971 14.4665 56.3006 14.6652 55.9657 14.7504C55.5632 14.8404 55.1464 14.8404 54.7439 14.7504C54.217 14.542 53.7465 14.2084 53.3716 13.7774C52.9967 13.3464 52.7282 12.8304 52.5885 12.2724L52.4387 11.8966H52.2312C52.132 11.9041 52.0347 11.9279 51.943 11.9671H51.8278V15.3023H52.0237C52.8024 15.5663 53.6059 15.7473 54.4212 15.8425H55.5738C56.0737 15.8799 56.5761 15.8323 57.0607 15.7016C57.6758 15.586 58.2505 15.3083 58.7277 14.8963C59.2049 14.4842 59.568 13.9521 59.7808 13.3528C59.9184 13.0181 59.9889 12.6588 59.9883 12.2959C60.0337 11.7847 59.9463 11.2703 59.7347 10.8044ZM48.8771 4.7328C48.1864 4.43733 47.4422 4.29401 46.6933 4.31222C45.9444 4.33044 45.2078 4.50978 44.5317 4.83849C43.8962 5.15521 43.333 5.60417 42.8784 6.15641C42.4237 6.70864 42.0878 7.35187 41.8922 8.04458C41.6429 8.80024 41.5373 9.5974 41.581 10.3934C41.5728 10.8264 41.6075 11.2593 41.6847 11.6852C41.8709 12.7325 42.3671 13.6967 43.1068 14.4483C43.8465 15.1999 44.7942 15.7028 45.8226 15.8895C46.4924 15.9755 47.17 15.9755 47.8397 15.8895C48.5347 15.7647 49.1998 15.5056 49.7992 15.1262C50.295 14.843 50.7146 14.4396 51.021 13.9518C51.0013 13.8752 50.9667 13.8035 50.9191 13.741C50.8716 13.6784 50.8121 13.6263 50.7443 13.5877C50.6128 13.6362 50.4886 13.7035 50.3755 13.7874C49.8022 14.1723 49.1252 14.3653 48.4391 14.3393C47.9837 14.3707 47.5271 14.2984 47.1025 14.1278C46.6779 13.9572 46.2958 13.6925 45.984 13.3528C45.7428 13.1246 45.5437 12.8541 45.3962 12.5542C45.038 11.8242 44.845 11.0216 44.8314 10.2055V9.74745H51.2169V9.51257C51.231 9.27791 51.231 9.0426 51.2169 8.80794C51.2146 7.9787 50.9969 7.16486 50.586 6.44911C50.175 5.73336 49.5854 5.1412 48.8771 4.7328ZM45.6613 8.7962H44.8544V8.1033C45.1195 6.32997 45.7765 5.27302 46.5834 5.27302C47.3902 5.27302 47.736 6.31823 47.8858 8.23249V8.77271H47.1943L45.6613 8.7962ZM29.0866 4.34525C28.6884 4.32951 28.2924 4.41423 27.934 4.59187C27.155 4.97734 26.5258 5.61845 26.1475 6.41218L25.9976 6.69403V4.34525H25.94C25.8017 4.34525 21.537 5.2143 21.3987 5.27302C21.2604 5.33174 21.3065 5.34348 21.3065 5.55487C21.3065 5.76626 21.3065 5.8015 21.3987 5.81324L21.8482 5.90719C21.9741 5.91034 22.0977 5.94264 22.2095 6.00165C22.3213 6.06065 22.4185 6.14482 22.4937 6.24777C22.7818 6.63531 22.8395 7.31646 22.8395 10.2172C22.8964 11.5231 22.8424 12.8315 22.6781 14.1279C22.6394 14.3234 22.5421 14.5018 22.3997 14.6386C22.2572 14.7753 22.0766 14.8636 21.8828 14.8913L21.4909 14.9735H21.3411V15.3023C21.2992 15.4119 21.2992 15.5334 21.3411 15.6429H27.7842V15.3023C27.8065 15.1899 27.8065 15.0741 27.7842 14.9618C27.3963 14.9463 27.0105 14.8952 26.6316 14.8091C26.4252 14.6991 26.2564 14.528 26.1474 14.3184C26.0383 14.1088 25.9942 13.8704 26.0207 13.6347C25.9285 12.9535 25.8824 10.9571 25.9054 9.43037C25.9285 7.90366 25.9054 7.80971 26.0322 7.70401C26.4179 7.4027 26.8952 7.24892 27.3808 7.26949C27.8385 7.27966 28.2879 7.39614 28.6948 7.61006C28.8358 7.68986 28.9871 7.74916 29.1443 7.78622C29.1443 7.78622 30.2969 4.94419 30.2969 4.81501C30.1494 4.64037 29.9615 4.50596 29.7502 4.42394C29.5389 4.34191 29.3108 4.31487 29.0866 4.34525ZM21.318 9.2777C21.2778 8.43848 21.0413 7.62121 20.6283 6.89397C20.2153 6.16674 19.6377 5.55059 18.9436 5.09686C18.1188 4.64348 17.2011 4.3935 16.2643 4.36699C15.3275 4.34047 14.3976 4.53817 13.5494 4.94419C12.3501 5.58856 11.4445 6.68391 11.0251 7.99761C10.5919 9.46843 10.5919 11.0365 11.0251 12.5073C11.2522 13.3111 11.6767 14.0427 12.2584 14.6329C12.983 15.3532 13.9172 15.8148 14.921 15.9482C15.5653 16.0031 16.213 16.0031 16.8574 15.9482C17.0945 15.9115 17.3293 15.8605 17.5605 15.7956C18.4987 15.5282 19.3427 14.9941 19.9939 14.2557C20.645 13.5174 21.0763 12.6054 21.2373 11.6265C21.3524 10.8493 21.3795 10.0612 21.318 9.2777ZM16.5231 15.1497C15.3705 15.502 14.506 14.3628 14.2179 11.9671C14.1121 10.7128 14.1121 9.45154 14.2179 8.19726C14.4484 6.27125 15.0362 5.29651 15.9468 5.29651C16.1305 5.28491 16.3143 5.3183 16.4827 5.3939C16.6512 5.4695 16.7994 5.5851 16.915 5.73103C17.6873 6.51787 18.0676 8.07982 18.0676 10.4286C18.1635 11.7579 17.9585 13.0918 17.4683 14.3276C17.2518 14.688 16.9169 14.9585 16.5231 15.0909V15.1497ZM37.2702 4.58013C36.945 4.53749 36.6157 4.53749 36.2905 4.58013C35.6662 4.57959 35.049 4.71576 34.4809 4.97942L34.1236 5.13209V2.58366C34.186 1.72362 34.186 0.860046 34.1236 0C33.9853 0 29.5823 0.857306 29.5131 0.892538C29.4791 0.979243 29.4791 1.07594 29.5131 1.16265C29.5131 1.40927 29.5131 1.39753 30.0318 1.51497C30.1774 1.54824 30.3173 1.60367 30.4467 1.67938C30.6717 1.89495 30.8215 2.17948 30.8732 2.48971C31.0044 3.38345 31.0469 4.28839 31 5.19081V15.502L31.3112 15.5724C31.7722 15.6781 33.0747 15.9013 33.5012 15.9482C34.3528 16.0173 35.2084 16.0173 36.06 15.9482C37.0052 15.8499 37.9062 15.4906 38.6658 14.909C39.4254 14.3275 40.0149 13.5458 40.3708 12.6482C40.5829 12.0721 40.7299 11.4732 40.8088 10.8631C40.8774 10.0368 40.8503 9.20506 40.7281 8.38516C40.6044 7.4661 40.2063 6.60804 39.5877 5.92736C38.9692 5.24668 38.1601 4.77634 37.2702 4.58013ZM34.2504 14.95C34.2504 14.7973 34.1351 9.6535 34.1582 7.59832V5.9894L34.4924 5.90719C34.7179 5.87427 34.9469 5.87427 35.1725 5.90719C35.4219 5.88135 35.6728 5.93907 35.8871 6.07161C36.3175 6.37429 36.675 6.77252 36.9325 7.23632C37.1901 7.70011 37.341 8.21739 37.374 8.74922C37.4579 9.60439 37.4579 10.466 37.374 11.3211C37.305 12.5641 36.8349 13.7489 36.0369 14.6916C35.8104 14.9108 35.526 15.0578 35.2186 15.1144C34.986 15.1556 34.7481 15.1556 34.5155 15.1144C34.2965 15.1144 34.2965 15.044 34.2965 14.95H34.2504Z" fill="black"/></svg>