<svg width="69" height="26" fill="none" xmlns="http://www.w3.org/2000/svg"><path fill-rule="evenodd" clip-rule="evenodd" d="M24.5851 0V15.108H28.3054V9.39143C28.3054 8.58774 28.7722 7.78782 29.6681 7.78782C30.5481 7.78782 30.9367 8.57579 30.9367 9.39143V15.1081H34.6299V8.48416C34.6299 6.07392 33.3035 4.38718 31.0397 4.38718C29.189 4.38718 28.3054 5.61683 28.3054 5.61683V0H24.5851ZM16.9643 4.38577C13.9001 4.38577 11.9631 7.13379 11.9631 9.87029C11.9631 12.9497 14.0869 15.3911 16.9061 15.3911C19.0091 15.3911 19.802 14.1099 19.802 14.1099V15.1079H23.3589V4.62774H19.802V5.58051C19.8021 5.58051 18.9174 4.38577 16.9643 4.38577ZM17.7208 7.75381C19.1345 7.75381 19.8642 8.87244 19.8642 9.88182C19.8642 10.9688 19.0825 12.0355 17.7208 12.0355C16.5922 12.0355 15.5723 11.1131 15.5723 9.92805C15.5724 8.72629 16.3927 7.75381 17.7208 7.75381ZM0 4.62768H4.07811L6.45281 10.703L8.85822 4.62768H12.8289L6.84994 19.0098H2.85402L4.49065 15.1988L0 4.62768ZM40.9721 4.38709C37.463 4.38709 35.3738 7.05523 35.3738 9.91397C35.3738 13.1671 37.9035 15.3911 40.9854 15.3911C43.9723 15.3911 46.5862 13.2681 46.5862 9.96838C46.5862 6.35827 43.8496 4.38709 40.9721 4.38709ZM41.0056 7.7847C42.2451 7.7847 43.1027 8.81704 43.1027 9.91795C43.1027 10.8569 42.3035 12.0151 41.0056 12.0151C39.8163 12.0151 38.9238 11.061 38.9238 9.90768C38.9237 8.7966 39.6658 7.7847 41.0056 7.7847ZM47.1858 9.91397C47.1858 7.05523 49.275 4.38709 52.784 4.38709C55.6615 4.38709 58.3982 6.35827 58.3982 9.96838C58.3982 13.2681 55.7844 15.3911 52.7974 15.3911C49.7156 15.3911 47.1858 13.1671 47.1858 9.91397ZM54.9147 9.91795C54.9147 8.81704 54.057 7.7847 52.8176 7.7847C51.4777 7.7847 50.7358 8.7966 50.7359 9.90768C50.7359 11.061 51.6282 12.0151 52.8176 12.0151C54.1155 12.0151 54.9147 10.8569 54.9147 9.91795ZM61.3344 10.3897C62.6987 10.3897 63.8048 11.4958 63.8048 12.8601C63.8048 14.2245 62.6987 15.3305 61.3344 15.3305C59.9699 15.3305 58.864 14.2245 58.864 12.8601C58.864 11.4958 59.9699 10.3897 61.3344 10.3897ZM60.1696 9.48222H64.617L68.5475 0H64.1167L60.1696 9.48222Z" fill="#39007D"/><path d="M26.7346 21.1628V25H24.816V21.1628H24.127V19.5622H24.816V18.746C24.816 18.2938 24.8584 17.9334 24.9432 17.6648C25.0138 17.4387 25.1269 17.2302 25.2824 17.0394C25.4378 16.8416 25.618 16.672 25.823 16.5306C26.035 16.3893 26.2611 16.2798 26.5014 16.202C26.7416 16.1243 26.9784 16.0854 27.2116 16.0854C27.3741 16.0854 27.5225 16.1031 27.6568 16.1384C27.7981 16.1738 27.9394 16.2232 28.0808 16.2868V17.9616C27.9536 17.898 27.8334 17.8521 27.7204 17.8238C27.6144 17.7885 27.5013 17.7708 27.3812 17.7708C27.3034 17.7708 27.2222 17.785 27.1374 17.8132C27.0596 17.8344 26.9854 17.8839 26.9148 17.9616C26.8441 18.0394 26.7946 18.1524 26.7664 18.3008C26.7452 18.4422 26.7346 18.6365 26.7346 18.8838V19.5622H28.0808V21.1628H26.7346Z" fill="#7E1FFF"/><path d="M30.6491 19.5622V25H28.7305V19.5622H30.6491ZM28.6033 17.474C28.6033 17.3256 28.6316 17.1878 28.6881 17.0606C28.7446 16.9264 28.8224 16.8098 28.9213 16.7108C29.0202 16.6119 29.1333 16.5342 29.2605 16.4776C29.3948 16.4211 29.5361 16.3928 29.6845 16.3928C29.8329 16.3928 29.9707 16.4211 30.0979 16.4776C30.2322 16.5342 30.3488 16.6119 30.4477 16.7108C30.5466 16.8098 30.6244 16.9264 30.6809 17.0606C30.7374 17.1878 30.7657 17.3256 30.7657 17.474C30.7657 17.6224 30.7374 17.7638 30.6809 17.898C30.6244 18.0252 30.5466 18.1383 30.4477 18.2372C30.3488 18.3362 30.2322 18.4139 30.0979 18.4704C29.9707 18.527 29.8329 18.5552 29.6845 18.5552C29.5361 18.5552 29.3948 18.527 29.2605 18.4704C29.1333 18.4139 29.0202 18.3362 28.9213 18.2372C28.8224 18.1383 28.7446 18.0252 28.6881 17.898C28.6316 17.7638 28.6033 17.6224 28.6033 17.474Z" fill="#7E1FFF"/><path d="M31.7482 19.5622H33.6668V20.2512C33.9283 19.9332 34.1933 19.7212 34.4618 19.6152C34.7303 19.5022 35.0448 19.4456 35.4052 19.4456C35.7868 19.4456 36.1119 19.5092 36.3804 19.6364C36.656 19.7566 36.8892 19.9297 37.08 20.1558C37.2355 20.3396 37.3415 20.5445 37.398 20.7706C37.4545 20.9968 37.4828 21.2547 37.4828 21.5444V25H35.5642V22.2546C35.5642 21.9861 35.543 21.7706 35.5006 21.608C35.4653 21.4384 35.3981 21.3042 35.2992 21.2052C35.2144 21.1205 35.119 21.0604 35.013 21.025C34.907 20.9897 34.7939 20.972 34.6738 20.972C34.3487 20.972 34.0979 21.071 33.9212 21.2688C33.7516 21.4596 33.6668 21.7352 33.6668 22.0956V25H31.7482V19.5622Z" fill="#7E1FFF"/><path d="M40.3561 22.2652C40.3561 22.4419 40.3879 22.608 40.4515 22.7634C40.5151 22.9118 40.5999 23.0426 40.7059 23.1556C40.8189 23.2687 40.9497 23.357 41.0981 23.4206C41.2535 23.4842 41.4196 23.516 41.5963 23.516C41.7659 23.516 41.9249 23.4842 42.0733 23.4206C42.2287 23.357 42.3595 23.2687 42.4655 23.1556C42.5785 23.0426 42.6669 22.9118 42.7305 22.7634C42.8011 22.615 42.8365 22.456 42.8365 22.2864C42.8365 22.1168 42.8011 21.9578 42.7305 21.8094C42.6669 21.654 42.5785 21.5197 42.4655 21.4066C42.3595 21.2936 42.2287 21.2052 42.0733 21.1416C41.9249 21.078 41.7659 21.0462 41.5963 21.0462C41.4196 21.0462 41.2535 21.078 41.0981 21.1416C40.9497 21.2052 40.8189 21.2936 40.7059 21.4066C40.5999 21.5197 40.5151 21.6504 40.4515 21.7988C40.3879 21.9402 40.3561 22.0956 40.3561 22.2652ZM42.7729 19.5622H44.7021V25H42.7729V24.3958C42.363 24.9117 41.8083 25.1697 41.1087 25.1697C40.7129 25.1697 40.349 25.099 40.0169 24.9576C39.6847 24.8092 39.395 24.6043 39.1477 24.3428C38.9003 24.0814 38.706 23.774 38.5647 23.4206C38.4304 23.0673 38.3633 22.6822 38.3633 22.2652C38.3633 21.8766 38.4304 21.5091 38.5647 21.1628C38.6989 20.8095 38.8862 20.5021 39.1265 20.2406C39.3667 19.9792 39.6529 19.7742 39.9851 19.6258C40.3172 19.4704 40.6847 19.3926 41.0875 19.3926C41.7659 19.3926 42.3277 19.6294 42.7729 20.1028V19.5622Z" fill="#7E1FFF"/><path d="M45.7957 19.5622H47.7143V20.2512C47.9757 19.9332 48.2407 19.7212 48.5093 19.6152C48.7778 19.5022 49.0923 19.4456 49.4527 19.4456C49.8343 19.4456 50.1593 19.5092 50.4279 19.6364C50.7035 19.7566 50.9367 19.9297 51.1275 20.1558C51.2829 20.3396 51.3889 20.5445 51.4455 20.7706C51.502 20.9968 51.5303 21.2547 51.5303 21.5444V25H49.6117V22.2546C49.6117 21.9861 49.5905 21.7706 49.5481 21.608C49.5127 21.4384 49.4456 21.3042 49.3467 21.2052C49.2619 21.1205 49.1665 21.0604 49.0605 21.025C48.9545 20.9897 48.8414 20.972 48.7213 20.972C48.3962 20.972 48.1453 21.071 47.9687 21.2688C47.7991 21.4596 47.7143 21.7352 47.7143 22.0956V25H45.7957V19.5622Z" fill="#7E1FFF"/><path d="M56.7249 21.3218C56.3928 21.0957 56.0571 20.9826 55.7179 20.9826C55.5342 20.9826 55.3611 21.0144 55.1985 21.078C55.0431 21.1416 54.9053 21.2335 54.7851 21.3536C54.665 21.4667 54.5696 21.6045 54.4989 21.767C54.4353 21.9225 54.4035 22.0992 54.4035 22.297C54.4035 22.4878 54.4353 22.6645 54.4989 22.827C54.5696 22.9825 54.6615 23.1203 54.7745 23.2404C54.8947 23.3535 55.036 23.4418 55.1985 23.5054C55.3611 23.569 55.5342 23.6008 55.7179 23.6008C56.0783 23.6008 56.414 23.4772 56.7249 23.2298V24.8622C56.2515 25.0672 55.8027 25.1697 55.3787 25.1697C54.983 25.1697 54.6049 25.1025 54.2445 24.9682C53.8912 24.834 53.5767 24.6432 53.3011 24.3958C53.0326 24.1414 52.8171 23.8411 52.6545 23.4948C52.492 23.1415 52.4107 22.7493 52.4107 22.3182C52.4107 21.8872 52.4885 21.495 52.6439 21.1416C52.7994 20.7812 53.0114 20.4738 53.2799 20.2194C53.5485 19.958 53.8665 19.7566 54.2339 19.6152C54.6085 19.4668 55.0077 19.3926 55.4317 19.3926C55.8981 19.3926 56.3292 19.4916 56.7249 19.6894V21.3218Z" fill="#7E1FFF"/><path d="M61.5822 21.4914C61.5186 21.2229 61.3879 21.0074 61.19 20.8448C60.9922 20.6823 60.7519 20.601 60.4692 20.601C60.1724 20.601 59.9286 20.6788 59.7378 20.8342C59.5541 20.9897 59.4375 21.2088 59.388 21.4914H61.5822ZM59.335 22.6044C59.335 23.4312 59.7237 23.8446 60.501 23.8446C60.918 23.8446 61.2324 23.675 61.4444 23.3358H63.2994C62.9249 24.5796 61.9886 25.2014 60.4904 25.2014C60.0311 25.2014 59.6106 25.1343 59.229 25C58.8474 24.8587 58.5188 24.6608 58.2432 24.4064C57.9747 24.152 57.7662 23.8482 57.6178 23.4948C57.4694 23.1415 57.3952 22.7458 57.3952 22.3076C57.3952 21.8554 57.4659 21.449 57.6072 21.0886C57.7486 20.7212 57.95 20.4102 58.2114 20.1558C58.4729 19.9014 58.7874 19.7071 59.1548 19.5728C59.5294 19.4315 59.9498 19.3608 60.4162 19.3608C60.8756 19.3608 61.289 19.4315 61.6564 19.5728C62.0239 19.7071 62.3348 19.905 62.5892 20.1664C62.8436 20.4279 63.038 20.7494 63.1722 21.131C63.3065 21.5056 63.3736 21.9296 63.3736 22.403V22.6044H59.335Z" fill="#7E1FFF"/></svg>