<svg fill="none" xmlns="http://www.w3.org/2000/svg" viewBox="0 0 99 25"><path fill-rule="evenodd" clip-rule="evenodd" d="M22.34 12.02a10.31 10.31 0 11-20.63 0 10.31 10.31 0 0120.63 0zm1.7 0a12.02 12.02 0 11-24.04 0 12.02 12.02 0 0124.05 0zM13.09 3.57l-.77-.07v17.61l.77-.06a8.76 8.76 0 007.45-5.58l-1.33-.51a7.34 7.34 0 01-5.47 4.57V5.09a7.34 7.34 0 015.47 4.57l1.33-.51a8.76 8.76 0 00-7.45-5.58zm-1.44 16.77V3.61h-1.42v15.92a7.34 7.34 0 01-5.47-4.57l-1.33.5a8.76 8.76 0 007.45 5.6l.77.05v-.77zm86.63-11.6v9.5h-1.22V9.16l1.22-.42zm-13.88 9.5v-6.8h-1.22v6.8h1.22zm-.11-9.19a.66.66 0 00-.5-.2c-.21 0-.38.07-.5.2-.14.13-.2.3-.2.53 0 .21.06.39.2.53.12.13.29.2.5.2.2 0 .37-.07.5-.2.13-.14.2-.32.2-.53 0-.22-.07-.4-.2-.53zM66.07 10.8c.36.25.67.61.93 1.08l.95-.72a3.67 3.67 0 00-1.22-1.42 3.47 3.47 0 00-2.02-.55c-.58 0-1.11.1-1.6.3-.49.2-.9.49-1.26.88-.35.39-.63.87-.84 1.44-.2.58-.3 1.24-.3 2s.1 1.42.3 2c.2.57.49 1.05.84 1.44.35.38.77.67 1.25.87.49.2 1.01.3 1.58.3 1.42 0 2.5-.63 3.24-1.87l-.98-.7c-.3.48-.62.82-.97 1.04-.36.21-.78.32-1.26.32-.81 0-1.46-.29-1.95-.85-.49-.57-.73-1.42-.73-2.54 0-1.13.24-1.98.73-2.55a2.43 2.43 0 011.95-.86c.54 0 1 .13 1.36.39zm4.1.7c-.4.15-.72.32-.97.5l.49.98a3.1 3.1 0 012.46-.46 1.09 1.09 0 01.81.75c.08.19.11.44.11.74v.23a4.16 4.16 0 00-1.78-.36c-.38 0-.73.05-1.05.15-.31.1-.59.24-.82.43a1.9 1.9 0 00-.54.72c-.13.28-.2.6-.2.97 0 .38.07.7.2.98a1.96 1.96 0 001.29 1.08c.3.09.62.13.96.13.76 0 1.43-.2 2-.58v.49h1.14v-4.32c0-.5-.06-.91-.2-1.24a1.96 1.96 0 00-1.38-1.26 4.3 4.3 0 00-2.5.08zm2.08 5.72a3.7 3.7 0 01-1.45.04 1.78 1.78 0 01-.5-.22c-.14-.1-.25-.23-.34-.39a1.25 1.25 0 01-.12-.56c0-.45.17-.78.5-.99.34-.21.75-.32 1.24-.32a4.55 4.55 0 011.5.26v1.88c-.25.13-.53.23-.83.3zm4.82-5.77v.86c.22-.3.5-.54.84-.73.34-.2.74-.3 1.2-.3.48 0 .88.1 1.2.31.34.2.6.48.81.81.2.34.36.72.45 1.15a6.02 6.02 0 010 2.6c-.1.42-.24.8-.45 1.15-.2.33-.47.6-.8.8-.33.21-.73.32-1.2.32-.45 0-.84-.1-1.16-.27-.33-.18-.6-.41-.83-.69v3.05l-1.22.41v-9.47h1.16zm1.75.95c-.41 0-.75.11-1.03.32-.27.2-.48.47-.66.8v2.67c.18.32.4.58.67.79.28.2.62.3 1.03.3.32 0 .59-.06.8-.19.22-.14.4-.32.54-.54.14-.23.23-.49.28-.78a4.58 4.58 0 000-1.84c-.05-.3-.14-.56-.28-.78a1.48 1.48 0 00-.54-.54c-.21-.14-.48-.2-.81-.2zm7.35-.95V9.6l1.22-.4v2.24h1.74v1h-1.74v3.86c0 .55.27.82.8.82.18 0 .34-.03.5-.09.16-.07.32-.18.48-.32l-.21 1.12c-.12.14-.3.26-.54.34-.23.09-.47.13-.72.13-.42 0-.78-.14-1.08-.42-.3-.3-.45-.73-.45-1.31v-4.13h-.77v-1h.77zm5.14.05c-.4.15-.73.32-.97.5l.48.98a3.1 3.1 0 012.46-.46 1.09 1.09 0 01.81.75c.08.19.12.44.12.74v.23a4.15 4.15 0 00-1.79-.36c-.38 0-.72.05-1.04.15-.32.1-.6.24-.83.43a1.9 1.9 0 00-.54.72c-.12.28-.19.6-.19.97 0 .38.07.7.2.98a1.96 1.96 0 001.28 1.08c.3.09.62.13.97.13.75 0 1.42-.2 2-.58v.49h1.14v-4.32c0-.5-.07-.91-.2-1.24a1.97 1.97 0 00-1.39-1.26 4.3 4.3 0 00-2.5.08zm2.08 5.72a3.7 3.7 0 01-1.46.04 1.78 1.78 0 01-.5-.22 1.2 1.2 0 01-.33-.39 1.25 1.25 0 01-.12-.56c0-.45.17-.78.5-.99.34-.21.75-.32 1.24-.32a4.55 4.55 0 011.49.26v1.88c-.25.13-.52.23-.82.3zM33 9.31v5.59c0 .49-.08.94-.24 1.36a2.99 2.99 0 01-1.7 1.79 3.53 3.53 0 01-3.15-.24 2.97 2.97 0 01-1.2-1.43l.99-.74c.2.5.47.86.83 1.1.37.24.77.36 1.2.36.59 0 1.06-.2 1.42-.58.36-.39.54-.93.54-1.62V9.32H33zm2.82 2.1v4.3c0 .54.14.93.41 1.17.28.24.64.36 1.08.36.36 0 .68-.09.96-.26.3-.17.54-.49.74-.95v-4.61h1.22v6.81h-1.16v-.85a2.56 2.56 0 01-2.14 1.02c-.35 0-.66-.05-.96-.16-.28-.09-.52-.24-.73-.43-.2-.2-.36-.47-.47-.78-.11-.31-.17-.69-.17-1.12v-4.5h1.22zm7.26.82v-.81h-1.16v6.81h1.22v-4.66c.17-.44.4-.74.67-.9.28-.17.6-.26.93-.26.42 0 .75.12 1 .37.26.25.38.67.38 1.27v4.18h1.22v-4.65c.18-.44.4-.74.67-.91.27-.17.57-.26.92-.26.42 0 .76.12 1.01.37.26.25.39.67.39 1.27v4.18h1.22v-4.31c0-.48-.06-.88-.17-1.21-.1-.35-.25-.63-.45-.84a1.7 1.7 0 00-.7-.46c-.28-.1-.59-.16-.92-.16-.98 0-1.71.41-2.2 1.24a1.73 1.73 0 00-.8-.94c-.34-.2-.74-.3-1.2-.3-.87 0-1.55.33-2.03.98zm11.27-.81v.86c.23-.3.5-.54.84-.73.34-.2.74-.3 1.2-.3.48 0 .88.1 1.2.31.34.2.6.48.81.81.2.34.36.72.45 1.15a6.05 6.05 0 010 2.6c-.1.43-.24.82-.45 1.16-.2.33-.47.6-.8.81-.33.2-.73.3-1.2.3-.45 0-.83-.08-1.16-.26-.33-.18-.6-.4-.82-.68v3.05l-1.22.41v-9.5h1.15zm1.75.95c-.41 0-.75.1-1.03.32-.26.21-.48.48-.65.8v2.68c.17.32.4.58.67.79.27.2.61.3 1.02.3.32 0 .59-.06.8-.19.22-.13.4-.32.54-.54.14-.23.23-.5.28-.78a4.6 4.6 0 000-1.85 2.2 2.2 0 00-.28-.78 1.48 1.48 0 00-1.35-.75z" fill="#fff" opacity=".4"/></svg>