<svg fill="none" xmlns="http://www.w3.org/2000/svg" viewBox="0 0 106 10"><g opacity=".4" fill="#fff"><path d="M3.85 1.55a3.18 3.18 0 00-1.18.22c-.2.07-.36.19-.49.35A.93.93 0 002 2.7c0 .62.48 1 1.45 1.16l1.57.18c2.1.2 3.15 1.18 3.15 2.96a2.9 2.9 0 01-.34 1.42c-.23.41-.53.73-.92.96a4.4 4.4 0 01-1.2.47c-.42.1-.86.15-1.33.15a5.34 5.34 0 01-2.8-.7A3.57 3.57 0 010 7.01h1.8c.16.41.42.72.77.94.43.33 1.03.5 1.8.5A3.96 3.96 0 005.7 8.2c.22-.1.4-.23.54-.41.14-.2.21-.42.21-.68 0-.46-.14-.78-.41-.97a2.5 2.5 0 00-1.13-.38L3.33 5.6a3.97 3.97 0 01-2.18-.83A2.45 2.45 0 01.3 2.76c0-.5.1-.93.32-1.3.22-.38.51-.66.87-.86A5.14 5.14 0 013.85 0C5.68 0 6.93.58 7.6 1.74c.19.33.3.64.37.94H6.24a1.8 1.8 0 00-.98-.86c-.44-.18-.9-.27-1.4-.27zM8.9 1.8V.19h8.76V1.8h-3.54v8.01h-1.68V1.81H8.9zM25 9.82l-.81-1.98h-4.5l-.8 1.98h-1.7l4-9.68h1.6l4 9.68H25zm-4.66-3.56h3.2l-1.6-3.9-1.6 3.9zM28.1 9.82V.18h4.98c.94 0 1.69.23 2.23.69.55.46.82 1.2.82 2.19 0 .65-.15 1.2-.45 1.65-.3.45-.74.77-1.3.96l2.09 4.15h-1.79l-2.02-3.96h-2.88v3.96H28.1zm4.84-8.03h-3.16v2.48h3.16c.97 0 1.46-.4 1.46-1.21 0-.85-.49-1.27-1.46-1.27zM37.17 1.8V.19h8.75V1.8H42.4v8.01H40.7V1.81h-3.53zM47.39 9.82V.18h1.69v9.64h-1.7zM59.66.18v9.68h-1.32l-5.4-7.39v7.35H51.3V.18h1.96l4.78 6.61V.18h1.62zM70.2 4.27v4.3c-.48.48-1.08.84-1.78 1.08-.7.23-1.42.35-2.15.35a4.74 4.74 0 01-3.52-1.37 4.97 4.97 0 01-1.36-3.66c0-1.46.43-2.65 1.3-3.57A4.3 4.3 0 0165.97 0c.6 0 1.15.1 1.67.27.53.17 1 .46 1.43.87.44.4.74.91.92 1.5H68.2c-.23-.33-.55-.6-.96-.77a3.27 3.27 0 00-1.28-.25c-.88 0-1.57.32-2.1.96a3.73 3.73 0 00-.76 2.4c0 1.03.3 1.85.88 2.48.6.62 1.36.92 2.3.92.97 0 1.73-.2 2.3-.6V5.83h-3.14V4.27h4.75zM82.36 8.18v1.64h-7.2V.18h1.69v8h5.5zM83.8 9.82V.18h1.7v9.64h-1.7zM96.07.18v9.68h-1.32l-5.4-7.39v7.35H87.7V.18h1.96l4.78 6.61V.18h1.62zM98.28 9.82V.18h7.22v1.57h-5.54v2.2h3.3v1.6h-3.3V8.2H106v1.61h-7.72z"/></g></svg>