<svg width="81" height="95" fill="none" xmlns="http://www.w3.org/2000/svg"><path d="M17.304 64.568V61.832L30.3 54.776V58.088L20.832 63.2L30.3 68.312V71.624L17.304 64.568ZM47.8295 48.8H51.3215L37.6055 74H34.1135L47.8295 48.8ZM55.1439 68.312L64.6119 63.2L55.1439 58.088V54.776L68.1399 61.832V64.568L55.1439 71.624V68.312Z" fill="white"/><path d="M37.2593 16.8939C37.2488 12.003 41.2051 8.02955 46.0961 8.01903C50.987 8.00851 54.9604 11.9649 54.971 16.8558C54.9804 21.2474 51.7916 24.8993 47.5998 25.6068" stroke="white" stroke-width="2.04366" stroke-linecap="round"/><circle cx="34.5371" cy="29.8178" r="9.53707" stroke="white" stroke-width="2.04366"/><path d="M38.6024 28.75C38.7728 27.6049 37.9066 26.9891 36.7231 26.5782L37.1071 25.0265L36.1698 24.7916L35.7956 26.3023C35.5493 26.24 35.2966 26.1821 35.0444 26.1242L35.4213 24.6036L34.4841 24.3682L34.1001 25.9193C33.8961 25.8723 33.6954 25.8264 33.5013 25.7772L33.5023 25.7723L32.2093 25.4472L31.9598 26.4558C31.9598 26.4558 32.6557 26.6165 32.641 26.6263C33.0207 26.7219 33.089 26.9749 33.0776 27.176L32.6405 28.9435C32.6665 28.95 32.7001 28.9598 32.7381 28.9746L32.6389 28.95L32.026 31.4262C31.9793 31.542 31.8616 31.7163 31.5958 31.6502C31.6056 31.6638 30.9146 31.4792 30.9146 31.4792L30.4492 32.5599L31.6696 32.8664C31.8963 32.9238 32.1187 32.9839 32.3373 33.0401L31.9495 34.6093L32.8862 34.8442L33.2702 33.2926C33.5262 33.3619 33.7746 33.4264 34.0176 33.4876L33.6347 35.0327L34.5719 35.2677L34.9597 33.7018C36.5587 34.0067 37.7607 33.8837 38.2667 32.4271C38.6746 31.2546 38.2466 30.5776 37.4054 30.1367C38.0183 29.9947 38.4793 29.5887 38.6024 28.75ZM36.46 31.7758C36.1709 32.9489 34.2102 32.3146 33.5745 32.1556L34.0898 30.0766C34.7254 30.2367 36.7632 30.5531 36.46 31.7758ZM36.7502 28.7331C36.486 29.8002 34.8545 29.2576 34.3257 29.1249L34.7921 27.2399C35.321 27.3726 37.0257 27.6202 36.7502 28.7331Z" fill="white"/><path d="M45.6048 21.8653C45.0652 21.808 44.5829 21.6568 44.1578 21.4116C43.7328 21.1663 43.3935 20.8516 43.1401 20.4674C42.8949 20.0832 42.7518 19.6581 42.7109 19.1922L42.809 19.0573L44.5134 18.7998C44.5461 19.1758 44.6606 19.4905 44.8568 19.7439C45.053 19.9892 45.3023 20.1608 45.6048 20.2589V17.7575L45.4331 17.7207C44.7464 17.5736 44.1946 17.2956 43.7777 16.8869C43.369 16.4782 43.1646 15.9673 43.1646 15.3542C43.1646 14.7165 43.3853 14.1974 43.8268 13.7969C44.2764 13.3963 44.869 13.1634 45.6048 13.098V11.9699H46.6715V13.1225C47.4073 13.2042 47.9918 13.4454 48.425 13.8459C48.8583 14.2465 49.128 14.7738 49.2343 15.4277L49.1239 15.5626L47.5421 15.7343C47.5258 15.44 47.44 15.1948 47.2846 14.9986C47.1293 14.7942 46.925 14.6471 46.6715 14.5571V16.4577C47.6116 16.6458 48.3024 16.94 48.7438 17.3406C49.1852 17.7412 49.406 18.3134 49.406 19.0573C49.406 19.8339 49.1485 20.4715 48.6335 20.9701C48.1266 21.4688 47.4727 21.7672 46.6715 21.8653V23.0056H45.6048V21.8653ZM45.6048 14.4836C45.3432 14.5408 45.1429 14.6389 45.0039 14.7778C44.8731 14.9086 44.8077 15.068 44.8077 15.2561C44.8077 15.4523 44.869 15.6239 44.9917 15.7711C45.1143 15.91 45.3186 16.0367 45.6048 16.1512V14.4836ZM46.6715 20.2835C46.9495 20.2181 47.1661 20.0914 47.3214 19.9033C47.4849 19.7153 47.5667 19.4783 47.5667 19.1922C47.5667 18.8979 47.4972 18.6649 47.3582 18.4932C47.2274 18.3134 46.9985 18.1662 46.6715 18.0518V20.2835Z" fill="white"/><rect x="0.5" y="0.5" width="80" height="94" rx="9.5" stroke="white"/></svg>