<svg width="12" height="12" fill="none" xmlns="http://www.w3.org/2000/svg"><path d="M2.16625 6.41817C1.68795 6.14203 1.07636 6.30591 0.800222 6.7842C0.524079 7.26249 0.687955 7.87408 1.16625 8.15022L2.16625 6.41817ZM5.34048 9.40552L4.84048 10.2715L5.68386 10.7585L6.19296 9.92829L5.34048 9.40552ZM10.4277 3.02277C10.7164 2.55196 10.5688 1.93624 10.098 1.64753C9.62716 1.35881 9.01144 1.50642 8.72272 1.97723L10.4277 3.02277ZM1.16625 8.15022L4.84048 10.2715L5.84048 8.53949L2.16625 6.41817L1.16625 8.15022ZM6.19296 9.92829L10.4277 3.02277L8.72272 1.97723L4.48801 8.88275L6.19296 9.92829Z" fill="url(#paint0_linear_513_20309)"/><defs><linearGradient id="paint0_linear_513_20309" x1="3.75" y1="8.25" x2="10.5" y2="2.5" gradientUnits="userSpaceOnUse"><stop stop-color="#7068F1"/><stop offset="1" stop-color="#5573DC"/></linearGradient></defs></svg>