<svg width="135" height="37" fill="none" xmlns="http://www.w3.org/2000/svg"><path fill-rule="evenodd" clip-rule="evenodd" d="M19.0478 0C19.248 1.8679 18.5142 3.70245 17.4357 5.04779C16.3127 6.37089 14.5115 7.39379 12.7548 7.26037C12.5324 5.47029 13.4219 3.56903 14.4114 2.40159C15.5344 1.07849 17.4913 0.0667109 19.0478 0ZM24.7761 10.7464C24.5353 10.8929 21.3506 12.8288 21.3834 16.7446C21.4275 21.4609 25.4796 23.0538 25.6059 23.1034L25.6084 23.1044C25.5862 23.2156 24.9635 25.3837 23.4181 27.574C22.1172 29.5087 20.7719 31.3988 18.6149 31.4322C17.5933 31.4539 16.9037 31.1596 16.1852 30.853C15.4336 30.5322 14.6504 30.198 13.4225 30.198C12.1308 30.198 11.3139 30.5422 10.5265 30.874C9.84326 31.1619 9.18225 31.4405 8.25246 31.4766C6.19554 31.5545 4.63895 29.4086 3.29362 27.4962C0.614062 23.5825 -1.46509 16.4667 1.32564 11.6301C2.67098 9.25078 5.1504 7.72755 7.78548 7.68308C8.94247 7.66422 10.0568 8.11121 11.0339 8.50316L11.0339 8.50316C11.7845 8.80427 12.4542 9.07289 13 9.07289C13.4791 9.07289 14.1273 8.81491 14.883 8.51418C16.0741 8.04015 17.5321 7.45991 19.0151 7.61637C20.0269 7.64972 22.9177 8.02775 24.7856 10.7407L24.7761 10.7464ZM50.4236 31.1989H47.6217L46.0874 26.3734H40.7505L39.294 31.1989H36.5699L41.8512 14.7769H45.1201L50.4236 31.1989ZM45.6315 24.3499L44.2417 20.0693C44.0972 19.6245 43.8192 18.6016 43.4189 16.9783H43.3633C43.1966 17.6788 42.9408 18.7128 42.585 20.0693L41.2175 24.3499H45.6315ZM62.3534 29.9083C63.4541 28.7409 63.9989 27.151 63.9989 25.1385C63.9989 23.3262 63.532 21.8808 62.5758 20.769C61.6418 19.6682 60.4855 19.1123 59.0846 19.1123C57.3056 19.1123 55.9714 19.8239 55.093 21.2359H55.0486L54.904 19.3569H52.5914C52.6581 20.6911 52.6914 21.9809 52.6914 23.2484V36.0013H55.3265V29.786C56.0159 30.909 57.1388 31.4649 58.7065 31.4649C60.1519 31.4649 61.375 30.9535 62.3534 29.9083ZM60.5411 22.3811C61.0636 23.1261 61.3194 24.0711 61.3194 25.2275C61.3194 26.4839 61.0414 27.4845 60.4855 28.2517C59.9296 29.0078 59.1624 29.3969 58.1728 29.3969C57.3278 29.3969 56.6385 29.0967 56.1159 28.5074C55.5934 27.9181 55.3265 27.1843 55.3265 26.3282V24.3491C55.3265 24.1379 55.371 23.871 55.4488 23.5486C55.6045 22.8481 55.9603 22.2922 56.4828 21.8586C57.0165 21.4361 57.6058 21.2137 58.2507 21.2137C59.2069 21.2137 59.974 21.6028 60.5411 22.3811ZM77.6073 25.1385C77.6073 27.151 77.0625 28.7409 75.9618 29.9083C74.9834 30.9535 73.7603 31.4649 72.3149 31.4649C70.7472 31.4649 69.6243 30.909 68.9349 29.786V36.0013H66.2998V23.2484C66.2998 21.9809 66.2665 20.6911 66.1998 19.3569H68.5124L68.657 21.2359H68.7014C69.5798 19.8239 70.914 19.1123 72.693 19.1123C74.0939 19.1123 75.2502 19.6682 76.1842 20.769C77.1404 21.8808 77.6073 23.3262 77.6073 25.1385ZM74.9278 25.2275C74.9278 24.0711 74.6721 23.1261 74.1495 22.3811C73.5824 21.6028 72.8153 21.2137 71.8591 21.2137C71.2142 21.2137 70.6249 21.4361 70.0912 21.8586C69.5687 22.2922 69.224 22.8481 69.0572 23.5486C68.9794 23.871 68.9349 24.1379 68.9349 24.3491V26.3282C68.9349 27.1843 69.2018 27.9181 69.7243 28.5074C70.2469 29.0967 70.9362 29.3969 71.7812 29.3969C72.7708 29.3969 73.5491 29.0078 74.0939 28.2517C74.6609 27.4845 74.9278 26.4839 74.9278 25.2275ZM91.3842 30.0088C92.3515 29.1304 92.8407 27.9963 92.8407 26.5954C92.8407 25.4613 92.5071 24.5051 91.8289 23.7379C91.1618 22.9708 90.1278 22.3037 88.7158 21.7366C87.5594 21.2808 86.7589 20.8583 86.3253 20.4691C85.8249 20.0577 85.5692 19.5129 85.5692 18.8681C85.5692 18.2788 85.7916 17.7896 86.2252 17.3782C86.7478 16.9334 87.4816 16.7 88.4044 16.7C89.583 16.7 90.6281 16.9557 91.5621 17.456L92.2292 15.3213C91.2396 14.7987 89.9944 14.543 88.5045 14.543C86.8256 14.543 85.4803 14.9766 84.4685 15.8327C83.4567 16.7 82.9453 17.8007 82.9453 19.146C82.9453 21.2029 84.3795 22.7706 87.2815 23.8491C88.3377 24.2383 89.0938 24.6608 89.5496 25.1166C89.9944 25.5725 90.2279 26.1284 90.2279 26.7955C90.2279 27.5405 89.9499 28.1409 89.394 28.5856C88.8492 29.0303 88.0709 29.2527 87.0813 29.2527C85.7026 29.2527 84.4351 28.908 83.2788 28.2298L82.6673 30.4202C83.7347 31.0984 85.1467 31.4431 86.9146 31.4431C88.8269 31.4431 90.3168 30.965 91.3842 30.0088ZM101.558 21.3361H98.6556V27.0844C98.6556 28.5409 99.1671 29.2747 100.19 29.2747C100.657 29.2747 101.046 29.2302 101.357 29.1524L101.435 31.1537C100.913 31.3428 100.234 31.4428 99.3895 31.4428C98.3443 31.4428 97.5438 31.1204 96.9545 30.4866C96.3652 29.8529 96.0761 28.7855 96.0761 27.2956V21.325H94.3528V19.357H96.0761V17.1889L98.6556 16.4106V19.357H101.558V21.3361ZM113.053 29.6639C114.087 28.4964 114.61 27.0065 114.61 25.1831C114.61 23.4153 114.11 21.9699 113.098 20.858C112.042 19.7017 110.641 19.1235 108.906 19.1235C107.105 19.1235 105.671 19.7128 104.603 20.8803C103.547 22.0477 103.013 23.5487 103.013 25.3832C103.013 27.14 103.525 28.5965 104.559 29.7417C105.593 30.8869 106.983 31.465 108.717 31.465C110.518 31.465 111.964 30.8646 113.053 29.6639ZM111.185 22.448C111.652 23.2263 111.886 24.1491 111.886 25.2387C111.886 26.3283 111.641 27.2623 111.163 28.0628C110.585 29.019 109.796 29.4971 108.795 29.4971C107.772 29.4971 106.971 29.0301 106.404 28.085C105.937 27.3179 105.704 26.3839 105.704 25.2943C105.704 24.1713 105.926 23.2263 106.404 22.448C106.949 21.5029 107.761 21.0359 108.817 21.0359C109.84 21.0359 110.629 21.5029 111.185 22.448ZM123.172 21.6696C122.917 21.6251 122.639 21.6028 122.338 21.6028C121.416 21.6028 120.693 21.9475 120.193 22.648C119.759 23.2595 119.537 24.0489 119.537 24.9829V31.1981H116.902V23.0816C116.902 21.714 116.879 20.4688 116.824 19.3569H119.114L119.214 21.6251H119.292C119.57 20.8468 120.004 20.213 120.604 19.7461C121.193 19.3236 121.827 19.1123 122.505 19.1123C122.75 19.1123 122.972 19.1345 123.161 19.1568L123.172 21.6696ZM134.834 25.9063C134.9 25.5839 134.934 25.1836 134.934 24.7167C134.934 23.2379 134.578 22.0037 133.877 20.9809C133.01 19.7133 131.709 19.0796 130.008 19.0796C128.274 19.0796 126.895 19.7133 125.872 20.9809C124.894 22.1705 124.404 23.6604 124.404 25.4394C124.404 27.2517 124.927 28.7082 125.972 29.7867C127.017 30.8652 128.463 31.41 130.297 31.41C131.821 31.41 133.144 31.1654 134.267 30.6762L133.855 28.8527C132.899 29.2196 131.832 29.4087 130.664 29.4087C129.608 29.4087 128.752 29.1307 128.085 28.5859C127.351 27.9744 126.973 27.0738 126.939 25.9063H134.834ZM131.909 22.0149C132.265 22.5819 132.443 23.2601 132.421 24.0384L126.951 24.0273C127.028 23.2379 127.295 22.5486 127.729 21.9815C128.263 21.2699 128.963 20.9141 129.819 20.9141C130.753 20.9141 131.454 21.281 131.909 22.0149ZM44.3645 8.90551H42.9858L42.2298 6.53727H39.6058L38.8831 8.90551H37.5489L40.1395 0.833496H41.7406L44.3645 8.90551ZM41.9963 5.53661L41.3181 3.4241C41.259 3.23711 41.1477 2.81491 40.9764 2.16522L40.9763 2.16487L40.9762 2.16459L40.9067 1.90087H40.8844C40.8566 2.0088 40.8265 2.13199 40.7926 2.27112L40.7926 2.27118L40.7925 2.27184L40.7924 2.27219L40.7924 2.27223C40.718 2.57725 40.625 2.95881 40.4953 3.4241L39.8282 5.53661H41.9963ZM48.6572 8.90567L50.8587 3.07959H49.5023L48.5238 6.15941C48.3459 6.71533 48.2014 7.20455 48.1013 7.62705H48.068C47.9568 7.16007 47.8122 6.67086 47.6455 6.15941L46.6559 3.07959H45.2661L47.4009 8.90567H48.6572ZM55.5499 8.90564L55.4498 8.23853H55.4165C55.0162 8.77222 54.4492 9.03906 53.7154 9.03906C52.6702 9.03906 51.9364 8.30524 51.9364 7.32682C51.9364 5.89253 53.1817 5.1476 55.3387 5.1476V5.03641C55.3387 4.26924 54.9273 3.89121 54.1267 3.89121C53.5486 3.89121 53.0482 4.03575 52.6035 4.32483L52.3367 3.47982C52.8704 3.14627 53.5486 2.97949 54.338 2.97949C55.8612 2.97949 56.6284 3.78002 56.6284 5.3922V7.53807C56.6284 8.12735 56.6506 8.58321 56.7173 8.92788L55.5499 8.90564ZM55.372 6.00372C53.9377 6.00372 53.215 6.34839 53.215 7.18228C53.215 7.79379 53.5819 8.09399 54.1045 8.09399C54.7605 8.09399 55.372 7.59366 55.372 6.90431V6.00372ZM58.7414 1.3453C58.7414 1.79004 59.0749 2.12359 59.5086 2.12359C59.9867 2.12359 60.3202 1.81228 60.3202 1.3453C60.3313 0.900561 59.9755 0.578125 59.5308 0.578125C59.0861 0.578125 58.7414 0.900561 58.7414 1.3453ZM60.1757 3.07978H58.8859V8.89475H60.1757V3.07978ZM62.4765 0.411133H63.7662V8.89453H62.4765V0.411133ZM69.1584 8.23842L69.2585 8.90553V8.91665H70.4148C70.3592 8.57197 70.337 8.11612 70.337 7.52684V5.38097C70.337 3.76879 69.5698 2.96826 68.0466 2.96826C67.2571 2.96826 66.5789 3.13504 66.0452 3.46859L66.3121 4.32472C66.7568 4.03564 67.2571 3.8911 67.8353 3.8911C68.6358 3.8911 69.0472 4.26912 69.0472 5.0363V5.14748C66.8902 5.14748 65.645 5.89242 65.645 7.3267C65.645 8.30513 66.3788 9.03895 67.4239 9.03895C68.1577 9.03895 68.7248 8.77211 69.125 8.23842H69.1584ZM66.9236 7.18216C66.9236 6.34828 67.6463 6.00361 69.0806 6.00361V6.9042C69.0806 7.59355 68.4691 8.09388 67.8131 8.09388C67.2905 8.09388 66.9236 7.79368 66.9236 7.18216ZM75.5855 9.03907C74.7627 9.03907 74.1512 8.6944 73.751 8.00505H73.7287L73.6509 8.90565H72.5502C72.5835 8.43867 72.5946 7.91611 72.5946 7.33794V0.411133H73.8955V3.93569H73.9177C74.3069 3.29082 74.9184 2.96838 75.7745 2.96838C77.1755 2.96838 78.1539 4.16918 78.1539 5.91478C78.1539 7.71597 77.0643 9.03907 75.5855 9.03907ZM75.3187 3.98016C74.5737 3.98016 73.8955 4.62504 73.8955 5.52563V6.54853C73.8955 7.34906 74.507 8.00505 75.2964 8.00505C76.2637 8.00505 76.8419 7.21564 76.8419 5.95925C76.8419 4.78069 76.2415 3.98016 75.3187 3.98016ZM81.3567 0.411133H80.067V8.89453H81.3567V0.411133ZM88.3939 6.30407H84.5135C84.5358 7.4048 85.2696 8.02743 86.3481 8.02743C86.9262 8.02743 87.4488 7.92737 87.9158 7.74947L88.1159 8.65007C87.5711 8.89468 86.9262 9.00586 86.1702 9.00586C84.3467 9.00586 83.2682 7.86066 83.2682 6.07058C83.2682 4.29163 84.369 2.94629 86.0256 2.94629C87.5044 2.94629 88.4495 4.04702 88.4495 5.71479C88.4495 5.94828 88.4383 6.14841 88.3939 6.30407ZM87.2153 5.38124C87.2153 4.48064 86.7595 3.84689 85.9367 3.84689C85.1917 3.84689 84.6136 4.49176 84.5246 5.38124H87.2153ZM93.43 6.04808C93.43 7.77144 94.5307 9.03895 96.2318 9.03895C97.9775 9.03895 99.1338 7.76033 99.1338 5.94801C99.1338 4.18018 98.0108 2.96826 96.3319 2.96826C94.553 2.96826 93.43 4.24689 93.43 6.04808ZM94.7531 6.00361C94.7531 4.79169 95.3535 3.91333 96.2874 3.91333C97.1992 3.91333 97.7884 4.79169 97.7996 5.97025C97.7996 7.13769 97.188 8.07164 96.2763 8.07164C95.3646 8.07164 94.7531 7.2044 94.7531 6.00361ZM106.082 8.90542H104.793V5.55876C104.793 4.52474 104.392 4.01329 103.614 4.01329C102.847 4.01329 102.324 4.66928 102.324 5.43645V8.8943H101.034V4.74711C101.034 4.23566 101.023 3.67973 100.99 3.07933H102.124L102.18 3.97993H102.213C102.558 3.3573 103.269 2.95703 104.059 2.95703C105.282 2.95703 106.082 3.89098 106.082 5.41422V8.90542ZM113.122 4.05811H114.545H114.556V3.07968H113.133V1.63428L111.866 2.02342V3.0908H111.021V4.05811H111.866V6.99338C111.866 8.46102 112.466 9.02807 113.489 9.02807C113.9 9.02807 114.234 8.98359 114.489 8.88353L114.456 7.9051C114.3 7.93845 114.1 7.96069 113.878 7.96069C113.378 7.96069 113.122 7.6049 113.122 6.8822V4.05811ZM121.393 8.90565H120.103V5.58122C120.103 4.53609 119.703 4.01352 118.924 4.01352C118.257 4.01352 117.635 4.46938 117.635 5.39221V8.89453H116.345V0.411133H117.635V3.90233H117.657C118.068 3.26858 118.646 2.95726 119.403 2.95726C120.637 2.95726 121.393 3.91345 121.393 5.43668V8.90565ZM124.117 6.30407H127.997C128.042 6.14841 128.053 5.94828 128.053 5.71479C128.053 4.04702 127.108 2.94629 125.629 2.94629C123.973 2.94629 122.872 4.29163 122.872 6.07058C122.872 7.86066 123.95 9.00586 125.774 9.00586C126.53 9.00586 127.175 8.89468 127.719 8.65007L127.519 7.74947C127.052 7.92737 126.53 8.02743 125.952 8.02743C124.873 8.02743 124.139 7.4048 124.117 6.30407ZM125.54 3.84689C126.363 3.84689 126.819 4.48064 126.819 5.38124H124.128C124.206 4.49176 124.795 3.84689 125.54 3.84689Z" fill="white"/></svg>