<svg width="1333" height="310" fill="none" xmlns="http://www.w3.org/2000/svg"><path opacity="0.3" d="M1 211.321L3.61393 214.843C9.04175 222.156 19.7859 222.718 25.9481 216.013V216.013C28.6958 213.023 32.5707 211.321 36.6315 211.321H36.7885C42.3394 211.321 47.4279 214.414 49.9847 219.341L53.2644 225.661C55.7038 230.362 61.4495 232.256 66.2063 229.927V229.927C67.541 229.274 69.0073 228.934 70.4932 228.934H75.4117C82.8631 228.934 89.3197 223.771 90.9577 216.502L91.4885 214.146C92.8161 208.254 98.0493 204.069 104.089 204.069V204.069C109.169 204.069 113.777 207.047 115.865 211.678L116.674 213.473C117.574 215.471 118.876 217.262 120.498 218.734L127.875 225.431C130.405 227.728 133.483 229.339 136.813 230.108L146.086 232.252C151.247 233.445 155.724 236.637 158.535 241.127L167.09 254.795C168.81 257.544 171.174 259.833 173.976 261.466L189.945 270.767C193.001 272.547 196.475 273.485 200.012 273.485H201.589C207.762 273.485 213.559 270.518 217.17 265.511V265.511C225.136 254.463 241.752 254.985 249.008 266.512L260.009 283.988C260.812 285.263 261.845 286.378 263.057 287.274V287.274C268.291 291.145 275.648 290.189 279.718 285.109L281.787 282.527C283.799 280.015 286.542 278.189 289.636 277.301L290.633 277.015C298.056 274.885 306.028 277.508 310.736 283.63L316.983 291.752C320.561 296.403 326.523 298.539 332.24 297.218L336.624 296.204C341.549 295.066 346.544 297.803 348.235 302.566V302.566C350.644 309.351 359.242 311.406 364.459 306.445L365.803 305.167C366.223 304.768 366.611 304.337 366.963 303.877L379.033 288.157C380.173 286.672 381.1 285.034 381.784 283.291L390.087 262.157C390.913 260.055 392.09 258.107 393.567 256.397L403.07 245.395C404.776 243.419 406.079 241.13 406.905 238.654L409.046 232.24C410.849 226.841 414.867 222.465 420.094 220.21L422.614 219.123C426.558 217.421 429.85 214.494 432.001 210.775L444.874 188.528L462.306 164.051C463.947 161.746 466.059 159.816 468.501 158.387L485.68 148.343C487.099 147.512 488.342 146.412 489.338 145.103V145.103C494.465 138.368 504.647 138.519 509.572 145.403L515.222 153.302L529.357 168.985C532.28 172.228 533.898 176.439 533.898 180.806V183.834C533.898 186.827 535.147 189.683 537.344 191.714V191.714C543.346 197.263 553.1 194.333 555.051 186.396L555.567 184.298C556.054 182.316 557.039 180.49 558.428 178.995L576.831 159.177C582.889 152.653 593.217 152.665 599.26 159.202V159.202C600.091 160.1 600.81 161.095 601.403 162.164L607.981 174.023L611.524 179.526C615.136 185.137 621.352 188.528 628.025 188.528V188.528C632.384 188.528 636.619 187.076 640.062 184.403L642.779 182.292C643.65 181.616 644.576 181.012 645.547 180.488L661.676 171.783C665.224 169.867 668.11 166.925 669.957 163.34L678.328 147.085L687.118 133.371C687.896 132.157 688.804 131.03 689.825 130.011L697.032 122.814C699.25 120.599 702.631 120.037 705.446 121.415L707.1 122.224C709.507 123.403 712.415 122.589 713.861 120.333V120.333C716.47 116.261 722.727 117.554 723.509 122.326L724.803 130.225C724.946 131.099 725.228 131.945 725.637 132.73L730.981 142.992C732.291 145.507 734.891 147.085 737.728 147.085V147.085C740.287 147.085 742.675 148.372 744.082 150.51L749.695 159.04C752.716 163.63 759.471 163.562 762.398 158.911L762.738 158.371C765.791 153.521 773.008 154 775.394 159.211V159.211C777.51 163.835 783.62 164.872 787.145 161.206L789.906 158.334C792.808 155.315 797.293 154.444 801.114 156.156L803.877 157.394C808.275 159.364 813.373 158.973 817.419 156.354L820.62 154.283C821.629 153.63 822.694 153.069 823.804 152.608L832.578 148.957C835.458 147.759 838.697 147.759 841.577 148.957V148.957C847.402 151.381 854.1 148.755 856.726 143.019L860.478 134.823C861.471 132.655 862.843 130.681 864.531 128.996L872.687 120.852C873.845 119.696 874.856 118.402 875.698 117L883.768 103.57L899.311 71.7328C899.739 70.8567 900.238 70.0169 900.802 69.222L903.483 65.4473C909.54 56.9173 922.301 57.2143 927.955 66.0169L931.773 71.9614C933.835 75.1713 938.035 76.2289 941.371 74.3782V74.3782C945.168 72.272 949.952 73.9606 951.585 77.9835L957.942 93.6428C961.513 102.438 970.775 107.512 980.11 105.786L987.731 104.377C990.469 103.87 992.798 102.081 993.991 99.565L994.896 97.6568C997.587 91.9838 1005.6 91.8191 1008.52 97.3767V97.3767C1011.22 102.499 1018.41 102.867 1021.61 98.0462L1027.03 89.8905C1027.39 89.3413 1027.8 88.8139 1028.24 88.3241V88.3241C1035.9 79.8343 1049.84 81.6516 1054.83 91.934L1057.46 97.3541L1061.56 106.456C1063.72 111.246 1067.68 114.994 1072.57 116.891L1082.8 120.849C1088.43 123.027 1092.77 127.629 1094.62 133.372L1098.04 143.999C1099.93 149.861 1104.44 154.505 1110.25 156.555V156.555C1117.21 159.011 1124.96 157.378 1130.33 152.322L1134.5 148.4C1135.43 147.525 1136.27 146.564 1137.02 145.529L1145.56 133.69C1146.58 132.266 1147.42 130.712 1148.04 129.07L1154.45 112.122C1156.23 107.421 1161.51 105.087 1166.19 106.938V106.938C1169.04 108.068 1172.27 107.669 1174.76 105.88L1194.66 91.5736C1196.65 90.1459 1199.39 90.4406 1201.03 92.2579V92.2579C1203.26 94.7339 1207.28 94.2376 1208.84 91.2926L1221.32 67.7412C1222.82 64.9217 1226.59 64.307 1228.9 66.5062V66.5062C1231.06 68.5551 1234.54 68.1839 1236.21 65.7264L1238.8 61.923C1241.47 58.0043 1246.78 56.9322 1250.76 59.5082L1252.9 60.8941C1254.14 61.701 1255.14 62.836 1255.79 64.1745V64.1745C1258.57 69.9658 1266.68 70.3429 1269.99 64.835L1274.52 57.2889C1276.88 53.3647 1282.72 53.8797 1284.36 58.1558V58.1558C1286.1 62.7079 1292.46 62.9051 1294.48 58.4696L1304.61 36.2262L1310.68 24.6752C1312.31 21.5846 1315.51 19.6492 1319 19.6492V19.6492C1323.05 19.6492 1326.64 17.0618 1327.92 13.2251L1332 1" stroke="#F99924"/></svg>