<svg width="92" height="38" fill="none" xmlns="http://www.w3.org/2000/svg"><path d="M18.3481 0L0 7.22343V30.692L18.3481 37.9002L36.681 30.692V7.22343L18.3481 0ZM14.0506 21.6703V16.2451L18.3481 14.5078L22.6456 16.2451V21.6703L18.3481 23.4076L14.0506 21.6703Z" fill="url(#paint0_linear)"/><path d="M18.3481 0L36.681 7.22343L18.3329 14.5078L0 7.22343L18.3481 0Z" fill="black" fill-opacity="0.18"/><path d="M18.3481 23.4077L36.681 30.6921L18.3329 37.9003L0 30.6921L18.3481 23.4077Z" fill="white" fill-opacity="0.25"/><path d="M44.956 10.1342H42.5635V7.3606H50.7013V10.1342H48.3087V17.4338H44.956V10.1342Z" fill="url(#paint1_linear)"/><path d="M51.9512 7.3606H55.2886V10.9571H58.1536V7.3606H61.5062V17.4338H58.1536V13.7154H55.2886V17.4338H51.9512V7.3606Z" fill="url(#paint2_linear)"/><path d="M63.5176 7.3606H70.9086V10.1342H66.7483V11.0485H70.741V13.7002H66.7483V14.6755H71.061V17.4338H63.5176V7.3606Z" fill="url(#paint3_linear)"/><path d="M42.5635 20.2073V30.2805H46.6629C48.6592 30.2805 51.0213 29.6404 51.0213 27.385C51.0213 26.0592 50.3355 25.3582 49.0859 25.0229V24.9467C49.9698 24.6267 50.6098 23.8495 50.6098 22.8284C50.6098 20.7864 48.6744 20.2073 46.9981 20.2073H42.5635ZM45.7028 22.7218H46.5562C47.1962 22.7218 47.3639 23.118 47.3639 23.438C47.3639 23.7276 47.181 24.1543 46.5257 24.1543H45.7028V22.7218ZM45.7028 26.2116H46.5409C47.3181 26.2116 47.7144 26.3792 47.7144 26.9583C47.7144 27.4307 47.3639 27.705 46.6781 27.705H45.7028V26.2116Z" fill="url(#paint4_linear)"/><path d="M52.5303 20.2073V30.2805H59.4642V27.446H55.8677V20.2225H52.5303V20.2073Z" fill="url(#paint5_linear)"/><path d="M59.7383 25.2362C59.7383 28.4517 62.1309 30.5243 65.3006 30.5243C68.6838 30.5243 70.863 28.4517 70.863 25.2362C70.863 21.9445 68.4552 19.9939 65.3006 19.9939C62.1309 19.9939 59.7383 21.9293 59.7383 25.2362ZM63.2433 25.2362C63.2433 23.8037 64.051 22.9046 65.3006 22.9046C66.6112 22.9046 67.3732 23.8647 67.3732 25.2362C67.3732 26.6992 66.5807 27.5983 65.3006 27.5983C64.0053 27.5983 63.2433 26.6382 63.2433 25.2362Z" fill="url(#paint6_linear)"/><path d="M71.8994 25.2819C71.8994 28.5279 73.9415 30.5243 77.2027 30.5243C78.178 30.5243 79.0009 30.4328 80.0372 30.0976V27.2021C79.6715 27.4154 79.0467 27.5831 77.9799 27.5831C76.4255 27.5831 75.4197 26.9278 75.4197 25.2667C75.4197 24.139 75.9836 22.9198 77.7361 22.9198C78.7723 22.9198 79.3972 23.118 80.0524 23.4075V20.4816C79.7172 20.2834 78.7266 19.9939 77.477 19.9939C74.0482 19.9939 71.8994 22.2341 71.8994 25.2819Z" fill="url(#paint7_linear)"/><path d="M87.3212 20.2073L85.02 24.7486V20.2225H81.6826V30.2957H85.02V25.5563H85.2486L87.6412 30.2957H91.4358L88.2508 24.6572L91.1005 20.2225L87.3212 20.2073Z" fill="url(#paint8_linear)"/><defs><linearGradient id="paint0_linear" x1="22.8855" y1="34.0325" x2="14.7774" y2="8.84068" gradientUnits="userSpaceOnUse"><stop stop-color="#00BCBA"/><stop offset="1" stop-color="#2674DD"/></linearGradient><linearGradient id="paint1_linear" x1="51.5822" y1="25.1601" x2="40.7293" y2="1.63137" gradientUnits="userSpaceOnUse"><stop stop-color="#00BCBA"/><stop offset="1" stop-color="#2674DD"/></linearGradient><linearGradient id="paint2_linear" x1="59.8423" y1="22.6965" x2="51.5264" y2="-2.09742" gradientUnits="userSpaceOnUse"><stop stop-color="#00BCBA"/><stop offset="1" stop-color="#2674DD"/></linearGradient><linearGradient id="paint3_linear" x1="69.4588" y1="19.8285" x2="57.3026" y2="-2.7432" gradientUnits="userSpaceOnUse"><stop stop-color="#00BCBA"/><stop offset="1" stop-color="#2674DD"/></linearGradient><linearGradient id="paint4_linear" x1="46.6603" y1="26.6277" x2="36.4304" y2="2.72251" gradientUnits="userSpaceOnUse"><stop stop-color="#00BCBA"/><stop offset="1" stop-color="#2674DD"/></linearGradient><linearGradient id="paint5_linear" x1="54.6105" y1="24.2564" x2="41.0786" y2="3.01262" gradientUnits="userSpaceOnUse"><stop stop-color="#00BCBA"/><stop offset="1" stop-color="#2674DD"/></linearGradient><linearGradient id="paint6_linear" x1="64.1488" y1="21.4115" x2="57.3407" y2="-3.84027" gradientUnits="userSpaceOnUse"><stop stop-color="#00BCBA"/><stop offset="1" stop-color="#2674DD"/></linearGradient><linearGradient id="paint7_linear" x1="74.445" y1="18.3421" x2="62.8163" y2="-4.64702" gradientUnits="userSpaceOnUse"><stop stop-color="#00BCBA"/><stop offset="1" stop-color="#2674DD"/></linearGradient><linearGradient id="paint8_linear" x1="83.4909" y1="15.6438" x2="75.4668" y2="-9.25445" gradientUnits="userSpaceOnUse"><stop stop-color="#00BCBA"/><stop offset="1" stop-color="#2674DD"/></linearGradient></defs></svg>