<svg width="22" height="22" fill="none" xmlns="http://www.w3.org/2000/svg"><path d="M6.21347 15.4104C6.26458 15.5426 6.3148 15.6748 6.36411 15.8072C6.4845 16.087 6.63057 16.355 6.80044 16.6078C6.55111 15.9014 6.28536 15.2009 6.0032 14.5063C6.045 14.8134 6.11532 15.116 6.21326 15.4101L6.21347 15.4104ZM5.9951 14.4555C6.31674 15.2168 6.6204 15.9856 6.9061 16.7618C6.98921 16.8744 7.07689 16.9843 7.16914 17.0916C6.79992 16.0564 6.39784 15.0336 5.96289 14.0232C5.9685 14.1678 5.98034 14.3115 5.99811 14.4555" fill="#FFB11A"/><path fill-rule="evenodd" clip-rule="evenodd" d="M5.962 13.9994C6.44851 15.0824 6.88765 16.1599 7.28139 17.2127C7.35494 17.2921 7.43088 17.3689 7.50921 17.4433C7.04109 16.1657 6.52528 14.9071 5.96179 13.6675C5.95805 13.7778 5.95805 13.8881 5.96179 13.9994" fill="#FFB11A"/><path fill-rule="evenodd" clip-rule="evenodd" d="M5.96289 13.6513C6.56545 14.9292 7.11952 16.2284 7.62511 17.549C7.69368 17.6101 7.76339 17.669 7.83424 17.7256C7.27816 16.2482 6.6603 14.7959 5.98066 13.3687C5.97193 13.4624 5.96601 13.5559 5.96289 13.6492" fill="#FFB11A"/><path fill-rule="evenodd" clip-rule="evenodd" d="M5.98203 13.3604C6.70302 14.819 7.36167 16.3058 7.95799 17.8209C8.02282 17.8691 8.08837 17.9155 8.15466 17.9599C7.51491 16.3121 6.80057 14.6966 6.01164 13.1135C5.99948 13.1955 5.99013 13.2781 5.98047 13.361" fill="#FFB11A"/><path fill-rule="evenodd" clip-rule="evenodd" d="M6.01234 13.1075C6.88501 14.7921 7.63955 16.4645 8.28501 18.045C8.34735 18.0836 8.40968 18.1209 8.47201 18.1568C7.7502 16.3617 6.94267 14.6044 6.04943 12.885C6.03478 12.9589 6.02232 13.0334 6.01172 13.1075" fill="#FFB11A"/><path fill-rule="evenodd" clip-rule="evenodd" d="M6.05078 12.881C6.98827 14.6228 7.84172 16.4061 8.61112 18.2307C8.67065 18.2619 8.73018 18.2915 8.79064 18.3202C7.98736 16.3949 7.08769 14.5113 6.09504 12.6765C6.07883 12.7445 6.06387 12.8124 6.0514 12.881" fill="#FFB11A"/><path fill-rule="evenodd" clip-rule="evenodd" d="M6.0957 12.6739C7.13522 14.5308 8.08206 16.435 8.93623 18.3864C8.99379 18.4114 9.05197 18.4352 9.11077 18.4578C8.22531 16.4167 7.23532 14.4225 6.14474 12.4832C6.12742 12.5455 6.11111 12.6088 6.09581 12.673" fill="#FFB11A"/><path fill-rule="evenodd" clip-rule="evenodd" d="M6.14453 12.4828C7.28295 14.4407 8.32183 16.4516 9.2612 18.5154C9.3166 18.5347 9.3726 18.553 9.42919 18.5703C8.46143 16.4274 7.38275 14.3364 6.19751 12.3057C6.1785 12.3652 6.16115 12.4244 6.14453 12.4836" fill="#FFB11A"/><path fill-rule="evenodd" clip-rule="evenodd" d="M6.19727 12.3045C7.43188 14.3509 8.56329 16.4578 9.58726 18.6173C9.64149 18.6323 9.69635 18.6457 9.75151 18.6589C8.69969 16.4258 7.53248 14.2489 6.25461 12.137C6.23435 12.1924 6.21534 12.2479 6.19747 12.304" fill="#FFB11A"/><path fill-rule="evenodd" clip-rule="evenodd" d="M9.91618 18.6947C9.96937 18.7053 10.0227 18.7152 10.0761 18.7243C8.93973 16.4144 7.68556 14.1643 6.3185 11.9829L6.31539 11.9783C6.29461 12.0306 6.27487 12.0836 6.25586 12.1366C7.58397 14.2603 8.80394 16.4461 9.91576 18.6941" fill="#FFB11A"/><path d="M10.2446 18.7489C10.2965 18.7561 10.3485 18.7626 10.4004 18.7673C9.17712 16.39 7.83527 14.0755 6.3799 11.8327L6.37679 11.8284C6.35497 11.878 6.33419 11.928 6.31445 11.9783L6.31726 11.983C7.73534 14.1729 9.04434 16.4282 10.2443 18.7486L10.2446 18.7489Z" fill="#FFB11A"/><path d="M10.5741 18.7814C10.6243 18.7848 10.6751 18.7866 10.7248 18.7889C9.36717 16.2737 7.93101 13.891 6.44778 11.6907L6.44404 11.6851C6.4216 11.7324 6.39979 11.7804 6.37891 11.8284L6.3814 11.8328C7.888 14.0814 9.28541 16.3981 10.5736 18.783" fill="#FFB11A"/><path d="M10.9031 18.7918C10.952 18.7918 11.0009 18.7902 11.0502 18.7887C9.60125 16.2271 8.07782 13.7968 6.51326 11.5511C6.51315 11.5502 6.51315 11.5493 6.51326 11.5483C6.48988 11.5935 6.46713 11.6393 6.44531 11.6852L6.44905 11.6908C8.20997 14.2231 9.70877 16.6826 10.9059 18.7916" fill="#FFB11A"/><path d="M11.2312 18.7798C11.2789 18.7761 11.3269 18.7723 11.3749 18.7673C9.88509 16.2488 8.28656 13.7998 6.57925 11.4204C6.55618 11.4628 6.53343 11.5055 6.51172 11.5482V11.5508C8.18994 13.8908 9.76313 16.3004 11.2313 18.7796" fill="#FFB11A"/><path fill-rule="evenodd" clip-rule="evenodd" d="M11.6971 18.7244C10.118 16.1793 8.43634 13.7025 6.65216 11.2939C6.62816 11.3345 6.60478 11.3756 6.58203 11.4167C8.33921 13.7912 9.99769 16.2343 11.5575 18.7461C11.6039 18.7396 11.651 18.7327 11.6977 18.7246" fill="#FFB11A"/><path fill-rule="evenodd" clip-rule="evenodd" d="M12.016 18.6601C10.3486 16.0982 8.58559 13.6024 6.72702 11.1726C6.70229 11.2119 6.67805 11.2514 6.6543 11.291C8.48835 13.6913 10.2306 16.1579 11.8809 18.6909C11.9261 18.6813 11.9713 18.6713 12.016 18.6598" fill="#FFB11A"/><path fill-rule="evenodd" clip-rule="evenodd" d="M12.3326 18.575C10.5762 16.0055 8.73336 13.4986 6.80394 11.0542C6.77838 11.0918 6.75324 11.13 6.72852 11.1689C8.88556 13.8954 10.749 16.4918 12.2004 18.6125L12.3326 18.5733" fill="#FFB11A"/><path fill-rule="evenodd" clip-rule="evenodd" d="M12.5132 18.5145C12.5556 18.4999 12.5976 18.4834 12.6397 18.4684L12.5618 18.3593C10.7435 15.8303 8.85036 13.3578 6.88229 10.9417C6.85611 10.978 6.83024 11.015 6.80469 11.0526C8.78294 13.4817 10.6858 15.9692 12.5134 18.5151" fill="#FFB11A"/><path fill-rule="evenodd" clip-rule="evenodd" d="M12.8214 18.3952C12.8625 18.3777 12.9027 18.3594 12.9439 18.3413L12.7865 18.1328C10.9084 15.6494 8.96753 13.2155 6.96393 10.8311C6.93713 10.8666 6.91063 10.9027 6.88477 10.9389C8.92867 13.3718 10.9075 15.8572 12.8214 18.3952Z" fill="#FFB11A"/><path fill-rule="evenodd" clip-rule="evenodd" d="M13.2337 18.1945C11.4706 15.9726 9.36499 13.4 7.04588 10.7249C7.01845 10.7594 6.99134 10.7944 6.96484 10.8296C9.0688 13.2606 11.1194 15.7362 13.1165 18.2566C13.1555 18.2366 13.1947 18.2164 13.2337 18.1943" fill="#FFB11A"/><path d="M13.5178 18.0264C11.4323 15.5219 9.30384 13.0535 7.13235 10.6213C7.1043 10.655 7.07625 10.6889 7.04883 10.7233C9.20972 13.1445 11.329 15.6023 13.4068 18.0967C13.4444 18.074 13.4815 18.051 13.5181 18.0275L13.5178 18.0264ZM13.7924 17.8405C11.6315 15.3737 9.44035 12.9339 7.219 10.521C7.1897 10.5521 7.16134 10.5867 7.13329 10.6204C9.56647 13.2604 11.8049 15.7709 13.6858 17.9158C13.7213 17.8915 13.7568 17.8662 13.792 17.8404L13.7924 17.8405ZM14.0526 17.634C12.1103 15.5266 9.80209 13.0474 7.30876 10.423C7.27915 10.4542 7.24954 10.4872 7.22087 10.5193C9.70901 13.1373 12.0127 15.6123 13.9529 17.717C13.9868 17.6901 14.0204 17.6627 14.0535 17.6338L14.0526 17.634ZM14.3004 17.4105C12.0071 15.0431 9.70797 12.6817 7.40288 10.3263C7.37171 10.3575 7.34055 10.3886 7.3125 10.4198C9.84739 13.0097 12.2116 15.4398 14.2066 17.4987C14.2377 17.4697 14.2689 17.4395 14.3001 17.4092L14.3004 17.4105ZM14.5316 17.1703C12.4859 15.1632 10.0704 12.7842 7.49638 10.2332C7.46521 10.2644 7.43405 10.2937 7.40288 10.3245C9.97974 12.8777 12.3958 15.2576 14.4437 17.266C14.4749 17.2348 14.503 17.2036 14.5326 17.1706L14.5316 17.1703ZM14.7476 16.9161C12.3465 14.6757 9.96208 12.4182 7.59424 10.1434C7.56308 10.1724 7.53191 10.202 7.49887 10.2318C10.1072 12.7404 12.5709 15.0626 14.6653 17.0177C14.6934 16.984 14.7208 16.9501 14.7476 16.9164V16.9161ZM14.9458 16.6484C12.5013 14.4805 10.084 12.2827 7.69398 10.0547L7.59611 10.1411C9.99332 12.3758 12.418 14.5806 14.8701 16.7555L14.9455 16.6486L14.9458 16.6484ZM15.1254 16.3681C12.6464 14.277 10.2037 12.1441 7.79745 9.96954C7.76348 9.99634 7.72992 10.025 7.69678 10.0534C10.113 12.2375 12.5665 14.3797 15.0573 16.4799C15.0804 16.4429 15.1034 16.4058 15.1256 16.3681H15.1254ZM15.2851 16.076C12.7804 14.0658 10.3199 12.002 7.90383 9.88477C7.86955 9.91188 7.83433 9.93868 7.80036 9.96673C10.2292 12.0958 12.7036 14.1712 15.2235 16.1929C15.2443 16.1539 15.2651 16.1147 15.2859 16.0754" fill="#FFB11A"/><path fill-rule="evenodd" clip-rule="evenodd" d="M15.3681 15.9012C15.3865 15.8607 15.4045 15.8195 15.4217 15.7784L15.2391 15.6391C12.7804 13.7564 10.3712 11.8116 8.01151 9.80469C7.97515 9.83066 7.93952 9.85736 7.9043 9.88416C10.3384 11.9555 12.8263 13.9612 15.3681 15.9012Z" fill="#FFB11A"/><path fill-rule="evenodd" clip-rule="evenodd" d="M15.4956 15.5965C15.5118 15.5544 15.5268 15.5124 15.5414 15.4694C15.5149 15.4503 15.4885 15.4316 15.4623 15.4117C12.9608 13.5902 10.5154 11.6947 8.12595 9.72534C8.08897 9.7509 8.05219 9.77677 8.01562 9.80295C10.4142 11.782 12.8716 13.6875 15.3878 15.5192L15.4956 15.5981" fill="#FFB11A"/><path fill-rule="evenodd" clip-rule="evenodd" d="M15.6384 15.1537C13.5306 13.6936 10.951 11.8189 8.2404 9.64844C8.20269 9.67275 8.16466 9.69799 8.12695 9.72386C10.5532 11.6635 13.0443 13.5174 15.6004 15.2855C15.6138 15.2419 15.6264 15.198 15.6381 15.1537" fill="#FFB11A"/><path fill-rule="evenodd" clip-rule="evenodd" d="M15.7154 14.8335C13.1986 13.1729 10.7473 11.4196 8.36164 9.57349C8.32206 9.59655 8.28279 9.62148 8.24414 9.64621C10.6558 11.5147 13.1362 13.2889 15.6852 14.969C15.6961 14.9235 15.706 14.8783 15.7163 14.8324" fill="#FFB11A"/><path fill-rule="evenodd" clip-rule="evenodd" d="M15.7707 14.5069C13.2758 12.9377 10.848 11.2688 8.48741 9.50024C8.44585 9.52331 8.40513 9.54699 8.36523 9.5713C11.0362 11.5812 13.6068 13.2995 15.7499 14.6463C15.7573 14.5998 15.7645 14.5528 15.7706 14.506" fill="#FFB11A"/><path fill-rule="evenodd" clip-rule="evenodd" d="M15.8041 14.1789C13.3417 12.7016 10.9471 11.1192 8.6202 9.43164H8.61739C8.5747 9.45377 8.53231 9.47683 8.49023 9.50021C10.852 11.2142 13.286 12.8218 15.7923 14.3233C15.7975 14.2749 15.8013 14.2266 15.8047 14.1783" fill="#FFB11A"/><path fill-rule="evenodd" clip-rule="evenodd" d="M15.8132 13.9962L15.8156 13.8481C13.3959 12.4624 11.0434 10.9682 8.75827 9.36531L8.75307 9.36157C8.70716 9.3838 8.66186 9.40656 8.61719 9.42983H8.61999C10.8515 11.0044 13.2666 12.5375 15.8133 13.9954" fill="#FFB11A"/><path d="M15.8138 13.669C15.8119 13.6182 15.8094 13.5674 15.806 13.5166C13.4373 12.2205 11.1339 10.8134 8.89571 9.29541C8.84834 9.31619 8.80221 9.33842 8.75391 9.36117L8.75952 9.36491C10.9464 10.8575 13.3142 12.3021 15.8132 13.669" fill="#FFB11A"/><path fill-rule="evenodd" clip-rule="evenodd" d="M15.7922 13.3423C15.787 13.2899 15.7813 13.2373 15.7744 13.1849C13.4696 11.9799 11.228 10.6633 9.04982 9.23505L9.04515 9.23193C8.99528 9.25271 8.94573 9.27349 8.89648 9.29427L8.90085 9.29676C11.1281 10.7609 13.4282 12.1112 15.7922 13.3423Z" fill="#FFB11A"/><path d="M15.7489 13.0155C15.7401 12.9615 15.7305 12.9078 15.7199 12.8545C13.4872 11.7364 11.312 10.5073 9.20231 9.17163C9.14933 9.19095 9.09697 9.2109 9.04492 9.23209L9.0496 9.23521C11.2167 10.6098 13.4533 11.8716 15.7504 13.0157" fill="#FFB11A"/><path fill-rule="evenodd" clip-rule="evenodd" d="M15.6419 12.5253C13.4942 11.4943 11.3999 10.3557 9.36698 9.11377C9.3115 9.13216 9.25603 9.15117 9.20117 9.17143C11.2992 10.4566 13.4631 11.6311 15.6838 12.6901C15.6707 12.6347 15.6569 12.5796 15.6423 12.5246" fill="#FFB11A"/><path fill-rule="evenodd" clip-rule="evenodd" d="M15.5428 12.1958C13.4926 11.2515 11.491 10.2049 9.54575 9.05981C9.48653 9.07664 9.42701 9.09441 9.36914 9.11373C11.3866 10.3056 13.4651 11.3908 15.5961 12.365C15.5787 12.3083 15.5606 12.2519 15.5413 12.1958" fill="#FFB11A"/><path fill-rule="evenodd" clip-rule="evenodd" d="M15.415 11.8679C13.4762 11.0095 11.5832 10.0571 9.73583 9.0105C9.67349 9.02577 9.61116 9.04166 9.54883 9.05974C11.4749 10.1564 13.4566 11.1526 15.4858 12.0443C15.4631 11.985 15.4394 11.9265 15.4147 11.8685" fill="#FFB11A"/><path fill-rule="evenodd" clip-rule="evenodd" d="M15.2588 11.5413C13.446 10.7678 11.6734 9.90902 9.94086 8.96509C9.87292 8.97839 9.80539 8.99314 9.73828 9.00934C11.5613 10.0074 13.4337 10.9124 15.3483 11.7208C15.3199 11.6585 15.29 11.5999 15.2591 11.5404" fill="#FFB11A"/><path fill-rule="evenodd" clip-rule="evenodd" d="M15.076 11.2135C13.4066 10.526 11.771 9.76365 10.1695 8.92651C10.095 8.9369 10.0211 8.9502 9.94727 8.96423C11.6531 9.86182 13.3997 10.6747 15.187 11.4027C15.1515 11.3389 15.1145 11.2759 15.076 11.2135Z" fill="#FFB11A"/><path fill-rule="evenodd" clip-rule="evenodd" d="M14.8519 10.8844C13.3469 10.2845 11.8694 9.6218 10.4194 8.89624C10.3373 8.90414 10.2555 8.91401 10.1738 8.92585C11.7453 9.71852 13.3508 10.4373 14.9903 11.0823C14.9459 11.0154 14.8997 10.9494 14.8519 10.8844Z" fill="#FFB11A"/><path fill-rule="evenodd" clip-rule="evenodd" d="M14.5819 10.55C13.27 10.0415 11.9788 9.48377 10.7082 8.87671C10.6147 8.88045 10.5212 8.88637 10.4277 8.8951C11.8437 9.57806 13.2869 10.1995 14.7571 10.7595C14.7006 10.6878 14.6422 10.6178 14.5819 10.5494" fill="#FFB11A"/><path fill-rule="evenodd" clip-rule="evenodd" d="M14.3727 10.3256C14.3315 10.2844 14.2896 10.2442 14.248 10.2043C13.1692 9.79607 12.1045 9.3534 11.0537 8.87634C10.944 8.8726 10.8343 8.8726 10.7246 8.87634C11.9551 9.44253 13.2059 9.96198 14.4771 10.4347C14.4432 10.3983 14.4087 10.3624 14.3736 10.3268" fill="#FFB11A"/><path d="M13.798 9.8293C13.0274 9.54187 12.2637 9.23602 11.507 8.91175C11.3644 8.89367 11.2215 8.88183 11.0781 8.87622C12.0811 9.31546 13.0971 9.72208 14.1262 10.0961C14.0209 10.003 13.9117 9.91459 13.7987 9.83086L13.798 9.8293ZM12.8503 9.28347C12.7187 9.23339 12.5871 9.18269 12.4555 9.13137C12.1633 9.03292 11.8624 8.96238 11.5568 8.92069C12.2471 9.20368 12.9431 9.4713 13.645 9.72354C13.3941 9.55239 13.1277 9.40505 12.8493 9.28347" fill="#FFB11A"/><path d="M15.5607 6.58958C15.51 6.45743 15.4598 6.32518 15.4101 6.19283C15.2897 5.91301 15.1437 5.64498 14.9738 5.39215C15.2244 6.0986 15.4902 6.79912 15.7713 7.49372C15.7298 7.18661 15.6598 6.88403 15.5622 6.58989L15.5607 6.58958ZM15.7779 7.54452C15.4562 6.78302 15.1527 6.01424 14.8672 5.23819C14.7841 5.12454 14.6962 5.01462 14.6035 4.90845C14.9746 5.94318 15.3779 6.96566 15.8134 7.97587C15.8078 7.83167 15.7961 7.68779 15.7782 7.54421" fill="#FFC556"/><path fill-rule="evenodd" clip-rule="evenodd" d="M15.8137 8.00045C15.3397 6.94369 14.8998 5.8726 14.4938 4.78716C14.4202 4.70752 14.3442 4.63043 14.2656 4.55591C14.734 5.83333 15.2499 7.09211 15.8136 8.33227C15.817 8.22163 15.817 8.1113 15.8136 8.00066" fill="#FFC556"/><path fill-rule="evenodd" clip-rule="evenodd" d="M15.8133 8.3479C15.2107 7.07006 14.6563 5.77083 14.1499 4.45019C14.0824 4.38973 14.0129 4.33114 13.9414 4.27441C14.4978 5.75171 15.1158 7.20335 15.7952 8.62933C15.8036 8.53583 15.8092 8.44233 15.813 8.34883" fill="#FFC556"/><path fill-rule="evenodd" clip-rule="evenodd" d="M15.7937 8.63906C15.0729 7.18088 14.4141 5.69412 13.8174 4.1788C13.7529 4.1308 13.6876 4.0853 13.6211 4.03979C14.2613 5.68789 14.9758 7.30346 15.7647 8.88652C15.7766 8.80393 15.7862 8.72165 15.7943 8.63719" fill="#FFC556"/><path fill-rule="evenodd" clip-rule="evenodd" d="M15.7624 8.89171C14.9313 7.28101 14.1737 5.6352 13.4897 3.95428C13.4274 3.91595 13.3651 3.87855 13.3027 3.84302C14.025 5.63822 14.8328 7.3955 15.7263 9.11486C15.7406 9.04068 15.7532 8.96623 15.764 8.8915" fill="#FFC556"/><path fill-rule="evenodd" clip-rule="evenodd" d="M15.7239 9.11889C14.7864 7.37668 13.9331 5.59342 13.1639 3.76914C13.1047 3.73797 13.0448 3.70815 12.9844 3.67969C13.7873 5.60542 14.6869 7.48942 15.6798 9.32449C15.696 9.25696 15.7109 9.18943 15.724 9.12066" fill="#FFC556"/><path fill-rule="evenodd" clip-rule="evenodd" d="M15.6808 9.32593C14.6419 7.46902 13.6951 5.56453 12.8405 3.61245C12.7829 3.58721 12.7246 3.56352 12.666 3.54077C13.5515 5.58182 14.5415 7.5759 15.632 9.51511C15.6492 9.45278 15.666 9.39044 15.681 9.32593" fill="#FFC556"/><path fill-rule="evenodd" clip-rule="evenodd" d="M15.6304 9.51667C14.4921 7.5592 13.4533 5.54853 12.5137 3.48468C12.4583 3.46514 12.4023 3.44665 12.3457 3.4292C13.3137 5.57191 14.3923 7.66289 15.5772 9.6937C15.5959 9.63417 15.6139 9.57495 15.6305 9.51574" fill="#FFC556"/><path fill-rule="evenodd" clip-rule="evenodd" d="M15.576 9.69629C14.3414 7.64948 13.2101 5.54212 12.1864 3.38213C12.1315 3.36717 12.0766 3.35346 12.0215 3.34058C13.0734 5.57365 14.2406 7.75056 15.5184 9.86251C15.5392 9.80641 15.5577 9.75094 15.576 9.69546" fill="#FFC556"/><path fill-rule="evenodd" clip-rule="evenodd" d="M11.8588 3.30462C11.8058 3.29423 11.7526 3.28457 11.6992 3.27563C12.8354 5.58535 14.0895 7.83522 15.4564 10.0164L15.4592 10.0216C15.4807 9.96888 15.5 9.9159 15.519 9.86261C14.1911 7.73898 12.971 5.5534 11.8588 3.30587" fill="#FFC556"/><path fill-rule="evenodd" clip-rule="evenodd" d="M11.5308 3.25032C11.4789 3.24315 11.4269 3.23723 11.375 3.23193C12.5983 5.60928 13.9401 7.92373 15.3955 10.1665L15.3983 10.1717C15.4198 10.1215 15.4413 10.072 15.4606 10.0215L15.4578 10.0171C14.0402 7.82562 12.7312 5.57002 11.5308 3.25032Z" fill="#FFC556"/><path fill-rule="evenodd" clip-rule="evenodd" d="M11.2003 3.21779C11.1498 3.21468 11.0993 3.2126 11.0488 3.21094C12.4074 5.72609 13.8426 8.10753 15.3265 10.3088L15.3299 10.314C15.3529 10.2667 15.3744 10.2205 15.3956 10.1713L15.3928 10.1661C13.8862 7.91793 12.4887 5.60184 11.2003 3.21779Z" fill="#FFC556"/><path d="M10.8723 3.20825C10.8231 3.20825 10.7736 3.20825 10.7246 3.21106C12.1742 5.77296 13.6967 8.20292 15.2615 10.4489L15.2637 10.4511C15.2868 10.4059 15.3095 10.3601 15.3313 10.3143L15.3278 10.3091C13.5664 7.77697 12.0679 5.3172 10.8716 3.20825H10.8723Z" fill="#FFC556"/><path d="M10.5444 3.21948C10.4964 3.22291 10.4484 3.22727 10.4004 3.23195C11.8902 5.75105 13.4887 8.20023 15.196 10.5795C15.2191 10.5367 15.2417 10.4939 15.2639 10.4511L15.2618 10.4489C13.5856 8.10849 12.0134 5.69869 10.545 3.21948" fill="#FFC556"/><path fill-rule="evenodd" clip-rule="evenodd" d="M10.0786 3.27503C11.6578 5.8201 13.3393 8.29692 15.1233 10.7055C15.1476 10.6653 15.1713 10.6241 15.1937 10.5827C13.4365 8.2084 11.778 5.76556 10.2181 3.25415C10.1713 3.26038 10.1246 3.26755 10.0781 3.27493" fill="#FFC556"/><path fill-rule="evenodd" clip-rule="evenodd" d="M9.75781 3.33918C11.4252 5.90149 13.1882 8.39753 15.0468 10.8273C15.0724 10.788 15.0967 10.7484 15.1203 10.7088C13.2859 8.30881 11.5437 5.84238 9.8937 3.30957C9.8482 3.31892 9.803 3.32858 9.75781 3.34074" fill="#FFC556"/><path fill-rule="evenodd" clip-rule="evenodd" d="M9.44336 3.42419C10.9054 5.56347 12.7891 8.18863 14.9708 10.9453C14.9963 10.9072 15.0215 10.8689 15.0462 10.8303C13.1382 8.41234 11.3144 5.93106 9.57478 3.38647C9.53083 3.39863 9.4872 3.4111 9.44357 3.42419" fill="#FFC556"/><path fill-rule="evenodd" clip-rule="evenodd" d="M9.25966 3.48462C9.21727 3.49958 9.17489 3.51579 9.13281 3.53106L9.21104 3.63983C10.7223 5.74015 12.6621 8.32761 14.8915 11.0575L14.9685 10.9462C13.0112 8.54293 11.1275 6.08233 9.31732 3.56441L9.25966 3.48462Z" fill="#FFC556"/><path fill-rule="evenodd" clip-rule="evenodd" d="M8.95358 3.60449C8.91275 3.62163 8.87224 3.63971 8.83203 3.65841L8.98786 3.86692C10.8658 6.35027 12.8065 8.78429 14.8101 11.169C14.8369 11.1326 14.8637 11.0973 14.8893 11.0611C12.8461 8.62783 10.8676 6.14229 8.95358 3.60449Z" fill="#FFC556"/><path fill-rule="evenodd" clip-rule="evenodd" d="M8.54102 3.80481C10.3035 6.0273 12.4097 8.60011 14.7282 11.2744C14.7563 11.2398 14.7831 11.2049 14.8096 11.1697C12.7058 8.73918 10.6555 6.26375 8.65851 3.74341C8.61924 3.76335 8.58029 3.78361 8.54133 3.80574" fill="#FFC556"/><path d="M8.2561 3.97269C10.3428 6.47766 12.4719 8.94626 14.6434 11.3785C14.6714 11.3448 14.6995 11.311 14.7269 11.2766C12.566 8.85536 10.4467 6.39776 8.36892 3.90381C8.33121 3.92594 8.29443 3.949 8.25734 3.97269H8.2561ZM7.9837 4.15969C9.86835 6.31112 12.1155 8.82949 14.5561 11.4792L14.6412 11.3805C12.209 8.73963 9.96964 6.22947 8.08904 4.08426C8.0532 4.10889 8.01767 4.13413 7.98245 4.15969H7.9837ZM7.72097 4.36601C9.66296 6.47412 11.9712 8.9527 14.4642 11.5767C14.4954 11.5456 14.5237 11.5144 14.5525 11.4807C12.2906 9.09822 10.0466 6.69901 7.82049 4.28311C7.78652 4.30991 7.75296 4.33796 7.72045 4.36622L7.72097 4.36601ZM7.47298 4.58958C9.76768 6.95638 12.0678 9.31746 14.3733 11.6728C14.4045 11.6417 14.4341 11.6105 14.4637 11.5793C12.16 9.22534 9.86201 6.86547 7.56981 4.49972C7.53864 4.52901 7.50592 4.55893 7.47475 4.58916L7.47298 4.58958ZM7.24318 4.82884C9.28896 6.83597 11.7047 9.2143 14.2784 11.7659C14.3096 11.7347 14.3408 11.7054 14.3719 11.6743C11.7963 9.12173 9.37841 6.74184 7.33201 4.73315L7.24318 4.82884ZM7.02751 5.08336C9.11941 7.03502 11.5778 9.3532 14.1812 11.8562C14.2124 11.8272 14.2454 11.7979 14.2769 11.7679C11.6685 9.25959 9.20512 6.93705 7.1101 4.98197C7.08205 5.01532 7.05462 5.04898 7.02751 5.08326V5.08336ZM6.83012 5.3516C9.27338 7.51893 11.6905 9.7165 14.0816 11.9443L14.1794 11.858C11.782 9.62365 9.35732 7.41899 6.90533 5.24398C6.87978 5.27919 6.85453 5.31503 6.82991 5.35119L6.83012 5.3516ZM6.65039 5.63169C9.13022 7.72276 11.5729 9.8556 13.9783 12.0302L14.0793 11.9464C11.6626 9.762 9.20917 7.6196 6.71896 5.51918C6.69558 5.55689 6.67252 5.59398 6.65039 5.63169Z" fill="#FFC556"/><path fill-rule="evenodd" clip-rule="evenodd" d="M6.49117 5.92372C8.99614 7.93376 11.4564 9.9971 13.8721 12.1137C13.9073 12.0869 13.9422 12.0601 13.9759 12.0321C11.5474 9.90277 9.07291 7.82738 6.55257 5.80591C6.53179 5.84487 6.51101 5.88414 6.49023 5.92372" fill="#FFC556"/><path d="M6.406 6.09863C6.3873 6.13915 6.36964 6.18029 6.35208 6.22143L6.53389 6.36043C8.57281 7.92282 11.0914 9.91935 13.7624 12.1948C13.7982 12.1689 13.8341 12.1418 13.8696 12.115C11.4348 10.0442 8.94671 8.03914 6.40517 6.09988L6.406 6.09863ZM6.2805 6.40407C6.26461 6.44614 6.24933 6.48884 6.23438 6.53123L6.31416 6.58888C8.81622 8.4104 11.2619 10.3059 13.6511 12.2752C13.6879 12.25 13.725 12.2241 13.7617 12.1976C11.3614 10.2181 8.90338 8.31257 6.38761 6.48094L6.27925 6.40188" fill="#FFC556"/><path fill-rule="evenodd" clip-rule="evenodd" d="M6.13672 6.84557C8.24452 8.30635 10.8245 10.1804 13.5348 12.3517L13.6479 12.2763C11.2217 10.3367 8.73082 8.48275 6.17516 6.71436C6.16176 6.75799 6.14919 6.80162 6.13745 6.84557" fill="#FFC556"/><path fill-rule="evenodd" clip-rule="evenodd" d="M6.06046 7.1663C8.57686 8.82582 11.028 10.5787 13.4139 12.425C13.4538 12.4014 13.4931 12.3767 13.5324 12.3518C11.1201 10.4837 8.63919 8.70967 6.08976 7.02979C6.07885 7.07498 6.06898 7.12048 6.05859 7.1663" fill="#FFC556"/><path fill-rule="evenodd" clip-rule="evenodd" d="M6.00453 7.49252C8.49911 9.06207 10.9269 10.7312 13.2879 12.5C13.3287 12.4769 13.3698 12.4532 13.41 12.4289C11.02 10.6354 8.55843 8.94364 6.02541 7.35352C6.01762 7.39995 6.01045 7.44702 6.00391 7.49345" fill="#FFC556"/><path fill-rule="evenodd" clip-rule="evenodd" d="M5.9707 7.82082C8.43329 9.29812 10.828 10.8806 13.1549 12.5681L13.1574 12.5703C13.2001 12.5476 13.2422 12.5251 13.2843 12.5011C10.9229 10.7859 8.48918 9.17771 5.98317 7.67651C5.97798 7.72513 5.97382 7.77313 5.9707 7.82113" fill="#FFC556"/><path fill-rule="evenodd" clip-rule="evenodd" d="M5.96179 8.00338C5.96179 8.05263 5.9593 8.10208 5.95898 8.15142C8.37876 9.53709 10.7311 11.0314 13.0161 12.6342L13.0212 12.6383C13.0671 12.6165 13.1123 12.5934 13.1571 12.5697L13.155 12.5682C10.9231 10.9936 8.50738 9.46188 5.96169 8.00317" fill="#FFC556"/><path d="M5.96094 8.33008C5.96094 8.3815 5.96499 8.43199 5.96842 8.48279C8.33708 9.77829 10.6389 11.1846 12.874 12.7018L12.8784 12.7043C12.9261 12.6828 12.9719 12.6613 13.0205 12.6382L13.0153 12.6348C10.8276 11.1422 8.4605 9.69736 5.96094 8.33008Z" fill="#FFC556"/><path d="M5.98242 8.65747C5.98762 8.70983 5.99364 8.76188 6.00081 8.8133C8.30569 10.0184 10.5472 11.3353 12.7253 12.764L12.73 12.7665C12.7796 12.7468 12.8294 12.7257 12.879 12.7042L12.8746 12.701C10.647 11.2379 8.34691 9.88832 5.98304 8.65747" fill="#FFC556"/><path fill-rule="evenodd" clip-rule="evenodd" d="M6.02531 8.98448C6.03466 9.0384 6.04432 9.09169 6.05647 9.14499C8.2878 10.2632 10.4599 11.4909 12.5728 12.8278C12.6247 12.8091 12.6778 12.7892 12.7286 12.7674L12.7243 12.7649C10.5573 11.3901 8.32071 10.1282 6.02344 8.98438" fill="#FFC556"/><path d="M6.13059 9.47538C8.27802 10.5059 10.372 11.6443 12.4044 12.8863C12.4599 12.8679 12.5157 12.8485 12.5707 12.828C10.4726 11.5429 8.30871 10.3685 6.08789 9.30957C6.10129 9.36505 6.11469 9.4199 6.12997 9.47475" fill="#FFC556"/><path fill-rule="evenodd" clip-rule="evenodd" d="M6.2329 9.80414C8.28241 10.7485 10.2832 11.7952 12.2278 12.9401C12.287 12.9227 12.3462 12.9049 12.4051 12.8862C10.3875 11.6943 8.30887 10.6088 6.17773 9.63428C6.19519 9.691 6.21326 9.74741 6.2329 9.80351" fill="#FFC556"/><path fill-rule="evenodd" clip-rule="evenodd" d="M6.3595 10.1316C8.29848 10.9904 10.1913 11.9431 12.0381 12.9896C12.1004 12.9743 12.1627 12.9584 12.2266 12.94C10.3004 11.8432 8.31855 10.8471 6.28906 9.95581C6.31088 10.0153 6.33457 10.0733 6.3595 10.1316Z" fill="#FFC556"/><path fill-rule="evenodd" clip-rule="evenodd" d="M6.51469 10.4586C8.32776 11.2319 10.101 12.0904 11.8345 13.0341C11.9025 13.0213 11.9704 13.006 12.0377 12.9898C10.2147 11.9919 8.3423 11.0869 6.42773 10.2783C6.45641 10.3407 6.48602 10.3996 6.51656 10.4594" fill="#FFC556"/><path fill-rule="evenodd" clip-rule="evenodd" d="M6.70111 10.7863C8.27222 11.4362 9.93371 12.1948 11.6077 13.073C11.6819 13.0622 11.7558 13.0497 11.8296 13.0353C10.1239 12.1375 8.37736 11.3248 6.58984 10.5972C6.62569 10.6595 6.66215 10.7237 6.70111 10.7842" fill="#FFC556"/><path fill-rule="evenodd" clip-rule="evenodd" d="M6.92291 11.1156C8.42806 11.7153 9.90567 12.378 11.3557 13.1038C11.4377 13.0963 11.5194 13.086 11.6013 13.0741C10.0299 12.2815 8.42452 11.5627 6.78516 10.9177C6.82941 10.9847 6.87585 11.0505 6.92322 11.1156" fill="#FFC556"/><path fill-rule="evenodd" clip-rule="evenodd" d="M7.19282 11.4499C8.45257 11.9393 9.75596 12.495 11.0668 13.1226C11.1597 13.1191 11.2532 13.1132 11.3473 13.1048C9.93174 12.4216 8.48914 11.8 7.01953 11.24C7.07522 11.3111 7.13339 11.3811 7.19407 11.4501" fill="#FFC556"/><path fill-rule="evenodd" clip-rule="evenodd" d="M7.40355 11.6737C7.44438 11.7153 7.48666 11.7557 7.52821 11.7956C8.57354 12.192 9.64599 12.6333 10.7219 13.1233C10.8318 13.127 10.9417 13.127 11.0516 13.1233C9.82073 12.5567 8.5698 12.0372 7.29883 11.5649C7.3328 11.6013 7.36708 11.6372 7.40272 11.6728" fill="#FFC556"/><path d="M7.97662 12.1699C8.74748 12.4573 9.51127 12.763 10.268 13.0871C10.4104 13.1049 10.5537 13.1167 10.6972 13.122C9.69401 12.6844 8.67777 12.2792 7.64844 11.9065C7.75503 12 7.8638 12.0883 7.97662 12.1711V12.1699ZM8.92471 12.7187L9.31949 12.8699C9.61157 12.9683 9.91232 13.0388 10.2177 13.0805C9.52727 12.7978 8.83121 12.5303 8.12955 12.2783C8.38047 12.4494 8.64686 12.5966 8.92523 12.7181" fill="#FFC556"/></svg>