<svg width="133" height="133" fill="none" xmlns="http://www.w3.org/2000/svg"><mask id="path-1-outside-1" maskUnits="userSpaceOnUse" x="0" y="-1" width="133" height="134" fill="black"><rect fill="white" y="-1" width="133" height="134"/><path d="M3.55624 52.4169C0.638886 65.4559 1.84289 79.0791 7.0019 91.4043C12.1609 103.73 21.0203 114.148 32.356 121.221C43.6917 128.294 56.9443 131.673 70.2827 130.889C83.621 130.105 96.3869 125.199 106.816 116.847C117.246 108.495 124.825 97.1109 128.505 84.2664C132.185 71.4219 131.786 57.7514 127.362 45.1437C122.938 32.536 114.708 21.6134 103.808 13.8849C92.9088 6.15637 79.8782 2.00349 66.5168 2L66.5152 8.45C78.5404 8.45314 90.2679 12.1907 100.077 19.1464C109.887 26.102 117.294 35.9324 121.276 47.2794C125.257 58.6263 125.617 70.9297 122.304 82.4898C118.992 94.0498 112.171 104.296 102.785 111.812C93.3982 119.329 81.9089 123.745 69.9044 124.45C57.8998 125.155 45.9726 122.115 35.7704 115.749C25.5683 109.384 17.5948 100.007 12.9517 88.9139C8.3086 77.8212 7.225 65.5603 9.85062 53.8252L3.55624 52.4169Z"/></mask><path d="M3.55624 52.4169C0.638886 65.4559 1.84289 79.0791 7.0019 91.4043C12.1609 103.73 21.0203 114.148 32.356 121.221C43.6917 128.294 56.9443 131.673 70.2827 130.889C83.621 130.105 96.3869 125.199 106.816 116.847C117.246 108.495 124.825 97.1109 128.505 84.2664C132.185 71.4219 131.786 57.7514 127.362 45.1437C122.938 32.536 114.708 21.6134 103.808 13.8849C92.9088 6.15637 79.8782 2.00349 66.5168 2L66.5152 8.45C78.5404 8.45314 90.2679 12.1907 100.077 19.1464C109.887 26.102 117.294 35.9324 121.276 47.2794C125.257 58.6263 125.617 70.9297 122.304 82.4898C118.992 94.0498 112.171 104.296 102.785 111.812C93.3982 119.329 81.9089 123.745 69.9044 124.45C57.8998 125.155 45.9726 122.115 35.7704 115.749C25.5683 109.384 17.5948 100.007 12.9517 88.9139C8.3086 77.8212 7.225 65.5603 9.85062 53.8252L3.55624 52.4169Z" fill="#F7931A"/><path d="M3.55624 52.4169C0.638886 65.4559 1.84289 79.0791 7.0019 91.4043C12.1609 103.73 21.0203 114.148 32.356 121.221C43.6917 128.294 56.9443 131.673 70.2827 130.889C83.621 130.105 96.3869 125.199 106.816 116.847C117.246 108.495 124.825 97.1109 128.505 84.2664C132.185 71.4219 131.786 57.7514 127.362 45.1437C122.938 32.536 114.708 21.6134 103.808 13.8849C92.9088 6.15637 79.8782 2.00349 66.5168 2L66.5152 8.45C78.5404 8.45314 90.2679 12.1907 100.077 19.1464C109.887 26.102 117.294 35.9324 121.276 47.2794C125.257 58.6263 125.617 70.9297 122.304 82.4898C118.992 94.0498 112.171 104.296 102.785 111.812C93.3982 119.329 81.9089 123.745 69.9044 124.45C57.8998 125.155 45.9726 122.115 35.7704 115.749C25.5683 109.384 17.5948 100.007 12.9517 88.9139C8.3086 77.8212 7.225 65.5603 9.85062 53.8252L3.55624 52.4169Z" stroke="white" stroke-width="4" mask="url(#path-1-outside-1)"/><mask id="path-2-outside-2" maskUnits="userSpaceOnUse" x="46" y="0" width="14" height="14" fill="black"><rect fill="white" x="46" width="14" height="14"/><path d="M48.6828 4.50971C51.103 3.81409 53.5619 3.2608 56.0468 2.85268L57.0921 9.21741C54.8557 9.58472 52.6427 10.0827 50.4645 10.7087L48.6828 4.50971Z"/></mask><path d="M48.6828 4.50971C51.103 3.81409 53.5619 3.2608 56.0468 2.85268L57.0921 9.21741C54.8557 9.58472 52.6427 10.0827 50.4645 10.7087L48.6828 4.50971Z" fill="#8DC351"/><path d="M48.6828 4.50971C51.103 3.81409 53.5619 3.2608 56.0468 2.85268L57.0921 9.21741C54.8557 9.58472 52.6427 10.0827 50.4645 10.7087L48.6828 4.50971Z" stroke="white" stroke-width="4" mask="url(#path-2-outside-2)"/><mask id="path-3-outside-3" maskUnits="userSpaceOnUse" x="55" y="0" width="10" height="12" fill="black"><rect fill="white" x="55" width="10" height="12"/><path d="M58.1747 2.53955C59.2283 2.40241 60.2851 2.29133 61.3441 2.2064L61.8597 8.63576C60.9066 8.7122 59.9554 8.81217 59.0072 8.93559L58.1747 2.53955Z"/></mask><path d="M58.1747 2.53955C59.2283 2.40241 60.2851 2.29133 61.3441 2.2064L61.8597 8.63576C60.9066 8.7122 59.9554 8.81217 59.0072 8.93559L58.1747 2.53955Z" fill="#BFBBBB"/><path d="M58.1747 2.53955C59.2283 2.40241 60.2851 2.29133 61.3441 2.2064L61.8597 8.63576C60.9066 8.7122 59.9554 8.81217 59.0072 8.93559L58.1747 2.53955Z" stroke="white" stroke-width="4" mask="url(#path-3-outside-3)"/><mask id="path-4-outside-4" maskUnits="userSpaceOnUse" x="1" y="2" width="52" height="53" fill="black"><rect fill="white" x="1" y="2" width="52" height="53"/><path d="M3.95693 50.7325C6.67013 39.9704 12.1145 30.0904 19.7636 22.0482C27.4127 14.006 37.0075 8.07372 47.6203 4.82499L49.5083 10.9925C39.9568 13.9164 31.3214 19.2554 24.4372 26.4934C17.5531 33.7314 12.6531 42.6233 10.2112 52.3092L3.95693 50.7325Z"/></mask><path d="M3.95693 50.7325C6.67013 39.9704 12.1145 30.0904 19.7636 22.0482C27.4127 14.006 37.0075 8.07372 47.6203 4.82499L49.5083 10.9925C39.9568 13.9164 31.3214 19.2554 24.4372 26.4934C17.5531 33.7314 12.6531 42.6233 10.2112 52.3092L3.95693 50.7325Z" fill="#627EEA"/><path d="M3.95693 50.7325C6.67013 39.9704 12.1145 30.0904 19.7636 22.0482C27.4127 14.006 37.0075 8.07372 47.6203 4.82499L49.5083 10.9925C39.9568 13.9164 31.3214 19.2554 24.4372 26.4934C17.5531 33.7314 12.6531 42.6233 10.2112 52.3092L3.95693 50.7325Z" stroke="white" stroke-width="4" mask="url(#path-4-outside-4)"/></svg>