<svg width="456" height="351" fill="none" xmlns="http://www.w3.org/2000/svg"><g opacity="0.8"><rect opacity="0.2" x="57.1618" y="310.604" width="0.336631" height="309.521" transform="rotate(-180 57.1618 310.604)" stroke="black" stroke-width="0.336631" stroke-dasharray="1.24 6.2"/><rect opacity="0.2" x="238.261" y="310.604" width="0.336631" height="309.521" transform="rotate(-180 238.261 310.604)" stroke="black" stroke-width="0.336631" stroke-dasharray="1.24 6.2"/><rect opacity="0.2" x="129.199" y="310.604" width="0.336631" height="309.521" transform="rotate(-180 129.199 310.604)" stroke="black" stroke-width="0.336631" stroke-dasharray="1.24 6.2"/><rect opacity="0.2" x="310.974" y="310.604" width="0.336631" height="309.521" transform="rotate(-180 310.974 310.604)" stroke="black" stroke-width="0.336631" stroke-dasharray="1.24 6.2"/><rect opacity="0.2" x="20.1481" y="310.604" width="0.336631" height="309.521" transform="rotate(-180 20.1481 310.604)" stroke="black" stroke-width="0.336631" stroke-dasharray="1.24 6.2"/><rect opacity="0.2" x="166.233" y="310.604" width="0.336631" height="309.521" transform="rotate(-180 166.233 310.604)" stroke="black" stroke-width="0.336631" stroke-dasharray="1.24 6.2"/><rect opacity="0.2" x="346.652" y="310.604" width="0.336631" height="309.521" transform="rotate(-180 346.652 310.604)" stroke="black" stroke-width="0.336631" stroke-dasharray="1.24 6.2"/><rect opacity="0.2" x="418.681" y="310.604" width="0.336631" height="309.521" transform="rotate(-180 418.681 310.604)" stroke="black" stroke-width="0.336631" stroke-dasharray="1.24 6.2"/><rect opacity="0.2" x="92.8375" y="310.604" width="0.336631" height="309.521" transform="rotate(-180 92.8375 310.604)" stroke="black" stroke-width="0.336631" stroke-dasharray="1.24 6.2"/><rect opacity="0.2" x="274.622" y="310.604" width="0.336631" height="309.521" transform="rotate(-180 274.622 310.604)" stroke="black" stroke-width="0.336631" stroke-dasharray="1.24 6.2"/><rect opacity="0.2" x="201.922" y="310.604" width="0.336631" height="309.521" transform="rotate(-180 201.922 310.604)" stroke="black" stroke-width="0.336631" stroke-dasharray="1.24 6.2"/><rect opacity="0.2" x="383.004" y="310.604" width="0.336631" height="309.521" transform="rotate(-180 383.004 310.604)" stroke="black" stroke-width="0.336631" stroke-dasharray="1.24 6.2"/><rect opacity="0.2" x="455.042" y="310.604" width="0.336631" height="309.521" transform="rotate(-180 455.042 310.604)" stroke="black" stroke-width="0.336631" stroke-dasharray="1.24 6.2"/><path opacity="0.1" d="M-119.766 198.619L-122.058 193.398C-122.598 192.168 -124.436 192.554 -124.436 193.897V349.192C-124.436 349.878 -123.88 350.433 -123.195 350.433H453.306C453.991 350.433 454.547 349.878 454.547 349.192V46.0004C454.547 44.4997 452.379 44.2877 452.088 45.76L452.036 46.0232C451.922 46.6047 451.412 47.0238 450.819 47.0238H447.336C446.793 47.0238 446.313 47.3774 446.151 47.8963L442.631 59.215L437.164 79.5195C436.828 80.7699 435.041 80.7336 434.756 79.4706L433.015 71.7748C432.741 70.5621 431.052 70.4614 430.635 71.633L425.517 86.033C425.113 87.1716 423.485 87.1191 423.154 85.9568L421.047 78.5452C420.994 78.36 420.899 78.1896 420.769 78.0474L417.423 74.3856C416.806 73.7111 415.697 73.9116 415.356 74.7591L412.402 82.0912C412.023 83.0334 410.734 83.1455 410.197 82.2829L409.126 80.5603C408.565 79.6591 407.206 79.8317 406.888 80.8444L400.459 101.344C400.13 102.394 398.698 102.528 398.18 101.557L397.197 99.7124C396.781 98.9322 395.706 98.8249 395.144 99.5076L385.123 111.683C384.717 112.176 384.004 112.28 383.474 111.925L380.227 109.75C379.502 109.265 378.516 109.659 378.325 110.51L374.142 129.203C374.126 129.277 374.103 129.349 374.073 129.419L369.282 140.653C369.256 140.713 369.226 140.771 369.191 140.826L363.66 149.622C363.301 150.193 362.552 150.372 361.973 150.027L354.557 145.6C354.252 145.419 354.04 145.115 353.974 144.767L350.114 124.498C350.051 124.167 349.857 123.876 349.575 123.692L338.769 116.621C338.513 116.453 338.328 116.197 338.249 115.902L335.122 104.17L330.28 87.3055C329.973 86.2336 328.517 86.08 327.992 87.0641L322.123 98.0741L317.727 109.264C317.299 110.355 315.735 110.298 315.387 109.179L311.995 98.2715C311.628 97.0911 309.949 97.1146 309.615 98.3048L306.869 108.093C306.755 108.497 306.445 108.817 306.044 108.942L295.768 112.155C295.082 112.369 294.358 111.959 294.191 111.26L288.229 86.4349C288.007 85.5092 286.868 85.1682 286.173 85.8195L283.395 88.4255C282.751 89.0297 281.699 88.7867 281.386 87.9611L274.751 70.4977C274.353 69.4503 272.881 69.4249 272.447 70.4579L266.608 84.3591L259.567 108.741L255.545 120.057C255.518 120.133 255.484 120.205 255.443 120.274L250.175 129.169C250.117 129.265 250.074 129.369 250.044 129.477L246.219 143.605C245.994 144.436 245.011 144.791 244.307 144.296L239.97 141.245C239.542 140.944 238.971 140.944 238.542 141.245L232.868 145.237C232.794 145.289 232.726 145.348 232.666 145.415L228.646 149.813C228.213 150.286 227.492 150.352 226.981 149.965L221.97 146.169C221.372 145.717 220.513 145.893 220.142 146.545L215.831 154.125C215.284 155.088 213.844 154.905 213.555 153.836L211.02 144.477C210.705 143.312 209.081 143.237 208.66 144.368L205.189 153.69C204.791 154.758 203.283 154.77 202.869 153.707L198.131 141.534C197.945 141.057 197.486 140.743 196.974 140.743H194.948C194.403 140.743 193.922 140.388 193.762 139.867L190.548 129.434C190.524 129.354 190.507 129.272 190.499 129.189L189.399 117.838C189.272 116.532 187.469 116.291 187.003 117.518L185.169 122.358C184.867 123.154 183.873 123.417 183.217 122.874L181.069 121.096C180.481 120.61 179.598 120.764 179.21 121.42L174.588 129.222C174.552 129.283 174.521 129.347 174.496 129.414L170.201 140.743L165.426 156.418C165.361 156.631 165.24 156.823 165.075 156.973L155.389 165.812C155.334 165.862 155.284 165.917 155.239 165.976L151.617 170.732C151.382 171.04 151.017 171.221 150.63 171.221H144.517C144.002 171.221 143.541 170.903 143.358 170.421L139.6 160.554L136.386 150.757C136.362 150.685 136.332 150.615 136.296 150.548L132.021 142.73C131.55 141.87 130.316 141.869 129.844 142.728L117.231 165.69C117.16 165.821 117.112 165.962 117.091 166.109L115.165 179.355C115 180.492 113.511 180.813 112.891 179.845L107.57 171.527C107.442 171.327 107.374 171.095 107.374 170.858V160.864C107.374 160.66 107.324 160.46 107.228 160.28L99.2499 145.315L93.5873 131.932C93.1653 130.934 91.7575 130.918 91.3129 131.906L87.4293 140.532C87.3666 140.672 87.2787 140.798 87.1701 140.905L77.4901 150.475C77.3742 150.589 77.2821 150.726 77.2188 150.876L68.6488 171.221L61.7346 191.423C61.6521 191.664 61.4975 191.874 61.2918 192.024L54.6882 196.841C54.4361 197.025 54.2626 197.297 54.2021 197.603L51.6216 210.672C51.5994 210.785 51.5616 210.894 51.5093 210.996L45.4288 222.898C45.3828 222.988 45.348 223.083 45.3251 223.181L40.7838 242.724C40.7652 242.803 40.7388 242.881 40.7049 242.956L34.5273 256.559L30.4733 263.077C29.8824 264.027 28.4349 263.771 28.205 262.676L25.6212 250.373C25.4635 249.623 24.6694 249.193 23.955 249.473L16.6656 252.321C16.0516 252.561 15.3572 252.279 15.0843 251.679L7.43192 234.858C7.14313 234.223 6.38814 233.951 5.76068 234.255L-0.555374 237.319C-0.809624 237.443 -1.01416 237.649 -1.13517 237.905L-5.51392 247.145C-5.90667 247.973 -7.03175 248.105 -7.60455 247.388L-11.1145 242.999C-11.1968 242.896 -11.2623 242.781 -11.3083 242.657L-22.0694 213.755C-22.4606 212.705 -23.9341 212.67 -24.3739 213.702L-32.5816 232.946C-32.7767 233.403 -33.2259 233.7 -33.7231 233.7H-39.7066C-40.0324 233.7 -40.3451 233.572 -40.5773 233.343L-50.8502 223.227C-50.98 223.099 -51.08 222.945 -51.1432 222.774L-57.624 205.269C-57.747 204.936 -58.0061 204.673 -58.3361 204.544L-67.1956 201.082C-67.4367 200.987 -67.6424 200.82 -67.7837 200.603L-73.4158 191.96C-73.4875 191.849 -73.5413 191.729 -73.5752 191.602L-75.7158 183.571C-75.8606 183.028 -76.3526 182.65 -76.9149 182.65H-82.999C-83.621 182.65 -84.1469 183.11 -84.2291 183.727L-86.3792 199.86C-86.4614 200.476 -86.9873 200.937 -87.6093 200.937H-94.7417C-95.0305 200.937 -95.3103 201.037 -95.5328 201.222L-98.3602 203.561C-99.0419 204.125 -100.078 203.815 -100.338 202.969L-104.668 188.86C-104.828 188.339 -105.31 187.984 -105.855 187.984H-110.97C-111.425 187.984 -111.843 188.232 -112.06 188.632L-117.54 198.713C-118.032 199.619 -119.352 199.563 -119.766 198.619Z" fill="url(#paint0_linear)"/><path d="M-124.436 186.577L-119.766 197.212C-119.352 198.157 -118.032 198.212 -117.54 197.306L-112.06 187.225C-111.843 186.826 -111.425 186.577 -110.97 186.577H-105.855C-105.31 186.577 -104.828 186.933 -104.668 187.454L-100.338 201.563C-100.078 202.409 -99.0419 202.719 -98.3602 202.155L-95.5328 199.815C-95.3103 199.631 -95.0305 199.53 -94.7417 199.53H-87.6093C-86.9873 199.53 -86.4614 199.07 -86.3792 198.453L-84.2291 182.321C-84.1469 181.704 -83.621 181.243 -82.999 181.243H-76.9149C-76.3526 181.243 -75.8606 181.622 -75.7158 182.165L-73.5752 190.195C-73.5413 190.322 -73.4875 190.443 -73.4158 190.553L-67.7837 199.197C-67.6424 199.414 -67.4367 199.581 -67.1956 199.675L-58.3361 203.137C-58.0061 203.266 -57.747 203.53 -57.624 203.862L-51.1432 221.367C-51.08 221.538 -50.98 221.693 -50.8502 221.821L-40.5773 231.937C-40.3451 232.166 -40.0324 232.294 -39.7066 232.294H-33.7231C-33.2259 232.294 -32.7767 231.997 -32.5816 231.54L-24.3739 212.295C-23.9341 211.264 -22.4606 211.298 -22.0694 212.349L-11.3083 241.251C-11.2623 241.374 -11.1969 241.49 -11.1145 241.593L-7.60455 245.982C-7.03176 246.698 -5.90667 246.567 -5.51392 245.738L-1.13518 236.498C-1.01417 236.243 -0.809629 236.036 -0.555384 235.913L5.76067 232.849C6.38812 232.545 7.14311 232.817 7.4319 233.452L15.0843 250.273C15.3572 250.873 16.0516 251.155 16.6656 250.915L23.955 248.066C24.6694 247.787 25.4635 248.216 25.6211 248.967L28.205 261.27C28.4349 262.365 29.8824 262.62 30.4732 261.67L34.5273 255.152L40.7049 241.549C40.7388 241.475 40.7652 241.397 40.7837 241.317L45.3251 221.775C45.348 221.676 45.3828 221.581 45.4288 221.491L51.5093 209.59C51.5615 209.487 51.5994 209.378 51.6216 209.265L54.2021 196.197C54.2626 195.89 54.4361 195.618 54.6882 195.434L61.2918 190.617C61.4975 190.467 61.6521 190.258 61.7346 190.017L68.6488 169.814L77.2188 149.469C77.2821 149.319 77.3742 149.183 77.49 149.068L87.1701 139.499C87.2787 139.392 87.3666 139.265 87.4293 139.126L91.3128 130.499C91.7575 129.512 93.1653 129.528 93.5873 130.525L99.2499 143.908L107.228 158.873C107.324 159.053 107.374 159.254 107.374 159.457V169.451C107.374 169.688 107.442 169.92 107.57 170.12L112.891 178.439C113.511 179.407 115 179.086 115.165 177.948L117.091 164.703C117.112 164.556 117.16 164.414 117.231 164.284L129.844 141.321C130.316 140.462 131.55 140.463 132.02 141.323L136.295 149.142C136.332 149.208 136.362 149.278 136.386 149.35L139.6 159.147L143.358 169.015C143.541 169.496 144.002 169.814 144.517 169.814H150.63C151.017 169.814 151.382 169.633 151.617 169.325L155.239 164.57C155.284 164.511 155.334 164.455 155.389 164.405L165.075 155.567C165.24 155.417 165.361 155.225 165.426 155.012L170.201 139.337L174.496 128.008C174.521 127.941 174.552 127.876 174.588 127.815L179.21 120.013C179.598 119.357 180.481 119.204 181.069 119.69L183.217 121.468C183.872 122.01 184.867 121.747 185.169 120.952L187.003 116.112C187.469 114.884 189.272 115.125 189.399 116.432L190.499 127.782C190.507 127.865 190.524 127.948 190.548 128.028L193.762 138.461C193.922 138.981 194.403 139.337 194.948 139.337H196.974C197.486 139.337 197.945 139.651 198.131 140.127L202.869 152.3C203.283 153.363 204.791 153.352 205.189 152.283L208.66 142.962C209.081 141.831 210.705 141.905 211.02 143.07L213.555 152.43C213.844 153.499 215.284 153.682 215.831 152.719L220.142 145.139C220.512 144.487 221.372 144.31 221.97 144.763L226.98 148.559C227.492 148.946 228.213 148.88 228.646 148.407L232.666 144.008C232.726 143.942 232.794 143.882 232.868 143.83L238.542 139.839C238.971 139.537 239.542 139.537 239.97 139.839L244.307 142.889C245.011 143.385 245.994 143.03 246.219 142.198L250.044 128.07C250.074 127.962 250.117 127.859 250.175 127.762L255.443 118.868C255.484 118.799 255.518 118.726 255.545 118.651L259.567 107.335L266.608 82.9526L272.447 69.0514C272.881 68.0184 274.353 68.0438 274.751 69.0912L281.386 86.5546C281.699 87.3802 282.751 87.6232 283.395 87.0191L286.173 84.413C286.868 83.7617 288.007 84.1027 288.229 85.0284L294.191 109.854C294.358 110.552 295.082 110.963 295.768 110.748L306.044 107.536C306.445 107.41 306.755 107.091 306.869 106.687L309.615 96.8983C309.949 95.7081 311.628 95.6846 311.995 96.865L315.387 107.772C315.735 108.892 317.299 108.949 317.727 107.857L322.123 96.6676L327.992 85.6576C328.517 84.6735 329.973 84.8271 330.28 85.899L335.122 102.763L338.249 114.495C338.328 114.791 338.513 115.047 338.769 115.214L349.575 122.285C349.857 122.47 350.051 122.761 350.114 123.092L353.974 143.36C354.04 143.709 354.252 144.012 354.557 144.194L361.973 148.62C362.552 148.966 363.301 148.786 363.66 148.215L369.191 139.42C369.225 139.364 369.256 139.306 369.282 139.246L374.073 128.012C374.103 127.942 374.126 127.87 374.142 127.796L378.325 109.104C378.516 108.252 379.502 107.858 380.227 108.344L383.474 110.519C384.004 110.874 384.717 110.769 385.123 110.276L395.144 98.1011C395.706 97.4184 396.781 97.5257 397.197 98.3059L398.18 100.15C398.698 101.121 400.13 100.988 400.459 99.9376L406.888 79.4379C407.206 78.4253 408.565 78.2526 409.126 79.1539L410.197 80.8764C410.734 81.739 412.023 81.6269 412.402 80.6847L415.356 73.3526C415.697 72.5051 416.806 72.3046 417.423 72.9791L420.769 76.6409C420.899 76.7831 420.994 76.9535 421.047 77.1387L423.154 84.5503C423.485 85.7126 425.113 85.7651 425.517 84.6265L430.635 70.2265C431.052 69.0549 432.741 69.1556 433.015 70.3683L434.756 78.0642C435.041 79.3272 436.828 79.3634 437.164 78.113L442.631 57.8085L446.151 46.4898C446.313 45.9709 446.793 45.6173 447.336 45.6173H450.819C451.411 45.6173 451.921 45.1982 452.036 44.6168L454.547 31.9023" stroke="#B1A6FF" stroke-width="2"/></g><defs><linearGradient id="paint0_linear" x1="165.056" y1="131.004" x2="165.056" y2="326.137" gradientUnits="userSpaceOnUse"><stop stop-color="white"/><stop offset="1" stop-color="#6E59F0" stop-opacity="0"/></linearGradient></defs></svg>