<svg fill="none" xmlns="http://www.w3.org/2000/svg" viewBox="0 0 98 20"><path opacity=".4" fill-rule="evenodd" clip-rule="evenodd" d="M25.1 0h2.94L14.02 20 0 0h14.02l4.41 6.33-1.35 2-4.19-5.89h-2.6l5.32 7.78-1.59 2.22-6.67-10H4.18l9.84 13.45L25.1 0zm8.06 8.47a12.25 12.25 0 01.36.8 13.38 13.38 0 01.36-.82l2.57-4.71c.03-.06.06-.1.1-.14a.34.34 0 01.1-.08l.15-.03h1.4V12h-1.42V6.5a10.28 10.28 0 01.04-.7l-2.62 4.82a.7.7 0 01-.23.26c-.1.06-.21.09-.34.09h-.22a.63.63 0 01-.34-.09.7.7 0 01-.23-.26L30.2 5.78a4.25 4.25 0 01.04.72V12H28.8V3.48h1.21l.19.01c.05 0 .1.01.14.03.04.02.08.04.12.08a.6.6 0 01.1.14l2.59 4.73zm16.54-.73c0 .63-.1 1.2-.32 1.74a4.1 4.1 0 01-4.06 2.61c-.66 0-1.26-.1-1.8-.32s-1-.52-1.4-.91a4.1 4.1 0 01-.89-1.38 4.67 4.67 0 01-.31-1.74c0-.62.1-1.2.31-1.73a4.08 4.08 0 012.28-2.3 4.75 4.75 0 011.8-.32c.66 0 1.26.11 1.8.33a4.08 4.08 0 012.27 2.3c.22.52.32 1.1.32 1.72zm-1.65 0c0-.46-.07-.88-.2-1.25a2.6 2.6 0 00-.53-.95 2.33 2.33 0 00-.87-.6c-.33-.13-.71-.2-1.13-.2-.43 0-.81.07-1.15.2a2.39 2.39 0 00-1.41 1.55c-.13.37-.2.79-.2 1.25 0 .47.07.89.2 1.26a2.42 2.42 0 001.41 1.53c.34.14.72.21 1.15.21.42 0 .8-.07 1.13-.2A2.36 2.36 0 0047.85 9c.13-.37.2-.79.2-1.26zm10-4.26v1.3h-2.6V12h-1.62V4.79h-2.61v-1.3h6.83zM62.33 12h-1.62V3.48h1.62V12zm2.54-8.52h1.3c.14 0 .26.04.34.1.1.07.16.16.2.26l2.04 5.2a10.27 10.27 0 01.37 1.2c.1-.46.2-.86.34-1.2l2.03-5.2c.04-.09.1-.17.2-.24.09-.08.2-.12.34-.12h1.3L69.83 12h-1.46l-3.5-8.52zM82.27 12h-1.25a.58.58 0 01-.34-.1.62.62 0 01-.2-.26l-.64-1.74h-3.6l-.64 1.74a.55.55 0 01-.2.25c-.08.07-.2.11-.33.11H73.8l3.4-8.52h1.66l3.4 8.52zm-5.61-3.22h2.76l-1.05-2.83a21 21 0 01-.33-1 14.39 14.39 0 01-.33 1.01l-1.05 2.82zm13.17-5.3v1.3h-2.6V12H85.6V4.79H83v-1.3h6.84zm7.93 0v1.26H93.9v2.37h3.03v1.22h-3.03v2.4h3.85V12h-5.47V3.48h5.47zm-68.92 11h.46a.2.2 0 01.12.03c.03.02.05.05.07.09l.7 1.81a2.16 2.16 0 01.14.42c.03-.16.07-.3.12-.42l.7-1.81a.21.21 0 01.07-.09.18.18 0 01.12-.04h.46l-1.23 2.97h-.5l-1.23-2.97zm7.48 0v.43h-1.34v.83h1.06v.42h-1.06V17h1.34v.44h-1.9v-2.97h1.9zm3.08 0a.4.4 0 01.07 0 .1.1 0 01.04 0l.04.04.04.04 1.6 1.99a2.57 2.57 0 01-.02-.27v-1.8h.5v2.96h-.3c-.04 0-.08 0-.11-.02a.25.25 0 01-.09-.07l-1.58-1.98a2.07 2.07 0 01.02.25v1.82h-.5v-2.97h.3zm7.3 0v.45h-.9v2.51h-.57v-2.51h-.91v-.46h2.39zM50.59 17c.1 0 .2-.02.3-.06a.6.6 0 00.2-.15c.07-.06.11-.14.14-.23.04-.1.05-.2.05-.3v-1.79h.57v1.78c0 .18-.03.34-.1.5a1.1 1.1 0 01-.64.64c-.15.06-.33.09-.52.09-.2 0-.37-.03-.52-.1a1.16 1.16 0 01-.4-.25c-.1-.1-.19-.24-.25-.39a1.37 1.37 0 01-.08-.49v-1.78h.56v1.78c0 .11.02.22.05.3.03.1.07.18.13.24a.6.6 0 00.22.15c.08.04.18.06.3.06zm4.71-.72v1.16h-.56v-2.97h.92c.2 0 .38.02.53.07a1 1 0 01.36.17c.1.08.16.17.2.27a.86.86 0 01-.1.87.84.84 0 01-.21.2c-.08.05-.18.1-.28.13.07.04.13.1.18.17l.76 1.1h-.5a.26.26 0 01-.13-.03.26.26 0 01-.09-.09l-.63-.95a.22.22 0 00-.08-.07.27.27 0 00-.13-.03h-.24zm0-.4h.35c.1 0 .2 0 .28-.03a.54.54 0 00.2-.11c.04-.05.08-.1.1-.16a.56.56 0 00.04-.21.42.42 0 00-.15-.35c-.1-.08-.25-.12-.46-.12h-.36v.99zm6.37-1.4v.43h-1.34v.83h1.05v.42h-1.05V17h1.34v.44h-1.9v-2.97h1.9zm7.98 2.26a.1.1 0 01.08.04l.22.23c-.12.15-.28.27-.46.35-.17.08-.39.12-.64.12-.22 0-.43-.04-.6-.12a1.34 1.34 0 01-.76-.8 1.8 1.8 0 01.01-1.21 1.4 1.4 0 01.81-.8 1.7 1.7 0 011.22 0c.17.07.31.16.43.28l-.18.25a.16.16 0 01-.05.05.12.12 0 01-.07.01.17.17 0 01-.1-.03 1.22 1.22 0 00-.32-.16 1.01 1.01 0 00-.3-.04c-.14 0-.27.02-.4.07a.87.87 0 00-.5.54c-.05.13-.07.28-.07.44 0 .17.02.31.07.44s.11.24.2.33a.85.85 0 00.65.28 1.56 1.56 0 00.37-.05.76.76 0 00.3-.18.18.18 0 01.04-.02.1.1 0 01.05-.02zm5.68.7h-.43a.2.2 0 01-.12-.03.22.22 0 01-.07-.1l-.22-.6h-1.26l-.22.6a.2.2 0 01-.07.1.18.18 0 01-.12.03h-.44l1.2-2.97h.57l1.18 2.97zm-1.95-1.12h.96l-.37-.99a7.96 7.96 0 01-.11-.35 5.2 5.2 0 01-.12.36l-.36.98zm5.15.08v1.04h-.56v-2.97h.98c.2 0 .38.03.53.07.14.05.27.11.36.2.1.08.17.18.22.3.04.11.07.24.07.38s-.03.28-.08.4a.82.82 0 01-.22.3c-.1.1-.22.16-.36.2-.15.05-.32.08-.52.08h-.42zm0-.43h.42c.1 0 .2-.02.27-.04a.46.46 0 00.3-.28.66.66 0 000-.45.43.43 0 00-.1-.16.5.5 0 00-.2-.1.88.88 0 00-.27-.04h-.42v1.07zm4.97 1.47h-.57v-2.97h.57v2.97zm5.11-2.97v.46h-.9v2.51h-.57v-2.51h-.91v-.46h2.38zm5.01 2.97h-.43a.2.2 0 01-.12-.03.21.21 0 01-.07-.1l-.23-.6h-1.25l-.23.6a.2.2 0 01-.06.1.18.18 0 01-.12.03h-.44l1.19-2.97h.57l1.2 2.97zm-1.96-1.12h.97l-.37-.99a7.35 7.35 0 01-.11-.35 4.85 4.85 0 01-.12.36l-.37.98zm5.14.67H98v.45h-1.77v-2.97h.56V17z" fill="#fff"/></svg>