<svg width="25" height="25" fill="none" xmlns="http://www.w3.org/2000/svg"><rect y="0.172363" width="24.1875" height="24.1875" rx="3.33621" fill="#3B546C"/><g clip-path="url(#clip0)"><path d="M12.0938 21.3364C17.1031 21.3364 21.1641 17.2755 21.1641 12.2661C21.1641 7.25672 17.1031 3.1958 12.0938 3.1958C7.08435 3.1958 3.02344 7.25672 3.02344 12.2661C3.02344 17.2755 7.08435 21.3364 12.0938 21.3364Z" fill="#3B536C"/><path d="M16.1027 7.73096H17.741L14.3311 11.1079C13.735 11.6953 12.9316 12.0246 12.0947 12.0246C11.2578 12.0246 10.4545 11.6953 9.85833 11.1079L6.44562 7.73096H8.08678L10.6775 10.295C11.0548 10.6674 11.5635 10.8762 12.0936 10.8762C12.6237 10.8762 13.1324 10.6674 13.5097 10.295L16.1027 7.73096ZM8.06694 17.1204H6.42578L9.85833 13.723C10.4545 13.1357 11.2578 12.8064 12.0947 12.8064C12.9316 12.8064 13.735 13.1357 14.3311 13.723L17.7637 17.1199H16.1225L13.512 14.5337C13.1347 14.1613 12.6259 13.9525 12.0959 13.9525C11.5658 13.9525 11.057 14.1613 10.6798 14.5337L8.06637 17.1204H8.06694Z" fill="white"/></g><defs><clipPath id="clip0"><rect width="18.1406" height="18.1406" fill="white" transform="translate(3.02344 3.1958)"/></clipPath></defs></svg>