<svg width="135" height="36" fill="none" xmlns="http://www.w3.org/2000/svg"><g><path d="M11.944 15.9078C11.944 15.9078 1.81966 10.2942 1.22352 9.96634C0.627387 9.63847 0.03125 9.83718 0.03125 10.5227V34.7159C0.03125 35.2326 0.458481 35.4512 0.975133 35.173C1.49178 34.8849 11.944 29.0924 11.944 29.0924C11.944 29.0924 13.3648 28.3075 14.0703 27.9101C15.2129 27.2742 17.4981 26.0124 17.4981 26.0124C17.4981 26.0124 22.2175 23.3993 22.8434 23.0515C23.4694 22.7038 23.4097 22.2269 22.8832 21.9586C22.3566 21.6904 17.508 18.9779 17.508 18.9779L11.944 15.9078Z" fill="url(#paint0_linear)"/><path d="M13.8105 22.4649L0.49678 9.84668C0.188777 9.91623 0 10.1547 0 10.5422V34.6857C0 35.0136 0.129163 35.2123 0.298068 35.2818L13.8105 22.4649Z" fill="url(#paint1_linear)"/><mask id="mask0" mask-type="alpha" maskUnits="userSpaceOnUse" x="0" y="9" width="14" height="27"><path d="M13.8105 22.4649L0.49678 9.84668C0.188777 9.91623 0 10.1547 0 10.5422V34.6857C0 35.0136 0.129163 35.2123 0.298068 35.2818L13.8105 22.4649Z" fill="black"/></mask><g mask="url(#mask0)"/><mask id="mask1" mask-type="alpha" maskUnits="userSpaceOnUse" x="0" y="22" width="18" height="14"><path d="M0.842357 35.2127L8.54246 30.9802C10.4402 29.927 11.9404 29.0924 11.9404 29.0924L17.5342 26.0819L13.8083 22.4653L0.295898 35.2823C0.444933 35.3319 0.713194 35.3021 0.921842 35.2028" fill="black"/></mask><g mask="url(#mask1)"><path d="M11.9208 15.9078C11.9009 15.9575 1.77652 10.334 1.19032 10.0458C0.594183 9.66827 -0.00195312 9.87692 -0.00195312 10.5426V34.7855C-0.00195312 35.322 0.425278 35.5406 0.892252 35.2823C1.45858 34.9643 11.9009 29.1719 11.9208 29.1222L17.4847 26.0422C17.4549 26.0819 22.1644 23.4688 22.7506 23.1608C23.4262 22.7733 23.3567 22.2964 22.85 22.0679C22.3035 21.75 17.4549 19.0376 17.4847 18.9879L11.9208 15.9078Z" fill="url(#paint2_linear)"/></g><path d="M1.20169 9.95584C0.943366 9.82668 0.694976 9.78694 0.486328 9.83662L13.81 22.4747L17.4961 18.9873L11.9421 15.9073C11.9421 15.9073 6.70602 13.0061 3.5465 11.2574L1.20169 9.95584Z" fill="url(#paint3_linear)"/><mask id="mask2" mask-type="alpha" maskUnits="userSpaceOnUse" x="0" y="9" width="18" height="14"><path d="M1.20169 9.95584C0.943366 9.82668 0.694976 9.78694 0.486328 9.83662L13.81 22.4747L17.4961 18.9873L11.9421 15.9073C11.9421 15.9073 6.70602 13.0061 3.5465 11.2574L1.20169 9.95584Z" fill="black"/></mask><g mask="url(#mask2)"/><path d="M94.5492 26.7263L93.4464 27.7695C93.188 27.9086 92.9397 28.0775 92.6913 28.1868C91.9262 28.5346 91.1512 28.624 90.4558 28.624C89.7205 28.624 88.568 28.5743 87.3956 27.7198C85.7661 26.5673 85.0508 24.5702 85.0508 22.8415C85.0508 19.2547 87.952 17.4961 90.3266 17.4961C91.1512 17.4961 92.0057 17.7047 92.6913 18.1419C93.8438 18.907 94.1419 19.9005 94.3008 20.437L88.8959 22.6328L87.1273 22.7719C87.7036 25.7128 89.6808 27.4218 91.8666 27.4218C92.9595 27.4218 93.7643 27.0641 94.5095 26.6965C94.5095 26.6965 94.6585 26.617 94.5492 26.7263ZM91.2506 20.8245C91.6878 20.6656 91.9064 20.5265 91.9064 20.1986C91.9064 19.2646 90.883 18.1916 89.651 18.1916C88.7468 18.1916 87.0379 18.9169 87.0379 21.4306C87.0379 21.828 87.0876 22.2453 87.1075 22.6626L91.2506 20.8245Z" fill="white"/><path d="M83.2614 26.5973C83.2614 27.4915 83.4203 27.6306 84.1754 27.7002C84.5729 27.7499 84.9603 27.7697 85.3478 27.8095L84.5033 28.3162H80.4595C80.9861 27.6207 81.0855 27.5512 81.0855 27.0941V26.5775L81.0755 12.8663H79.2871L81.006 12.0317H84.2847C83.5694 12.449 83.3607 12.6974 83.2713 13.5022L83.2614 26.5973Z" fill="white"/><path d="M76.9929 18.629C77.5195 19.0662 78.6124 19.9902 78.6124 21.7389C78.6124 23.4478 77.6586 24.2526 76.6948 25.0176C76.3967 25.3157 76.049 25.6436 76.049 26.1503C76.049 26.657 76.3967 26.9352 76.6451 27.1438L77.4698 27.7897C78.4733 28.6441 79.3874 29.429 79.3874 31.0187C79.3874 33.1847 77.3009 35.3805 73.3664 35.3805C70.0479 35.3805 68.4482 33.7908 68.4482 32.0818C68.4482 31.2473 68.8556 30.0748 70.2168 29.2701C71.6376 28.3957 73.5551 28.2765 74.5885 28.207C74.2705 27.7897 73.9029 27.3525 73.9029 26.6371C73.9029 26.2496 74.0221 26.0112 74.1314 25.733C73.883 25.7529 73.6247 25.7827 73.3962 25.7827C70.9719 25.7827 69.6008 23.9545 69.6008 22.1562C69.6008 21.0931 70.0777 19.9207 71.0712 19.0662C72.3728 17.9832 73.9327 17.7944 75.1647 17.7944H79.8841L78.4137 18.629H76.9929ZM75.3833 28.8528C75.1945 28.823 75.0852 28.823 74.8567 28.823C74.6481 28.823 73.3962 28.8726 72.4324 29.2005C71.9257 29.3893 70.4453 29.9556 70.4453 31.6248C70.4453 33.294 72.035 34.4962 74.509 34.4962C76.7246 34.4962 77.897 33.4132 77.897 31.9626C77.897 30.7505 77.132 30.1146 75.3833 28.8528ZM76.0291 24.4016C76.5557 23.875 76.6054 23.1398 76.6054 22.7225C76.6054 21.0632 75.6317 18.4899 73.734 18.4899C73.1478 18.4899 72.502 18.788 72.1344 19.255C71.7469 19.7319 71.6376 20.3578 71.6376 20.954C71.6376 22.494 72.5318 25.0474 74.4891 25.0474C75.0554 25.0474 75.6714 24.7692 76.0291 24.4016Z" fill="white"/><path d="M62.7246 28.624C59.0782 28.624 57.1309 25.7427 57.1309 23.1395C57.1309 20.0992 59.585 17.4961 63.0724 17.4961C66.4405 17.4961 68.5568 20.1688 68.5568 22.9805C68.5568 25.7228 66.4703 28.624 62.7246 28.624ZM65.5761 26.7461C66.1325 26.001 66.2716 25.067 66.2716 24.1629C66.2716 22.1062 65.3079 18.1916 62.4464 18.1916C61.6913 18.1916 60.9263 18.4897 60.3699 18.9864C59.4757 19.8012 59.3068 20.8245 59.3068 21.828C59.3068 24.1331 60.4295 27.9285 63.2214 27.9285C64.1355 27.9285 65.0495 27.4913 65.5761 26.7461Z" fill="white"/><path d="M50.5039 28.624C46.8575 28.624 44.9102 25.7427 44.9102 23.1395C44.9102 20.0992 47.3643 17.4961 50.8517 17.4961C54.2198 17.4961 56.3361 20.1688 56.3361 22.9805C56.3361 25.7228 54.2496 28.624 50.5039 28.624ZM53.3554 26.7461C53.9118 26.001 54.0509 25.067 54.0509 24.1629C54.0509 22.1062 53.0772 18.1916 50.2257 18.1916C49.4607 18.1916 48.7056 18.4897 48.1492 18.9864C47.245 19.8012 47.0861 20.8245 47.0861 21.828C47.0861 24.1331 48.2187 27.9285 51.0007 27.9285C51.9148 27.9285 52.8288 27.4913 53.3554 26.7461Z" fill="white"/><path d="M43.4001 27.9387L40.3102 28.6541C39.0583 28.8528 37.9356 29.0317 36.7433 29.0317C30.7819 29.0217 28.5166 24.6103 28.5166 21.1527C28.5166 16.94 31.7357 13.0254 37.2401 13.0254C38.4025 13.0254 39.5253 13.1943 40.5486 13.4824C42.1681 13.9395 42.9232 14.5058 43.4001 14.8337L41.6018 16.5525L40.8467 16.7214L41.3832 15.857C40.648 15.1417 39.3067 13.8103 36.7632 13.8103C33.3552 13.8103 30.7819 16.4134 30.7819 20.2188C30.7819 24.3023 33.7129 28.1474 38.4224 28.1474C39.8035 28.1474 40.5188 27.8692 41.1646 27.6109V24.1036L37.9058 24.2824L39.6345 23.3485H44.2149L43.6585 23.8949C43.5094 24.0241 43.4896 24.0639 43.4399 24.2427C43.42 24.4414 43.4001 25.0674 43.4001 25.2959V27.9387Z" fill="white"/><path d="M101.214 26.8256V32.6976H100.052V17.7644H101.214V19.4633C101.969 18.3605 103.36 17.4961 104.96 17.4961C107.841 17.4961 109.789 19.6919 109.789 23.1594C109.789 26.607 107.851 28.8426 104.96 28.8426C103.45 28.8426 102.089 28.0576 101.214 26.8256ZM108.596 23.2488C108.596 20.6059 107.235 18.589 104.811 18.589C103.311 18.589 101.87 19.7813 101.244 20.8245V25.6532C101.87 26.6965 103.311 27.9285 104.811 27.9285C107.235 27.9285 108.596 25.8917 108.596 23.2488Z" fill="white"/><path d="M111.381 13.6211H112.573V28.6239H111.381V13.6211Z" fill="white"/><path d="M125.538 31.6643C125.786 31.7736 126.214 31.8431 126.482 31.8431C127.197 31.8431 127.684 31.555 128.131 30.5217L128.976 28.5942L124.396 17.6948H125.697L129.622 27.1436L133.516 17.6948H134.828L129.244 30.8794C128.668 32.2406 127.754 32.8963 126.502 32.8963C126.124 32.8963 125.628 32.8268 125.339 32.7373L125.538 31.6643Z" fill="white"/><path d="M122.249 28.614C122.17 28.2365 122.11 27.9086 122.071 27.6304C122.031 27.3522 122.011 27.074 122.011 26.7859C121.614 27.3721 121.047 27.8689 120.312 28.2564C119.587 28.6439 118.891 28.8326 117.947 28.8326C116.805 28.8326 115.92 28.5544 115.294 27.9782C114.669 27.4118 114.351 26.6369 114.351 25.6632C114.351 24.6895 114.808 23.8946 115.722 23.2886C116.636 22.6825 117.818 22.3745 119.279 22.3745H122.001V21.0232C122.001 20.2483 121.733 19.6323 121.206 19.1951C120.68 18.748 119.934 18.5294 118.971 18.5294C118.086 18.5294 117.371 18.738 116.825 19.1355C116.288 19.5428 116.01 20.0495 116.01 20.6556H114.818L114.798 20.596C114.758 19.7713 115.126 19.056 115.93 18.43C116.725 17.8041 117.758 17.4961 119.04 17.4961C120.312 17.4961 121.345 17.8041 122.12 18.4201C122.895 19.0262 123.283 19.9104 123.283 21.053V26.4183C123.283 26.8058 123.303 27.1734 123.352 27.541C123.402 27.9086 123.481 28.2663 123.581 28.614H122.249ZM118.096 27.8291C119.09 27.8291 119.805 27.6006 120.531 27.1634C121.256 26.7263 121.743 26.15 122.001 25.4545V23.3581H119.259C118.216 23.3581 117.351 23.5866 116.666 24.0635C115.98 24.5305 115.642 25.0968 115.642 25.7625C115.642 26.3885 115.861 26.8852 116.298 27.2628C116.745 27.6404 117.341 27.8291 118.096 27.8291Z" fill="white"/><path d="M28.1172 3.51721C28.1172 1.38105 29.8261 0 31.9523 0C33.3731 0 34.3071 0.635879 34.8933 1.41086L33.85 1.96725C33.4526 1.46053 32.7671 1.06311 31.9523 1.06311C30.5117 1.06311 29.4287 2.08648 29.4287 3.51721C29.4386 4.938 30.5117 5.9713 31.9523 5.9713C32.6975 5.9713 33.3533 5.65336 33.6811 5.35529V4.31205H31.4953V3.25888H34.9529V5.79246C34.2375 6.53763 33.2142 7.03441 31.9523 7.03441C29.8261 7.04435 28.1172 5.65336 28.1172 3.51721Z" fill="white"/><path d="M36.6143 6.94556V0.109863H41.6914V1.16304H37.9158V2.92164H41.6119V3.98475H37.9158V5.89239H41.6914V6.94556H36.6143Z" fill="white"/><path d="M45.1373 6.94556V1.16304H42.9316V0.109863H48.6247V1.16304H46.419V6.94556H45.1373Z" fill="white"/><path d="M53.1855 0.109863H54.4275V6.94556H53.1855V0.109863Z" fill="white"/><path d="M57.986 6.94556V1.16304H55.7803V0.109863H61.4734V1.16304H59.2677V6.94556H57.986Z" fill="white"/><path d="M65.7246 3.52746C65.7246 1.5006 67.2845 0.0102539 69.5101 0.0102539C71.7158 0.0102539 73.2856 1.5006 73.2856 3.52746C73.2856 5.55432 71.7058 7.04467 69.5101 7.04467C67.2845 7.04467 65.7246 5.55432 65.7246 3.52746ZM71.9344 3.46785C71.9344 2.07686 70.9805 1.03362 69.5001 1.03362C68.0098 1.03362 67.0659 2.07686 67.0659 3.46785C67.0659 4.8489 68.0098 5.90207 69.5001 5.90207C70.9805 5.90207 71.9344 4.85883 71.9344 3.46785Z" fill="white"/><path d="M79.8136 6.94556L76.0083 2.05724V6.94556H74.7266V0.109863H76.0381L79.7639 4.84915V0.109863H81.0456V6.94556H79.8136Z" fill="white"/></g><defs><linearGradient id="paint0_linear" x1="5.52321" y1="17.8563" x2="13.9605" y2="30.2379" gradientUnits="userSpaceOnUse"><stop stop-color="#FF177B"/><stop offset="1" stop-color="#FFEC73"/></linearGradient><linearGradient id="paint1_linear" x1="9.11304" y1="0.520718" x2="-6.04189" y2="32.7034" gradientUnits="userSpaceOnUse"><stop stop-color="#064AA2"/><stop offset="1" stop-color="#63FFD4"/></linearGradient><linearGradient id="paint2_linear" x1="13.7005" y1="14.969" x2="-4.95131" y2="26.127" gradientUnits="userSpaceOnUse"><stop stop-color="#FF4521"/><stop offset="1" stop-color="#8A33DB"/></linearGradient><linearGradient id="paint3_linear" x1="3.00565" y1="5.78703" x2="9.68335" y2="23.1444" gradientUnits="userSpaceOnUse"><stop stop-color="#00A3B5"/><stop offset="1" stop-color="#D6FFA1"/></linearGradient></defs></svg>